<svg xmlns="http://www.w3.org/2000/svg" xmlns:xlink="http://www.w3.org/1999/xlink" contentStyleType="text/css" data-diagram-type="CLASS" height="986px" preserveAspectRatio="none" style="width:1570px;height:986px;background:#FFFFFF;" version="1.1" viewBox="0 0 1570 986" width="1570px" zoomAndPan="magnify"><defs/><g><!--class Employer--><g class="entity" data-entity="Employer" data-source-line="4" data-uid="ent0002" id="entity_Employer"><rect fill="#F1F1F1" height="156.375" rx="2.5" ry="2.5" style="stroke:#181818;stroke-width:0.5;" width="201.957" x="197" y="7"/><text fill="#000000" font-family="sans-serif" font-size="14" lengthAdjust="spacing" textLength="103.168" x="246.3945" y="24.9951">&#1056;&#1072;&#1073;&#1086;&#1090;&#1086;&#1076;&#1072;&#1090;&#1077;&#1083;&#1100;</text><line style="stroke:#181818;stroke-width:0.5;" x1="198" x2="397.957" y1="33.2969" y2="33.2969"/><text fill="#000000" font-family="sans-serif" font-size="14" lengthAdjust="spacing" textLength="189.957" x="203" y="50.292">&#1048;&#1076;&#1077;&#1085;&#1090;&#1080;&#1092;&#1080;&#1082;&#1072;&#1090;&#1086;&#1088; : int &#171;PK&#187;</text><line style="stroke:#181818;stroke-width:1;" x1="198" x2="397.957" y1="57.5938" y2="57.5938"/><text fill="#000000" font-family="sans-serif" font-size="14" lengthAdjust="spacing" textLength="137.3887" x="203" y="74.5889">&#1053;&#1072;&#1079;&#1074;&#1072;&#1085;&#1080;&#1077; : varchar</text><text fill="#000000" font-family="sans-serif" font-size="14" lengthAdjust="spacing" textLength="113.9072" x="203" y="90.8857">&#1054;&#1087;&#1080;&#1089;&#1072;&#1085;&#1080;&#1077; : text</text><text fill="#000000" font-family="sans-serif" font-size="14" lengthAdjust="spacing" textLength="111.5967" x="203" y="107.1826">&#1040;&#1076;&#1088;&#1077;&#1089; : varchar</text><text fill="#000000" font-family="sans-serif" font-size="14" lengthAdjust="spacing" textLength="186.915" x="203" y="123.4795">&#1057;&#1089;&#1099;&#1083;&#1082;&#1072;_&#1085;&#1072;_&#1089;&#1072;&#1081;&#1090; : varchar</text><text fill="#000000" font-family="sans-serif" font-size="14" lengthAdjust="spacing" textLength="105.9844" x="203" y="139.7764">Email : varchar</text><text fill="#000000" font-family="sans-serif" font-size="14" lengthAdjust="spacing" textLength="157.7119" x="203" y="156.0732">&#1061;&#1077;&#1096;_&#1087;&#1072;&#1088;&#1086;&#1083;&#1103; : varchar</text></g><!--class Seeker--><g class="entity" data-entity="Seeker" data-source-line="15" data-uid="ent0003" id="entity_Seeker"><rect fill="#F1F1F1" height="123.7813" rx="2.5" ry="2.5" style="stroke:#181818;stroke-width:0.5;" width="205.8945" x="436" y="856"/><text fill="#000000" font-family="sans-serif" font-size="14" lengthAdjust="spacing" textLength="86.1396" x="495.8774" y="873.9951">&#1057;&#1086;&#1080;&#1089;&#1082;&#1072;&#1090;&#1077;&#1083;&#1100;</text><line style="stroke:#181818;stroke-width:0.5;" x1="437" x2="640.8945" y1="882.2969" y2="882.2969"/><text fill="#000000" font-family="sans-serif" font-size="14" lengthAdjust="spacing" textLength="189.957" x="442" y="899.292">&#1048;&#1076;&#1077;&#1085;&#1090;&#1080;&#1092;&#1080;&#1082;&#1072;&#1090;&#1086;&#1088; : int &#171;PK&#187;</text><line style="stroke:#181818;stroke-width:1;" x1="437" x2="640.8945" y1="906.5938" y2="906.5938"/><text fill="#000000" font-family="sans-serif" font-size="14" lengthAdjust="spacing" textLength="96.5986" x="442" y="923.5889">&#1048;&#1084;&#1103; : varchar</text><text fill="#000000" font-family="sans-serif" font-size="14" lengthAdjust="spacing" textLength="105.9844" x="442" y="939.8857">Email : varchar</text><text fill="#000000" font-family="sans-serif" font-size="14" lengthAdjust="spacing" textLength="157.7119" x="442" y="956.1826">&#1061;&#1077;&#1096;_&#1087;&#1072;&#1088;&#1086;&#1083;&#1103; : varchar</text><text fill="#000000" font-family="sans-serif" font-size="14" lengthAdjust="spacing" textLength="193.8945" x="442" y="972.4795">&#1053;&#1086;&#1084;&#1077;&#1088;_&#1090;&#1077;&#1083;&#1077;&#1092;&#1086;&#1085;&#1072; : varchar</text></g><!--class Vacancy--><g class="entity" data-entity="Vacancy" data-source-line="24" data-uid="ent0004" id="entity_Vacancy"><rect fill="#F1F1F1" height="188.9688" rx="2.5" ry="2.5" style="stroke:#181818;stroke-width:0.5;" width="220.9473" x="187.5" y="223"/><text fill="#000000" font-family="sans-serif" font-size="14" lengthAdjust="spacing" textLength="69.5898" x="263.1787" y="240.9951">&#1042;&#1072;&#1082;&#1072;&#1085;&#1089;&#1080;&#1103;</text><line style="stroke:#181818;stroke-width:0.5;" x1="188.5" x2="407.4473" y1="249.2969" y2="249.2969"/><text fill="#000000" font-family="sans-serif" font-size="14" lengthAdjust="spacing" textLength="189.957" x="193.5" y="266.292">&#1048;&#1076;&#1077;&#1085;&#1090;&#1080;&#1092;&#1080;&#1082;&#1072;&#1090;&#1086;&#1088; : int &#171;PK&#187;</text><line style="stroke:#181818;stroke-width:1;" x1="188.5" x2="407.4473" y1="273.5938" y2="273.5938"/><text fill="#000000" font-family="sans-serif" font-size="14" lengthAdjust="spacing" textLength="138.667" x="193.5" y="290.5889">&#1047;&#1072;&#1088;&#1087;&#1083;&#1072;&#1090;&#1072; : decimal</text><text fill="#000000" font-family="sans-serif" font-size="14" lengthAdjust="spacing" textLength="174.084" x="193.5" y="306.8857">&#1063;&#1072;&#1089;&#1090;&#1086;&#1090;&#1072;_&#1074;&#1099;&#1087;&#1083;&#1072;&#1090; : enum</text><text fill="#000000" font-family="sans-serif" font-size="14" lengthAdjust="spacing" textLength="167.3984" x="193.5" y="323.1826">&#1054;&#1087;&#1099;&#1090;_&#1088;&#1072;&#1073;&#1086;&#1090;&#1099; : varchar</text><text fill="#000000" font-family="sans-serif" font-size="14" lengthAdjust="spacing" textLength="171.2881" x="193.5" y="339.4795">&#1060;&#1086;&#1088;&#1084;&#1072;&#1090;_&#1088;&#1072;&#1073;&#1086;&#1090;&#1099; : enum</text><text fill="#000000" font-family="sans-serif" font-size="14" lengthAdjust="spacing" textLength="113.9072" x="193.5" y="355.7764">&#1054;&#1087;&#1080;&#1089;&#1072;&#1085;&#1080;&#1077; : text</text><text fill="#000000" font-family="sans-serif" font-size="14" lengthAdjust="spacing" textLength="208.9473" x="193.5" y="372.0732">&#1044;&#1072;&#1090;&#1072;_&#1087;&#1091;&#1073;&#1083;&#1080;&#1082;&#1072;&#1094;&#1080;&#1080; : datetime</text><text fill="#000000" font-family="sans-serif" font-size="14" lengthAdjust="spacing" textLength="162.6885" x="193.5" y="388.3701">&#1058;&#1080;&#1087;_&#1079;&#1072;&#1085;&#1103;&#1090;&#1086;&#1089;&#1090;&#1080; : enum</text><text fill="#000000" font-family="sans-serif" font-size="14" lengthAdjust="spacing" textLength="111.5967" x="193.5" y="404.667">&#1040;&#1076;&#1088;&#1077;&#1089; : varchar</text></g><!--class Resume--><g class="entity" data-entity="Resume" data-source-line="37" data-uid="ent0005" id="entity_Resume"><rect fill="#F1F1F1" height="91.1875" rx="2.5" ry="2.5" style="stroke:#181818;stroke-width:0.5;" width="201.957" x="765" y="272"/><text fill="#000000" font-family="sans-serif" font-size="14" lengthAdjust="spacing" textLength="55.46" x="838.2485" y="289.9951">&#1056;&#1077;&#1079;&#1102;&#1084;&#1077;</text><line style="stroke:#181818;stroke-width:0.5;" x1="766" x2="965.957" y1="298.2969" y2="298.2969"/><text fill="#000000" font-family="sans-serif" font-size="14" lengthAdjust="spacing" textLength="189.957" x="771" y="315.292">&#1048;&#1076;&#1077;&#1085;&#1090;&#1080;&#1092;&#1080;&#1082;&#1072;&#1090;&#1086;&#1088; : int &#171;PK&#187;</text><line style="stroke:#181818;stroke-width:1;" x1="766" x2="965.957" y1="322.5938" y2="322.5938"/><text fill="#000000" font-family="sans-serif" font-size="14" lengthAdjust="spacing" textLength="144.7578" x="771" y="339.5889">&#1050;&#1072;&#1090;&#1077;&#1075;&#1086;&#1088;&#1080;&#1103; : varchar</text><text fill="#000000" font-family="sans-serif" font-size="14" lengthAdjust="spacing" textLength="188.7061" x="771" y="355.8857">&#1044;&#1072;&#1090;&#1072;_&#1089;&#1086;&#1079;&#1076;&#1072;&#1085;&#1080;&#1103; : datetime</text></g><!--class Category--><g class="entity" data-entity="Category" data-source-line="44" data-uid="ent0006" id="entity_Category"><rect fill="#F1F1F1" height="74.8906" rx="2.5" ry="2.5" style="stroke:#181818;stroke-width:0.5;" width="201.957" x="765" y="496.5"/><text fill="#000000" font-family="sans-serif" font-size="14" lengthAdjust="spacing" textLength="77.6152" x="827.1709" y="514.4951">&#1050;&#1072;&#1090;&#1077;&#1075;&#1086;&#1088;&#1080;&#1103;</text><line style="stroke:#181818;stroke-width:0.5;" x1="766" x2="965.957" y1="522.7969" y2="522.7969"/><text fill="#000000" font-family="sans-serif" font-size="14" lengthAdjust="spacing" textLength="189.957" x="771" y="539.792">&#1048;&#1076;&#1077;&#1085;&#1090;&#1080;&#1092;&#1080;&#1082;&#1072;&#1090;&#1086;&#1088; : int &#171;PK&#187;</text><line style="stroke:#181818;stroke-width:1;" x1="766" x2="965.957" y1="547.0938" y2="547.0938"/><text fill="#000000" font-family="sans-serif" font-size="14" lengthAdjust="spacing" textLength="137.3887" x="771" y="564.0889">&#1053;&#1072;&#1079;&#1074;&#1072;&#1085;&#1080;&#1077; : varchar</text></g><!--class Application--><g class="entity" data-entity="Application" data-source-line="50" data-uid="ent0007" id="entity_Application"><rect fill="#F1F1F1" height="91.1875" rx="2.5" ry="2.5" style="stroke:#181818;stroke-width:0.5;" width="201.957" x="386" y="488.5"/><text fill="#000000" font-family="sans-serif" font-size="14" lengthAdjust="spacing" textLength="54.1338" x="459.9116" y="506.4951">&#1054;&#1090;&#1082;&#1083;&#1080;&#1082;</text><line style="stroke:#181818;stroke-width:0.5;" x1="387" x2="586.957" y1="514.7969" y2="514.7969"/><text fill="#000000" font-family="sans-serif" font-size="14" lengthAdjust="spacing" textLength="189.957" x="392" y="531.792">&#1048;&#1076;&#1077;&#1085;&#1090;&#1080;&#1092;&#1080;&#1082;&#1072;&#1090;&#1086;&#1088; : int &#171;PK&#187;</text><line style="stroke:#181818;stroke-width:1;" x1="387" x2="586.957" y1="539.0938" y2="539.0938"/><text fill="#000000" font-family="sans-serif" font-size="14" lengthAdjust="spacing" textLength="113.0664" x="392" y="556.0889">&#1044;&#1072;&#1090;&#1072; : datetime</text><text fill="#000000" font-family="sans-serif" font-size="14" lengthAdjust="spacing" textLength="104.2617" x="392" y="572.3857">&#1057;&#1090;&#1072;&#1090;&#1091;&#1089; : enum</text></g><!--class Location--><g class="entity" data-entity="Location" data-source-line="57" data-uid="ent0008" id="entity_Location"><rect fill="#F1F1F1" height="91.1875" rx="2.5" ry="2.5" style="stroke:#181818;stroke-width:0.5;" width="201.957" x="7" y="488.5"/><text fill="#000000" font-family="sans-serif" font-size="14" lengthAdjust="spacing" textLength="63.1777" x="76.3896" y="506.4951">&#1051;&#1086;&#1082;&#1072;&#1094;&#1080;&#1103;</text><line style="stroke:#181818;stroke-width:0.5;" x1="8" x2="207.957" y1="514.7969" y2="514.7969"/><text fill="#000000" font-family="sans-serif" font-size="14" lengthAdjust="spacing" textLength="189.957" x="13" y="531.792">&#1048;&#1076;&#1077;&#1085;&#1090;&#1080;&#1092;&#1080;&#1082;&#1072;&#1090;&#1086;&#1088; : int &#171;PK&#187;</text><line style="stroke:#181818;stroke-width:1;" x1="8" x2="207.957" y1="539.0938" y2="539.0938"/><text fill="#000000" font-family="sans-serif" font-size="14" lengthAdjust="spacing" textLength="111.3779" x="13" y="556.0889">&#1043;&#1086;&#1088;&#1086;&#1076; : varchar</text><text fill="#000000" font-family="sans-serif" font-size="14" lengthAdjust="spacing" textLength="120.2715" x="13" y="572.3857">&#1057;&#1090;&#1088;&#1072;&#1085;&#1072; : varchar</text></g><!--class Experience--><g class="entity" data-entity="Experience" data-source-line="64" data-uid="ent0009" id="entity_Experience"><rect fill="#F1F1F1" height="140.0781" rx="2.5" ry="2.5" style="stroke:#181818;stroke-width:0.5;" width="229.0547" x="1334.5" y="656"/><text fill="#000000" font-family="sans-serif" font-size="14" lengthAdjust="spacing" textLength="97.7061" x="1400.1743" y="673.9951">&#1054;&#1087;&#1099;&#1090; &#1088;&#1072;&#1073;&#1086;&#1090;&#1099;</text><line style="stroke:#181818;stroke-width:0.5;" x1="1335.5" x2="1562.5547" y1="682.2969" y2="682.2969"/><text fill="#000000" font-family="sans-serif" font-size="14" lengthAdjust="spacing" textLength="189.957" x="1340.5" y="699.292">&#1048;&#1076;&#1077;&#1085;&#1090;&#1080;&#1092;&#1080;&#1082;&#1072;&#1090;&#1086;&#1088; : int &#171;PK&#187;</text><line style="stroke:#181818;stroke-width:1;" x1="1335.5" x2="1562.5547" y1="706.5938" y2="706.5938"/><text fill="#000000" font-family="sans-serif" font-size="14" lengthAdjust="spacing" textLength="150.0283" x="1340.5" y="723.5889">&#1044;&#1086;&#1083;&#1078;&#1085;&#1086;&#1089;&#1090;&#1100; : varchar</text><text fill="#000000" font-family="sans-serif" font-size="14" lengthAdjust="spacing" textLength="140.5469" x="1340.5" y="739.8857">&#1044;&#1072;&#1090;&#1072;_&#1085;&#1072;&#1095;&#1072;&#1083;&#1072; : date</text><text fill="#000000" font-family="sans-serif" font-size="14" lengthAdjust="spacing" textLength="166.7012" x="1340.5" y="756.1826">&#1044;&#1072;&#1090;&#1072;_&#1086;&#1082;&#1086;&#1085;&#1095;&#1072;&#1085;&#1080;&#1103; : date</text><text fill="#000000" font-family="sans-serif" font-size="14" lengthAdjust="spacing" textLength="217.0547" x="1340.5" y="772.4795">&#1053;&#1072;&#1079;&#1074;&#1072;&#1085;&#1080;&#1077;_&#1082;&#1086;&#1084;&#1087;&#1072;&#1085;&#1080;&#1080; : varchar</text><text fill="#000000" font-family="sans-serif" font-size="14" lengthAdjust="spacing" textLength="113.9072" x="1340.5" y="788.7764">&#1054;&#1087;&#1080;&#1089;&#1072;&#1085;&#1080;&#1077; : text</text></g><!--class Education--><g class="entity" data-entity="Education" data-source-line="74" data-uid="ent0010" id="entity_Education"><rect fill="#F1F1F1" height="123.7813" rx="2.5" ry="2.5" style="stroke:#181818;stroke-width:0.5;" width="224.5703" x="1002.5" y="472"/><text fill="#000000" font-family="sans-serif" font-size="14" lengthAdjust="spacing" textLength="96.8242" x="1066.373" y="489.9951">&#1054;&#1073;&#1088;&#1072;&#1079;&#1086;&#1074;&#1072;&#1085;&#1080;&#1077;</text><line style="stroke:#181818;stroke-width:0.5;" x1="1003.5" x2="1226.0703" y1="498.2969" y2="498.2969"/><text fill="#000000" font-family="sans-serif" font-size="14" lengthAdjust="spacing" textLength="189.957" x="1008.5" y="515.292">&#1048;&#1076;&#1077;&#1085;&#1090;&#1080;&#1092;&#1080;&#1082;&#1072;&#1090;&#1086;&#1088; : int &#171;PK&#187;</text><line style="stroke:#181818;stroke-width:1;" x1="1003.5" x2="1226.0703" y1="522.5938" y2="522.5938"/><text fill="#000000" font-family="sans-serif" font-size="14" lengthAdjust="spacing" textLength="212.5703" x="1008.5" y="539.5889">&#1059;&#1095;&#1077;&#1073;&#1085;&#1086;&#1077;_&#1079;&#1072;&#1074;&#1077;&#1076;&#1077;&#1085;&#1080;&#1077; : varchar</text><text fill="#000000" font-family="sans-serif" font-size="14" lengthAdjust="spacing" textLength="146.6377" x="1008.5" y="555.8857">&#1060;&#1072;&#1082;&#1091;&#1083;&#1100;&#1090;&#1077;&#1090; : varchar</text><text fill="#000000" font-family="sans-serif" font-size="14" lengthAdjust="spacing" textLength="143.917" x="1008.5" y="572.1826">&#1043;&#1086;&#1076;_&#1086;&#1082;&#1086;&#1085;&#1095;&#1072;&#1085;&#1080;&#1103; : int</text><text fill="#000000" font-family="sans-serif" font-size="14" lengthAdjust="spacing" textLength="115.3291" x="1008.5" y="588.4795">&#1057;&#1090;&#1077;&#1087;&#1077;&#1085;&#1100; : enum</text></g><!--class Skill--><g class="entity" data-entity="Skill" data-source-line="83" data-uid="ent0011" id="entity_Skill"><rect fill="#F1F1F1" height="74.8906" rx="2.5" ry="2.5" style="stroke:#181818;stroke-width:0.5;" width="201.957" x="386" y="688.5"/><text fill="#000000" font-family="sans-serif" font-size="14" lengthAdjust="spacing" textLength="46.8672" x="463.5449" y="706.4951">&#1053;&#1072;&#1074;&#1099;&#1082;</text><line style="stroke:#181818;stroke-width:0.5;" x1="387" x2="586.957" y1="714.7969" y2="714.7969"/><text fill="#000000" font-family="sans-serif" font-size="14" lengthAdjust="spacing" textLength="189.957" x="392" y="731.792">&#1048;&#1076;&#1077;&#1085;&#1090;&#1080;&#1092;&#1080;&#1082;&#1072;&#1090;&#1086;&#1088; : int &#171;PK&#187;</text><line style="stroke:#181818;stroke-width:1;" x1="387" x2="586.957" y1="739.0938" y2="739.0938"/><text fill="#000000" font-family="sans-serif" font-size="14" lengthAdjust="spacing" textLength="137.3887" x="392" y="756.0889">&#1053;&#1072;&#1079;&#1074;&#1072;&#1085;&#1080;&#1077; : varchar</text></g><!--class Language--><g class="entity" data-entity="Language" data-source-line="89" data-uid="ent0012" id="entity_Language"><rect fill="#F1F1F1" height="74.8906" rx="2.5" ry="2.5" style="stroke:#181818;stroke-width:0.5;" width="201.957" x="895" y="688.5"/><text fill="#000000" font-family="sans-serif" font-size="14" lengthAdjust="spacing" textLength="36.6816" x="977.6377" y="706.4951">&#1071;&#1079;&#1099;&#1082;</text><line style="stroke:#181818;stroke-width:0.5;" x1="896" x2="1095.957" y1="714.7969" y2="714.7969"/><text fill="#000000" font-family="sans-serif" font-size="14" lengthAdjust="spacing" textLength="189.957" x="901" y="731.792">&#1048;&#1076;&#1077;&#1085;&#1090;&#1080;&#1092;&#1080;&#1082;&#1072;&#1090;&#1086;&#1088; : int &#171;PK&#187;</text><line style="stroke:#181818;stroke-width:1;" x1="896" x2="1095.957" y1="739.0938" y2="739.0938"/><text fill="#000000" font-family="sans-serif" font-size="14" lengthAdjust="spacing" textLength="137.3887" x="901" y="756.0889">&#1053;&#1072;&#1079;&#1074;&#1072;&#1085;&#1080;&#1077; : varchar</text></g><!--class LangSkill--><g class="entity" data-entity="LangSkill" data-source-line="95" data-uid="ent0013" id="entity_LangSkill"><rect fill="#F1F1F1" height="74.8906" rx="2.5" ry="2.5" style="stroke:#181818;stroke-width:0.5;" width="203.6113" x="894" y="880.5"/><text fill="#000000" font-family="sans-serif" font-size="14" lengthAdjust="spacing" textLength="131.2432" x="930.1841" y="898.4951">&#1042;&#1083;&#1072;&#1076;&#1077;&#1085;&#1080;&#1077; &#1103;&#1079;&#1099;&#1082;&#1086;&#1084;</text><line style="stroke:#181818;stroke-width:0.5;" x1="895" x2="1096.6113" y1="906.7969" y2="906.7969"/><text fill="#000000" font-family="sans-serif" font-size="14" lengthAdjust="spacing" textLength="189.957" x="900" y="923.792">&#1048;&#1076;&#1077;&#1085;&#1090;&#1080;&#1092;&#1080;&#1082;&#1072;&#1090;&#1086;&#1088; : int &#171;PK&#187;</text><line style="stroke:#181818;stroke-width:1;" x1="895" x2="1096.6113" y1="931.0938" y2="931.0938"/><text fill="#000000" font-family="sans-serif" font-size="14" lengthAdjust="spacing" textLength="191.6113" x="900" y="948.0889">&#1059;&#1088;&#1086;&#1074;&#1077;&#1085;&#1100;_&#1074;&#1083;&#1072;&#1076;&#1077;&#1085;&#1080;&#1103; : enum</text></g><!--link Employer to Vacancy--><g class="link" data-entity-1="Employer" data-entity-2="Vacancy" data-source-line="101" data-uid="lnk14" id="link_Employer_Vacancy"><path codeLine="101" d="M298,171.07 C298,190.19 298,184.87 298,204.69" fill="none" id="Employer-Vacancy" style="stroke:#181818;stroke-width:1;stroke-dasharray:7,7;"/><line style="stroke:#181818;stroke-width:1;" x1="294" x2="302" y1="167.07" y2="167.07"/><line style="stroke:#181818;stroke-width:1;" x1="294" x2="302" y1="170.07" y2="170.07"/><line style="stroke:#181818;stroke-width:1;" x1="298" x2="298" y1="171.07" y2="163.07"/><line style="stroke:#181818;stroke-width:1;" x1="298" x2="304" y1="214.69" y2="222.69"/><line style="stroke:#181818;stroke-width:1;" x1="298" x2="292" y1="214.69" y2="222.69"/><line style="stroke:#181818;stroke-width:1;" x1="298" x2="298" y1="214.69" y2="222.69"/><ellipse cx="298" cy="208.69" fill="none" rx="4" ry="4" style="stroke:#181818;stroke-width:1;"/></g><!--link Vacancy to Application--><g class="link" data-entity-1="Vacancy" data-entity-2="Application" data-source-line="103" data-uid="lnk15" id="link_Vacancy_Application"><path codeLine="103" d="M397.25,420.15 C397.25,446.54 397.25,448.04 397.25,470.21" fill="none" id="Vacancy-Application" style="stroke:#181818;stroke-width:1;stroke-dasharray:7,7;"/><line style="stroke:#181818;stroke-width:1;" x1="393.25" x2="401.25" y1="416.15" y2="416.15"/><line style="stroke:#181818;stroke-width:1;" x1="393.25" x2="401.25" y1="419.15" y2="419.15"/><line style="stroke:#181818;stroke-width:1;" x1="397.25" x2="397.25" y1="420.15" y2="412.15"/><line style="stroke:#181818;stroke-width:1;" x1="397.25" x2="403.25" y1="480.21" y2="488.21"/><line style="stroke:#181818;stroke-width:1;" x1="397.25" x2="391.25" y1="480.21" y2="488.21"/><line style="stroke:#181818;stroke-width:1;" x1="397.25" x2="397.25" y1="480.21" y2="488.21"/><ellipse cx="397.25" cy="474.21" fill="none" rx="4" ry="4" style="stroke:#181818;stroke-width:1;"/></g><!--link Vacancy to LangSkill--><g class="link" data-entity-1="Vacancy" data-entity-2="LangSkill" data-source-line="104" data-uid="lnk16" id="link_Vacancy_LangSkill"><path codeLine="104" d="M426.58,388 C540.34,388 683,388 683,388 C683,388 683,931 683,931 C683,931 794.61,931 885.95,931" fill="none" id="Vacancy-LangSkill" style="stroke:#181818;stroke-width:1;stroke-dasharray:7,7;"/><line style="stroke:#181818;stroke-width:1;" x1="416.58" x2="408.58" y1="388" y2="394"/><line style="stroke:#181818;stroke-width:1;" x1="416.58" x2="408.58" y1="388" y2="382"/><line style="stroke:#181818;stroke-width:1;" x1="416.58" x2="408.58" y1="388" y2="388"/><ellipse cx="422.58" cy="388" fill="none" rx="4" ry="4" style="stroke:#181818;stroke-width:1;"/><line style="stroke:#181818;stroke-width:1;" x1="885.95" x2="893.95" y1="931" y2="925"/><line style="stroke:#181818;stroke-width:1;" x1="885.95" x2="893.95" y1="931" y2="937"/><line style="stroke:#181818;stroke-width:1;" x1="885.95" x2="893.95" y1="931" y2="931"/><line style="stroke:#181818;stroke-width:1;" x1="883.95" x2="883.95" y1="927" y2="935"/></g><!--link Vacancy to Skill--><g class="link" data-entity-1="Vacancy" data-entity-2="Skill" data-source-line="105" data-uid="lnk17" id="link_Vacancy_Skill"><path codeLine="105" d="M297.5,430.24 C297.5,550.92 297.5,726 297.5,726 C297.5,726 322.71,726 367.87,726" fill="none" id="Vacancy-Skill" style="stroke:#181818;stroke-width:1;stroke-dasharray:7,7;"/><line style="stroke:#181818;stroke-width:1;" x1="297.5" x2="291.5" y1="420.24" y2="412.24"/><line style="stroke:#181818;stroke-width:1;" x1="297.5" x2="303.5" y1="420.24" y2="412.24"/><line style="stroke:#181818;stroke-width:1;" x1="297.5" x2="297.5" y1="420.24" y2="412.24"/><ellipse cx="297.5" cy="426.24" fill="none" rx="4" ry="4" style="stroke:#181818;stroke-width:1;"/><line style="stroke:#181818;stroke-width:1;" x1="377.87" x2="385.87" y1="726" y2="720"/><line style="stroke:#181818;stroke-width:1;" x1="377.87" x2="385.87" y1="726" y2="732"/><line style="stroke:#181818;stroke-width:1;" x1="377.87" x2="385.87" y1="726" y2="726"/><ellipse cx="371.87" cy="726" fill="none" rx="4" ry="4" style="stroke:#181818;stroke-width:1;"/></g><!--link Vacancy to Location--><g class="link" data-entity-1="Vacancy" data-entity-2="Location" data-source-line="106" data-uid="lnk18" id="link_Vacancy_Location"><path codeLine="106" d="M198.25,420.15 C198.25,446.54 198.25,458.04 198.25,480.21" fill="none" id="Vacancy-Location" style="stroke:#181818;stroke-width:1;stroke-dasharray:7,7;"/><line style="stroke:#181818;stroke-width:1;" x1="194.25" x2="202.25" y1="416.15" y2="416.15"/><line style="stroke:#181818;stroke-width:1;" x1="194.25" x2="202.25" y1="419.15" y2="419.15"/><line style="stroke:#181818;stroke-width:1;" x1="198.25" x2="198.25" y1="420.15" y2="412.15"/><line style="stroke:#181818;stroke-width:1;" x1="202.25" x2="194.25" y1="484.21" y2="484.21"/><line style="stroke:#181818;stroke-width:1;" x1="202.25" x2="194.25" y1="481.21" y2="481.21"/><line style="stroke:#181818;stroke-width:1;" x1="198.25" x2="198.25" y1="480.21" y2="488.21"/></g><!--link Language to LangSkill--><g class="link" data-entity-1="Language" data-entity-2="LangSkill" data-source-line="108" data-uid="lnk19" id="link_Language_LangSkill"><path codeLine="108" d="M996,781.93 C996,815.7 996,838.83 996,872.47" fill="none" id="Language-LangSkill" style="stroke:#181818;stroke-width:1;stroke-dasharray:7,7;"/><line style="stroke:#181818;stroke-width:1;" x1="996" x2="990" y1="771.93" y2="763.93"/><line style="stroke:#181818;stroke-width:1;" x1="996" x2="1002" y1="771.93" y2="763.93"/><line style="stroke:#181818;stroke-width:1;" x1="996" x2="996" y1="771.93" y2="763.93"/><ellipse cx="996" cy="777.93" fill="none" rx="4" ry="4" style="stroke:#181818;stroke-width:1;"/><line style="stroke:#181818;stroke-width:1;" x1="1000" x2="992" y1="876.47" y2="876.47"/><line style="stroke:#181818;stroke-width:1;" x1="1000" x2="992" y1="873.47" y2="873.47"/><line style="stroke:#181818;stroke-width:1;" x1="996" x2="996" y1="872.47" y2="880.47"/></g><!--link Resume to Category--><g class="link" data-entity-1="Resume" data-entity-2="Category" data-source-line="110" data-uid="lnk20" id="link_Resume_Category"><path codeLine="110" d="M866,371.15 C866,410.72 866,451.31 866,488.34" fill="none" id="Resume-Category" style="stroke:#181818;stroke-width:1;stroke-dasharray:7,7;"/><line style="stroke:#181818;stroke-width:1;" x1="866" x2="860" y1="371.15" y2="363.15"/><line style="stroke:#181818;stroke-width:1;" x1="866" x2="872" y1="371.15" y2="363.15"/><line style="stroke:#181818;stroke-width:1;" x1="866" x2="866" y1="371.15" y2="363.15"/><line style="stroke:#181818;stroke-width:1;" x1="862" x2="870" y1="373.15" y2="373.15"/><line style="stroke:#181818;stroke-width:1;" x1="870" x2="862" y1="492.34" y2="492.34"/><line style="stroke:#181818;stroke-width:1;" x1="870" x2="862" y1="489.34" y2="489.34"/><line style="stroke:#181818;stroke-width:1;" x1="866" x2="866" y1="488.34" y2="496.34"/></g><!--link Resume to Skill--><g class="link" data-entity-1="Resume" data-entity-2="Skill" data-source-line="111" data-uid="lnk21" id="link_Resume_Skill"><path codeLine="111" d="M746.73,295 C673.73,295 606,295 606,295 C606,295 606,726 606,726 C606,726 616.91,726 606.18,726" fill="none" id="Resume-Skill" style="stroke:#181818;stroke-width:1;stroke-dasharray:7,7;"/><line style="stroke:#181818;stroke-width:1;" x1="756.73" x2="764.73" y1="295" y2="289"/><line style="stroke:#181818;stroke-width:1;" x1="756.73" x2="764.73" y1="295" y2="301"/><line style="stroke:#181818;stroke-width:1;" x1="756.73" x2="764.73" y1="295" y2="295"/><ellipse cx="750.73" cy="295" fill="none" rx="4" ry="4" style="stroke:#181818;stroke-width:1;"/><line style="stroke:#181818;stroke-width:1;" x1="596.18" x2="588.18" y1="726" y2="732"/><line style="stroke:#181818;stroke-width:1;" x1="596.18" x2="588.18" y1="726" y2="720"/><line style="stroke:#181818;stroke-width:1;" x1="596.18" x2="588.18" y1="726" y2="726"/><ellipse cx="602.18" cy="726" fill="none" rx="4" ry="4" style="stroke:#181818;stroke-width:1;"/></g><!--link Resume to Application--><g class="link" data-entity-1="Resume" data-entity-2="Application" data-source-line="112" data-uid="lnk22" id="link_Resume_Application"><path codeLine="112" d="M815.5,371.15 C815.5,423.15 815.5,493 815.5,493 C815.5,493 702.76,493 606.24,493" fill="none" id="Resume-Application" style="stroke:#181818;stroke-width:1;stroke-dasharray:7,7;"/><line style="stroke:#181818;stroke-width:1;" x1="811.5" x2="819.5" y1="367.15" y2="367.15"/><line style="stroke:#181818;stroke-width:1;" x1="811.5" x2="819.5" y1="370.15" y2="370.15"/><line style="stroke:#181818;stroke-width:1;" x1="815.5" x2="815.5" y1="371.15" y2="363.15"/><line style="stroke:#181818;stroke-width:1;" x1="596.24" x2="588.24" y1="493" y2="499"/><line style="stroke:#181818;stroke-width:1;" x1="596.24" x2="588.24" y1="493" y2="487"/><line style="stroke:#181818;stroke-width:1;" x1="596.24" x2="588.24" y1="493" y2="493"/><ellipse cx="602.24" cy="493" fill="none" rx="4" ry="4" style="stroke:#181818;stroke-width:1;"/></g><!--link Resume to Experience--><g class="link" data-entity-1="Resume" data-entity-2="Experience" data-source-line="113" data-uid="lnk23" id="link_Resume_Experience"><path codeLine="113" d="M975.22,318 C1142.17,318 1449,318 1449,318 C1449,318 1449,521.21 1449,637.86" fill="none" id="Resume-Experience" style="stroke:#181818;stroke-width:1;stroke-dasharray:7,7;"/><line style="stroke:#181818;stroke-width:1;" x1="971.22" x2="971.22" y1="322" y2="314"/><line style="stroke:#181818;stroke-width:1;" x1="974.22" x2="974.22" y1="322" y2="314"/><line style="stroke:#181818;stroke-width:1;" x1="975.22" x2="967.22" y1="318" y2="318"/><line style="stroke:#181818;stroke-width:1;" x1="1449" x2="1455" y1="647.86" y2="655.86"/><line style="stroke:#181818;stroke-width:1;" x1="1449" x2="1443" y1="647.86" y2="655.86"/><line style="stroke:#181818;stroke-width:1;" x1="1449" x2="1449" y1="647.86" y2="655.86"/><ellipse cx="1449" cy="641.86" fill="none" rx="4" ry="4" style="stroke:#181818;stroke-width:1;"/></g><!--link Resume to Education--><g class="link" data-entity-1="Resume" data-entity-2="Education" data-source-line="114" data-uid="lnk24" id="link_Resume_Education"><path codeLine="114" d="M916.5,371.04 C916.5,419.42 916.5,481 916.5,481 C916.5,481 939.61,481 984.41,481" fill="none" id="Resume-Education" style="stroke:#181818;stroke-width:1;stroke-dasharray:7,7;"/><line style="stroke:#181818;stroke-width:1;" x1="912.5" x2="920.5" y1="367.04" y2="367.04"/><line style="stroke:#181818;stroke-width:1;" x1="912.5" x2="920.5" y1="370.04" y2="370.04"/><line style="stroke:#181818;stroke-width:1;" x1="916.5" x2="916.5" y1="371.04" y2="363.04"/><line style="stroke:#181818;stroke-width:1;" x1="994.41" x2="1002.41" y1="481" y2="475"/><line style="stroke:#181818;stroke-width:1;" x1="994.41" x2="1002.41" y1="481" y2="487"/><line style="stroke:#181818;stroke-width:1;" x1="994.41" x2="1002.41" y1="481" y2="481"/><ellipse cx="988.41" cy="481" fill="none" rx="4" ry="4" style="stroke:#181818;stroke-width:1;"/></g><!--link Resume to LangSkill--><g class="link" data-entity-1="Resume" data-entity-2="LangSkill" data-source-line="115" data-uid="lnk25" id="link_Resume_LangSkill"><path codeLine="115" d="M756.69,341 C733.75,341 724,341 724,341 C724,341 724,906 724,906 C724,906 798.76,906 875.94,906" fill="none" id="Resume-LangSkill" style="stroke:#181818;stroke-width:1;stroke-dasharray:7,7;"/><line style="stroke:#181818;stroke-width:1;" x1="760.69" x2="760.69" y1="337" y2="345"/><line style="stroke:#181818;stroke-width:1;" x1="757.69" x2="757.69" y1="337" y2="345"/><line style="stroke:#181818;stroke-width:1;" x1="756.69" x2="764.69" y1="341" y2="341"/><line style="stroke:#181818;stroke-width:1;" x1="885.94" x2="893.94" y1="906" y2="900"/><line style="stroke:#181818;stroke-width:1;" x1="885.94" x2="893.94" y1="906" y2="912"/><line style="stroke:#181818;stroke-width:1;" x1="885.94" x2="893.94" y1="906" y2="906"/><ellipse cx="879.94" cy="906" fill="none" rx="4" ry="4" style="stroke:#181818;stroke-width:1;"/></g><!--link Resume to Seeker--><g class="link" data-entity-1="Resume" data-entity-2="Seeker" data-source-line="116" data-uid="lnk26" id="link_Resume_Seeker"><path codeLine="116" d="M746.77,318 C680.46,318 624,318 624,318 C624,318 624,694.28 624,847.77" fill="none" id="Resume-Seeker" style="stroke:#181818;stroke-width:1;stroke-dasharray:7,7;"/><line style="stroke:#181818;stroke-width:1;" x1="756.77" x2="764.77" y1="318" y2="312"/><line style="stroke:#181818;stroke-width:1;" x1="756.77" x2="764.77" y1="318" y2="324"/><line style="stroke:#181818;stroke-width:1;" x1="756.77" x2="764.77" y1="318" y2="318"/><ellipse cx="750.77" cy="318" fill="none" rx="4" ry="4" style="stroke:#181818;stroke-width:1;"/><line style="stroke:#181818;stroke-width:1;" x1="628" x2="620" y1="851.77" y2="851.77"/><line style="stroke:#181818;stroke-width:1;" x1="628" x2="620" y1="848.77" y2="848.77"/><line style="stroke:#181818;stroke-width:1;" x1="624" x2="624" y1="847.77" y2="855.77"/></g><!--link Location to Seeker--><g class="link" data-entity-1="Location" data-entity-2="Seeker" data-source-line="118" data-uid="lnk27" id="link_Location_Seeker"><path codeLine="118" d="M108,587.68 C108,689.66 108,919 108,919 C108,919 290.26,919 417.76,919" fill="none" id="Location-Seeker" style="stroke:#181818;stroke-width:1;stroke-dasharray:7,7;"/><line style="stroke:#181818;stroke-width:1;" x1="104" x2="112" y1="583.68" y2="583.68"/><line style="stroke:#181818;stroke-width:1;" x1="104" x2="112" y1="586.68" y2="586.68"/><line style="stroke:#181818;stroke-width:1;" x1="108" x2="108" y1="587.68" y2="579.68"/><line style="stroke:#181818;stroke-width:1;" x1="427.76" x2="435.76" y1="919" y2="913"/><line style="stroke:#181818;stroke-width:1;" x1="427.76" x2="435.76" y1="919" y2="925"/><line style="stroke:#181818;stroke-width:1;" x1="427.76" x2="435.76" y1="919" y2="919"/><ellipse cx="421.76" cy="919" fill="none" rx="4" ry="4" style="stroke:#181818;stroke-width:1;"/></g><!--SRC=[jLPTInj157tVNx7uhZ-WY52AJ_MXLEZhigo33kv7M3V5O08cIbjGccA5IakbgPO-DgRPkaqq_eMPVzHpPpyo6oEqiVfWmhrtxZdtt3jtii7NcEdmq76PiRN9_OeTsfxfSfz5jGepWp3Q20o3-H6FQkQS-2AwuaACP4kCH5zqyHcBeJoSC-qjSzchk46DXUQEOPhY1FvON2CYaViY4GCLFPAxvYEJ-v6vkFZiwT8I8kVdAVmp4b-A7lvV8pX6q4ixT3Ria9oduWPPcfepOjiHUTw9ljmLiMoM3tHaKnw88O5QEDErrE7VibKAM_PixfOFVaEkDnRWkaWxGcbjpT_GXEZ0IvG64oAiChOvemGduge4z-y4bOuZSOMONIkbXQ_xC463EmevWZ03KXR59BAjYdXXExRlr6QgueDYTWDa2YFKDUPmptR9-Ht6fZhTeixqqAGi4d7ChtfPj-M1R5b8amsRF2WNUKxmABDxEqfBSiV87AV4eA7Smy5XLj8hV2R4revOn3r6eLzXkx4mboHFM_4czec6Csq06wKB4ujB-PPwegHzphQg7fj9sO_PgFrKrIUJdS_hGj4ZKEwdfQkeeYQTsQrqYjyJXAu7OUq_Ns8T-1Gf1gdk2l9nfU9onuvuuC-4UZoUDArt7R9XAFPKQrIxT1AV85BMzgpobU0U7Duh4R4J9_TGIytdtTSl6tPJ7-DqcsvNMCYPxx0PHS5o4B-0h6PM7auV5c8cNmDwM0XOSfD8s1ugH9-cATssLEWLhIPbIFvgXvUrk50oN29FaJOLOwrwZ-QSWNuCSQ45qQJht8D1vRZzs9pJGiHgm4Qd-p7nPb2dHN-wC83E9oz6jSJmSDhiaN2q-jBnNztahlk0r-q7za-EjMBxwrLxdJqWt16DagQjRAVuD1i5XzbhFbFNh9UAYnT4HrDDoDKkVetKwmiBmKx-fXb6_hXbTctx5Av6i82_-iwOQyc5KsKZfQhNYmrY68NE54wU8e-HFG2Dz4Y-RWip8HVvC-CKffg7NEDbCN6ck3WJzZ4X3HXyqfylA21VXZb2wlW3]--></g></svg>