<svg xmlns="http://www.w3.org/2000/svg" xmlns:xlink="http://www.w3.org/1999/xlink" contentStyleType="text/css" data-diagram-type="CLASS" height="217.8px" preserveAspectRatio="none" style="width:1759px;height:217px;background:#FFFFFF;" version="1.1" viewBox="0 0 1759 217" width="1759.2px" zoomAndPan="magnify"><defs/><g><!--cluster api--><g class="cluster" data-entity="api" data-source-line="6" data-uid="ent0002" id="cluster_api"><rect fill="none" height="108.864" rx="1.5" ry="1.5" style="stroke:#000000;stroke-width:0.9;" width="478.8" x="4.2" y="4.2"/><text fill="#000000" font-family="sans-serif" font-size="8.4" font-weight="bold" lengthAdjust="spacing" textLength="13.2357" x="236.9821" y="13.5211">api</text></g><!--cluster business-logic--><g class="cluster" data-entity="business-logic" data-source-line="27" data-uid="ent0006" id="cluster_business-logic"><rect fill="none" height="202.716" rx="1.5" ry="1.5" style="stroke:#000000;stroke-width:0.9;" width="813" x="497.4" y="11.508"/><text fill="#000000" font-family="sans-serif" font-size="8.4" font-weight="bold" lengthAdjust="spacing" textLength="64.7063" x="871.5469" y="20.8291">business-logic</text></g><!--cluster data-access--><g class="cluster" data-entity="data-access" data-source-line="70" data-uid="ent0015" id="cluster_data-access"><rect fill="none" height="59.4" rx="1.5" ry="1.5" style="stroke:#000000;stroke-width:0.9;" width="430.8" x="1324.8" y="28.932"/><text fill="#000000" font-family="sans-serif" font-size="8.4" font-weight="bold" lengthAdjust="spacing" textLength="52.5123" x="1513.9438" y="38.2531">data-access</text></g><!--class AuthController--><g class="entity" data-entity="AuthController" data-source-line="7" data-uid="ent0003" id="entity_AuthController"><rect fill="#F5F5F5" height="78.2648" rx="1.5" ry="1.5" style="stroke:#181818;stroke-width:0.3;" width="258.7078" x="14.046" y="25.2"/><ellipse cx="110.7198" cy="34.8" fill="#ADD1B2" rx="6.6" ry="6.6" style="stroke:#181818;stroke-width:0.6;"/><path d="M112.5037,38.1858 Q112.1551,38.3651 111.7716,38.4548 Q111.3881,38.5444 110.9648,38.5444 Q109.4606,38.5444 108.6688,37.5533 Q107.8769,36.5622 107.8769,34.6896 Q107.8769,32.8119 108.6688,31.8208 Q109.4606,30.8297 110.9648,30.8297 Q111.3881,30.8297 111.7766,30.9193 Q112.165,31.009 112.5037,31.1883 L112.5037,32.8219 Q112.1252,32.4732 111.7691,32.3114 Q111.413,32.1495 111.0345,32.1495 Q110.2276,32.1495 109.8168,32.7895 Q109.4059,33.4295 109.4059,34.6896 Q109.4059,35.9446 109.8168,36.5846 Q110.2276,37.2246 111.0345,37.2246 Q111.413,37.2246 111.7691,37.0627 Q112.1252,36.9009 112.5037,36.5522 Z " fill="#000000"/><text fill="#000000" font-family="sans-serif" font-size="8.4" lengthAdjust="spacing" textLength="60.2602" x="123.0198" y="37.9746">AuthController</text><line style="stroke:#181818;stroke-width:0.3;" x1="14.646" x2="272.1538" y1="44.4" y2="44.4"/><rect fill="none" height="3.6" style="stroke:#C82930;stroke-width:0.6;" width="3.6" x="18.846" y="50.8465"/><text fill="#000000" font-family="sans-serif" font-size="8.4" lengthAdjust="spacing" textLength="116.7223" x="26.046" y="54.9211">AuthService employerService</text><rect fill="none" height="3.6" style="stroke:#C82930;stroke-width:0.6;" width="3.6" x="18.846" y="60.7395"/><text fill="#000000" font-family="sans-serif" font-size="8.4" lengthAdjust="spacing" textLength="105.4881" x="26.046" y="64.8141">AuthService seekerService</text><line style="stroke:#181818;stroke-width:0.3;" x1="14.646" x2="272.1538" y1="68.9859" y2="68.9859"/><ellipse cx="20.646" cy="77.2324" fill="#84BE84" rx="1.8" ry="1.8" style="stroke:#038048;stroke-width:0.6;"/><text fill="#000000" font-family="sans-serif" font-size="8.4" lengthAdjust="spacing" textLength="221.3777" x="26.046" y="79.507">registerSeeker(req: SeekerRegisterReq): AuthResponse</text><ellipse cx="20.646" cy="87.1254" fill="#84BE84" rx="1.8" ry="1.8" style="stroke:#038048;stroke-width:0.6;"/><text fill="#000000" font-family="sans-serif" font-size="8.4" lengthAdjust="spacing" textLength="243.1078" x="26.046" y="89.4">registerEmployer(req: EmployerRegisterReq): AuthResponse</text><ellipse cx="20.646" cy="97.0184" fill="#84BE84" rx="1.8" ry="1.8" style="stroke:#038048;stroke-width:0.6;"/><text fill="#000000" font-family="sans-serif" font-size="8.4" lengthAdjust="spacing" textLength="163.3365" x="26.046" y="99.293">login(req: LoginRequest): AuthResponse</text></g><!--class LoginRequest--><g class="entity" data-entity="LoginRequest" data-source-line="15" data-uid="ent0004" id="entity_LoginRequest"><rect fill="#D1EAF5" height="63.6516" rx="1.5" ry="1.5" style="stroke:#181818;stroke-width:0.3;" width="81.0855" x="293.658" y="32.508"/><ellipse cx="305.7058" cy="44.6943" fill="#ADD1B2" rx="6.6" ry="6.6" style="stroke:#181818;stroke-width:0.6;"/><path d="M307.4897,48.0802 Q307.141,48.2595 306.7575,48.3491 Q306.374,48.4388 305.9507,48.4388 Q304.4466,48.4388 303.6547,47.4476 Q302.8628,46.4565 302.8628,44.5839 Q302.8628,42.7062 303.6547,41.7151 Q304.4466,40.724 305.9507,40.724 Q306.374,40.724 306.7625,40.8137 Q307.151,40.9033 307.4897,41.0826 L307.4897,42.7162 Q307.1112,42.3676 306.7551,42.2057 Q306.3989,42.0438 306.0204,42.0438 Q305.2136,42.0438 304.8027,42.6838 Q304.3918,43.3238 304.3918,44.5839 Q304.3918,45.839 304.8027,46.4789 Q305.2136,47.1189 306.0204,47.1189 Q306.3989,47.1189 306.7551,46.9571 Q307.1112,46.7952 307.4897,46.4466 Z " fill="#000000"/><text fill="#000000" font-family="sans-serif" font-size="7.2" font-style="italic" lengthAdjust="spacing" textLength="23.0836" x="330.7976" y="42.4689">&#171;DTO&#187;</text><text fill="#000000" font-family="sans-serif" font-size="8.4" lengthAdjust="spacing" textLength="55.1127" x="314.7831" y="52.1088">LoginRequest</text><line style="stroke:#181818;stroke-width:0.3;" x1="294.258" x2="374.1435" y1="56.8807" y2="56.8807"/><ellipse cx="300.258" cy="65.1271" fill="none" rx="1.8" ry="1.8" style="stroke:#038048;stroke-width:0.6;"/><text fill="#000000" font-family="sans-serif" font-size="8.4" lengthAdjust="spacing" textLength="48.6568" x="305.658" y="67.4018">String email</text><ellipse cx="300.258" cy="75.0201" fill="none" rx="1.8" ry="1.8" style="stroke:#038048;stroke-width:0.6;"/><text fill="#000000" font-family="sans-serif" font-size="8.4" lengthAdjust="spacing" textLength="65.4855" x="305.658" y="77.2947">String password</text><ellipse cx="300.258" cy="84.9131" fill="none" rx="1.8" ry="1.8" style="stroke:#038048;stroke-width:0.6;"/><text fill="#000000" font-family="sans-serif" font-size="8.4" lengthAdjust="spacing" textLength="42.3445" x="305.658" y="87.1877">String role</text><line style="stroke:#181818;stroke-width:0.3;" x1="294.258" x2="374.1435" y1="91.3596" y2="91.3596"/></g><!--class AuthResponse--><g class="entity" data-entity="AuthResponse" data-source-line="21" data-uid="ent0005" id="entity_AuthResponse"><rect fill="#D1EAF5" height="53.7586" rx="1.5" ry="1.5" style="stroke:#181818;stroke-width:0.3;" width="77.4586" x="395.67" y="37.452"/><ellipse cx="404.67" cy="49.6383" fill="#ADD1B2" rx="6.6" ry="6.6" style="stroke:#181818;stroke-width:0.6;"/><path d="M406.4539,53.0242 Q406.1053,53.2035 405.7218,53.2931 Q405.3383,53.3828 404.9149,53.3828 Q403.4108,53.3828 402.6189,52.3916 Q401.827,51.4005 401.827,49.5279 Q401.827,47.6502 402.6189,46.6591 Q403.4108,45.668 404.9149,45.668 Q405.3383,45.668 405.7267,45.7577 Q406.1152,45.8473 406.4539,46.0266 L406.4539,47.6602 Q406.0754,47.3116 405.7193,47.1497 Q405.3632,46.9878 404.9846,46.9878 Q404.1778,46.9878 403.7669,47.6278 Q403.356,48.2678 403.356,49.5279 Q403.356,50.783 403.7669,51.4229 Q404.1778,52.0629 404.9846,52.0629 Q405.3632,52.0629 405.7193,51.9011 Q406.0754,51.7392 406.4539,51.3906 Z " fill="#000000"/><text fill="#000000" font-family="sans-serif" font-size="7.2" font-style="italic" lengthAdjust="spacing" textLength="23.0836" x="430.6575" y="47.4129">&#171;DTO&#187;</text><text fill="#000000" font-family="sans-serif" font-size="8.4" lengthAdjust="spacing" textLength="58.2586" x="413.07" y="57.0528">AuthResponse</text><line style="stroke:#181818;stroke-width:0.3;" x1="396.27" x2="472.5286" y1="61.8247" y2="61.8247"/><ellipse cx="402.27" cy="70.0711" fill="none" rx="1.8" ry="1.8" style="stroke:#038048;stroke-width:0.6;"/><text fill="#000000" font-family="sans-serif" font-size="8.4" lengthAdjust="spacing" textLength="49.7438" x="407.67" y="72.3458">String token</text><ellipse cx="402.27" cy="79.9641" fill="none" rx="1.8" ry="1.8" style="stroke:#038048;stroke-width:0.6;"/><text fill="#000000" font-family="sans-serif" font-size="8.4" lengthAdjust="spacing" textLength="42.3445" x="407.67" y="82.2387">String role</text><line style="stroke:#181818;stroke-width:0.3;" x1="396.27" x2="472.5286" y1="86.4106" y2="86.4106"/></g><!--class AuthService--><g class="entity" data-entity="AuthService" data-source-line="28" data-uid="ent0007" id="entity_AuthService"><rect fill="#E1BEE7" height="53.7586" rx="1.5" ry="1.5" style="stroke:#181818;stroke-width:0.3;" width="175.2451" x="506.976" y="150.864"/><ellipse cx="568.1672" cy="163.0503" fill="#B4A7E5" rx="6.6" ry="6.6" style="stroke:#181818;stroke-width:0.6;"/><path d="M565.7239,160.5094 L565.7239,159.2145 L570.1515,159.2145 L570.1515,160.5094 L568.6723,160.5094 L568.6723,165.3554 L570.1515,165.3554 L570.1515,166.6503 L565.7239,166.6503 L565.7239,165.3554 L567.2031,165.3554 L567.2031,160.5094 Z " fill="#000000"/><text fill="#000000" font-family="sans-serif" font-size="7.2" font-style="italic" lengthAdjust="spacing" textLength="38.0602" x="585.3185" y="160.8249">&#171;Interface&#187;</text><text fill="#000000" font-family="sans-serif" font-size="8.4" font-style="italic" lengthAdjust="spacing" textLength="47.7627" x="580.4672" y="170.4648">AuthService</text><line style="stroke:#181818;stroke-width:0.3;" x1="507.576" x2="681.6211" y1="175.2367" y2="175.2367"/><line style="stroke:#181818;stroke-width:0.3;" x1="507.576" x2="681.6211" y1="180.0367" y2="180.0367"/><ellipse cx="513.576" cy="188.2831" fill="#84BE84" rx="1.8" ry="1.8" style="stroke:#038048;stroke-width:0.6;"/><text fill="#000000" font-family="sans-serif" font-size="8.4" lengthAdjust="spacing" textLength="159.6451" x="518.976" y="190.5578">login(email: String, pass: String): String</text><ellipse cx="513.576" cy="198.1761" fill="#84BE84" rx="1.8" ry="1.8" style="stroke:#038048;stroke-width:0.6;"/><text fill="#000000" font-family="sans-serif" font-size="8.4" lengthAdjust="spacing" textLength="108.8391" x="518.976" y="200.4507">register(data: Object): void</text></g><!--class EmployerService--><g class="entity" data-entity="EmployerService" data-source-line="33" data-uid="ent0008" id="entity_EmployerService"><rect fill="#F5F5F5" height="48.5859" rx="1.5" ry="1.5" style="stroke:#181818;stroke-width:0.3;" width="157.6494" x="720.978" y="40.038"/><ellipse cx="764.1654" cy="49.638" fill="#ADD1B2" rx="6.6" ry="6.6" style="stroke:#181818;stroke-width:0.6;"/><path d="M765.9493,53.0238 Q765.6007,53.2031 765.2172,53.2928 Q764.8337,53.3824 764.4103,53.3824 Q762.9062,53.3824 762.1143,52.3913 Q761.3224,51.4002 761.3224,49.5276 Q761.3224,47.6499 762.1143,46.6588 Q762.9062,45.6677 764.4103,45.6677 Q764.8337,45.6677 765.2221,45.7573 Q765.6106,45.847 765.9493,46.0263 L765.9493,47.6599 Q765.5708,47.3112 765.2147,47.1494 Q764.8586,46.9875 764.4801,46.9875 Q763.6732,46.9875 763.2623,47.6275 Q762.8514,48.2675 762.8514,49.5276 Q762.8514,50.7826 763.2623,51.4226 Q763.6732,52.0626 764.4801,52.0626 Q764.8586,52.0626 765.2147,51.9007 Q765.5708,51.7389 765.9493,51.3902 Z " fill="#000000"/><text fill="#000000" font-family="sans-serif" font-size="8.4" lengthAdjust="spacing" textLength="66.1746" x="776.4654" y="52.8126">EmployerService</text><line style="stroke:#181818;stroke-width:0.3;" x1="721.578" x2="878.0274" y1="59.238" y2="59.238"/><rect fill="none" height="3.6" style="stroke:#C82930;stroke-width:0.6;" width="3.6" x="725.778" y="65.6845"/><text fill="#000000" font-family="sans-serif" font-size="8.4" lengthAdjust="spacing" textLength="142.0494" x="732.978" y="69.7591">EmployerRepository employerRepo</text><rect fill="none" height="3.6" style="stroke:#C82930;stroke-width:0.6;" width="3.6" x="725.778" y="75.5775"/><text fill="#000000" font-family="sans-serif" font-size="8.4" lengthAdjust="spacing" textLength="114.7494" x="732.978" y="79.6521">TokenRepository tokenRepo</text><line style="stroke:#181818;stroke-width:0.3;" x1="721.578" x2="878.0274" y1="83.8239" y2="83.8239"/></g><!--class SeekerService--><g class="entity" data-entity="SeekerService" data-source-line="38" data-uid="ent0009" id="entity_SeekerService"><rect fill="#F5F5F5" height="48.5859" rx="1.5" ry="1.5" style="stroke:#181818;stroke-width:0.3;" width="135.5502" x="921.024" y="40.038"/><ellipse cx="958.5943" cy="49.638" fill="#ADD1B2" rx="6.6" ry="6.6" style="stroke:#181818;stroke-width:0.6;"/><path d="M960.3782,53.0238 Q960.0296,53.2031 959.6461,53.2928 Q959.2626,53.3824 958.8392,53.3824 Q957.3351,53.3824 956.5432,52.3913 Q955.7513,51.4002 955.7513,49.5276 Q955.7513,47.6499 956.5432,46.6588 Q957.3351,45.6677 958.8392,45.6677 Q959.2626,45.6677 959.6511,45.7573 Q960.0395,45.847 960.3782,46.0263 L960.3782,47.6599 Q959.9997,47.3112 959.6436,47.1494 Q959.2875,46.9875 958.909,46.9875 Q958.1021,46.9875 957.6912,47.6275 Q957.2803,48.2675 957.2803,49.5276 Q957.2803,50.7826 957.6912,51.4226 Q958.1021,52.0626 958.909,52.0626 Q959.2875,52.0626 959.6436,51.9007 Q959.9997,51.7389 960.3782,51.3902 Z " fill="#000000"/><text fill="#000000" font-family="sans-serif" font-size="8.4" lengthAdjust="spacing" textLength="55.3096" x="970.8943" y="52.8126">SeekerService</text><line style="stroke:#181818;stroke-width:0.3;" x1="921.624" x2="1055.9742" y1="59.238" y2="59.238"/><rect fill="none" height="3.6" style="stroke:#C82930;stroke-width:0.6;" width="3.6" x="925.824" y="65.6845"/><text fill="#000000" font-family="sans-serif" font-size="8.4" lengthAdjust="spacing" textLength="119.9502" x="933.024" y="69.7591">SeekerRepository seekerRepo</text><rect fill="none" height="3.6" style="stroke:#C82930;stroke-width:0.6;" width="3.6" x="925.824" y="75.5775"/><text fill="#000000" font-family="sans-serif" font-size="8.4" lengthAdjust="spacing" textLength="114.7494" x="933.024" y="79.6521">TokenRepository tokenRepo</text><line style="stroke:#181818;stroke-width:0.3;" x1="921.624" x2="1055.9742" y1="83.8239" y2="83.8239"/></g><!--class Employer--><g class="entity" data-entity="Employer" data-source-line="43" data-uid="ent0010" id="entity_Employer"><rect fill="#FFF9C4" height="63.6516" rx="1.5" ry="1.5" style="stroke:#181818;stroke-width:0.3;" width="101.3924" x="1077.306" y="32.508"/><ellipse cx="1106.5645" cy="44.6943" fill="#ADD1B2" rx="6.6" ry="6.6" style="stroke:#181818;stroke-width:0.6;"/><path d="M1108.3484,48.0802 Q1107.9998,48.2595 1107.6163,48.3491 Q1107.2328,48.4388 1106.8094,48.4388 Q1105.3053,48.4388 1104.5134,47.4476 Q1103.7215,46.4565 1103.7215,44.5839 Q1103.7215,42.7062 1104.5134,41.7151 Q1105.3053,40.724 1106.8094,40.724 Q1107.2328,40.724 1107.6212,40.8137 Q1108.0097,40.9033 1108.3484,41.0826 L1108.3484,42.7162 Q1107.9699,42.3676 1107.6138,42.2057 Q1107.2577,42.0438 1106.8791,42.0438 Q1106.0723,42.0438 1105.6614,42.6838 Q1105.2505,43.3238 1105.2505,44.5839 Q1105.2505,45.839 1105.6614,46.4789 Q1106.0723,47.1189 1106.8791,47.1189 Q1107.2577,47.1189 1107.6138,46.9571 Q1107.9699,46.7952 1108.3484,46.4466 Z " fill="#000000"/><text fill="#000000" font-family="sans-serif" font-size="7.2" font-style="italic" lengthAdjust="spacing" textLength="34.6078" x="1120.4483" y="42.4689">&#171;Domain&#187;</text><text fill="#000000" font-family="sans-serif" font-size="8.4" lengthAdjust="spacing" textLength="37.7754" x="1118.8645" y="52.1088">Employer</text><line style="stroke:#181818;stroke-width:0.3;" x1="1077.906" x2="1178.0984" y1="56.8807" y2="56.8807"/><ellipse cx="1083.906" cy="65.1271" fill="none" rx="1.8" ry="1.8" style="stroke:#038048;stroke-width:0.6;"/><text fill="#000000" font-family="sans-serif" font-size="8.4" lengthAdjust="spacing" textLength="30.4623" x="1089.306" y="67.4018">Long id</text><ellipse cx="1083.906" cy="75.0201" fill="none" rx="1.8" ry="1.8" style="stroke:#038048;stroke-width:0.6;"/><text fill="#000000" font-family="sans-serif" font-size="8.4" lengthAdjust="spacing" textLength="48.6568" x="1089.306" y="77.2947">String email</text><ellipse cx="1083.906" cy="84.9131" fill="none" rx="1.8" ry="1.8" style="stroke:#038048;stroke-width:0.6;"/><text fill="#000000" font-family="sans-serif" font-size="8.4" lengthAdjust="spacing" textLength="85.7924" x="1089.306" y="87.1877">String passwordHash</text><line style="stroke:#181818;stroke-width:0.3;" x1="1077.906" x2="1178.0984" y1="91.3596" y2="91.3596"/></g><!--class Seeker--><g class="entity" data-entity="Seeker" data-source-line="49" data-uid="ent0011" id="entity_Seeker"><rect fill="#FFF9C4" height="63.6516" rx="1.5" ry="1.5" style="stroke:#181818;stroke-width:0.3;" width="101.3924" x="1199.706" y="32.508"/><ellipse cx="1231.7483" cy="44.6943" fill="#ADD1B2" rx="6.6" ry="6.6" style="stroke:#181818;stroke-width:0.6;"/><path d="M1233.5322,48.0802 Q1233.1835,48.2595 1232.8,48.3491 Q1232.4165,48.4388 1231.9932,48.4388 Q1230.4891,48.4388 1229.6972,47.4476 Q1228.9053,46.4565 1228.9053,44.5839 Q1228.9053,42.7062 1229.6972,41.7151 Q1230.4891,40.724 1231.9932,40.724 Q1232.4165,40.724 1232.805,40.8137 Q1233.1935,40.9033 1233.5322,41.0826 L1233.5322,42.7162 Q1233.1537,42.3676 1232.7976,42.2057 Q1232.4414,42.0438 1232.0629,42.0438 Q1231.2561,42.0438 1230.8452,42.6838 Q1230.4343,43.3238 1230.4343,44.5839 Q1230.4343,45.839 1230.8452,46.4789 Q1231.2561,47.1189 1232.0629,47.1189 Q1232.4414,47.1189 1232.7976,46.9571 Q1233.1537,46.7952 1233.5322,46.4466 Z " fill="#000000"/><text fill="#000000" font-family="sans-serif" font-size="7.2" font-style="italic" lengthAdjust="spacing" textLength="34.6078" x="1242.8483" y="42.4689">&#171;Domain&#187;</text><text fill="#000000" font-family="sans-serif" font-size="8.4" lengthAdjust="spacing" textLength="26.9104" x="1246.697" y="52.1088">Seeker</text><line style="stroke:#181818;stroke-width:0.3;" x1="1200.306" x2="1300.4984" y1="56.8807" y2="56.8807"/><ellipse cx="1206.306" cy="65.1271" fill="none" rx="1.8" ry="1.8" style="stroke:#038048;stroke-width:0.6;"/><text fill="#000000" font-family="sans-serif" font-size="8.4" lengthAdjust="spacing" textLength="30.4623" x="1211.706" y="67.4018">Long id</text><ellipse cx="1206.306" cy="75.0201" fill="none" rx="1.8" ry="1.8" style="stroke:#038048;stroke-width:0.6;"/><text fill="#000000" font-family="sans-serif" font-size="8.4" lengthAdjust="spacing" textLength="48.6568" x="1211.706" y="77.2947">String email</text><ellipse cx="1206.306" cy="84.9131" fill="none" rx="1.8" ry="1.8" style="stroke:#038048;stroke-width:0.6;"/><text fill="#000000" font-family="sans-serif" font-size="8.4" lengthAdjust="spacing" textLength="85.7924" x="1211.706" y="87.1877">String passwordHash</text><line style="stroke:#181818;stroke-width:0.3;" x1="1200.306" x2="1300.4984" y1="91.3596" y2="91.3596"/></g><!--class EmployerRepository--><g class="entity" data-entity="EmployerRepository" data-source-line="55" data-uid="ent0012" id="entity_EmployerRepository"><rect fill="#E1BEE7" height="53.7586" rx="1.5" ry="1.5" style="stroke:#181818;stroke-width:0.3;" width="193.4355" x="703.08" y="150.864"/><ellipse cx="756.7223" cy="163.0503" fill="#B4A7E5" rx="6.6" ry="6.6" style="stroke:#181818;stroke-width:0.6;"/><path d="M754.2789,160.5094 L754.2789,159.2145 L758.7066,159.2145 L758.7066,160.5094 L757.2274,160.5094 L757.2274,165.3554 L758.7066,165.3554 L758.7066,166.6503 L754.2789,166.6503 L754.2789,165.3554 L755.7581,165.3554 L755.7581,160.5094 Z " fill="#000000"/><text fill="#000000" font-family="sans-serif" font-size="7.2" font-style="italic" lengthAdjust="spacing" textLength="38.0602" x="790.5177" y="160.8249">&#171;Interface&#187;</text><text fill="#000000" font-family="sans-serif" font-size="8.4" font-style="italic" lengthAdjust="spacing" textLength="81.051" x="769.0223" y="170.4648">EmployerRepository</text><line style="stroke:#181818;stroke-width:0.3;" x1="703.68" x2="895.9155" y1="175.2367" y2="175.2367"/><line style="stroke:#181818;stroke-width:0.3;" x1="703.68" x2="895.9155" y1="180.0367" y2="180.0367"/><ellipse cx="709.68" cy="188.2831" fill="#84BE84" rx="1.8" ry="1.8" style="stroke:#038048;stroke-width:0.6;"/><text fill="#000000" font-family="sans-serif" font-size="8.4" lengthAdjust="spacing" textLength="177.8355" x="715.08" y="190.5578">findByEmail(e: String): Optional&lt;Employer&gt;</text><ellipse cx="709.68" cy="198.1761" fill="#84BE84" rx="1.8" ry="1.8" style="stroke:#038048;stroke-width:0.6;"/><text fill="#000000" font-family="sans-serif" font-size="8.4" lengthAdjust="spacing" textLength="93.7207" x="715.08" y="200.4507">save(e: Employer): void</text></g><!--class SeekerRepository--><g class="entity" data-entity="SeekerRepository" data-source-line="60" data-uid="ent0013" id="entity_SeekerRepository"><rect fill="#E1BEE7" height="53.7586" rx="1.5" ry="1.5" style="stroke:#181818;stroke-width:0.3;" width="182.5705" x="1118.316" y="150.864"/><ellipse cx="1171.9583" cy="163.0503" fill="#B4A7E5" rx="6.6" ry="6.6" style="stroke:#181818;stroke-width:0.6;"/><path d="M1169.5149,160.5094 L1169.5149,159.2145 L1173.9426,159.2145 L1173.9426,160.5094 L1172.4634,160.5094 L1172.4634,165.3554 L1173.9426,165.3554 L1173.9426,166.6503 L1169.5149,166.6503 L1169.5149,165.3554 L1170.9941,165.3554 L1170.9941,160.5094 Z " fill="#000000"/><text fill="#000000" font-family="sans-serif" font-size="7.2" font-style="italic" lengthAdjust="spacing" textLength="38.0602" x="1200.3212" y="160.8249">&#171;Interface&#187;</text><text fill="#000000" font-family="sans-serif" font-size="8.4" font-style="italic" lengthAdjust="spacing" textLength="70.1859" x="1184.2583" y="170.4648">SeekerRepository</text><line style="stroke:#181818;stroke-width:0.3;" x1="1118.916" x2="1300.2865" y1="175.2367" y2="175.2367"/><line style="stroke:#181818;stroke-width:0.3;" x1="1118.916" x2="1300.2865" y1="180.0367" y2="180.0367"/><ellipse cx="1124.916" cy="188.2831" fill="#84BE84" rx="1.8" ry="1.8" style="stroke:#038048;stroke-width:0.6;"/><text fill="#000000" font-family="sans-serif" font-size="8.4" lengthAdjust="spacing" textLength="166.9705" x="1130.316" y="190.5578">findByEmail(e: String): Optional&lt;Seeker&gt;</text><ellipse cx="1124.916" cy="198.1761" fill="#84BE84" rx="1.8" ry="1.8" style="stroke:#038048;stroke-width:0.6;"/><text fill="#000000" font-family="sans-serif" font-size="8.4" lengthAdjust="spacing" textLength="82.4578" x="1130.316" y="200.4507">save(s: Seeker): void</text></g><!--class TokenRepository--><g class="entity" data-entity="TokenRepository" data-source-line="65" data-uid="ent0014" id="entity_TokenRepository"><rect fill="#E1BEE7" height="43.8656" rx="1.5" ry="1.5" style="stroke:#181818;stroke-width:0.3;" width="179.8758" x="917.46" y="155.814"/><ellipse cx="970.5732" cy="168.0003" fill="#B4A7E5" rx="6.6" ry="6.6" style="stroke:#181818;stroke-width:0.6;"/><path d="M968.1298,165.4594 L968.1298,164.1645 L972.5575,164.1645 L972.5575,165.4594 L971.0783,165.4594 L971.0783,170.3054 L972.5575,170.3054 L972.5575,171.6003 L968.1298,171.6003 L968.1298,170.3054 L969.609,170.3054 L969.609,165.4594 Z " fill="#000000"/><text fill="#000000" font-family="sans-serif" font-size="7.2" font-style="italic" lengthAdjust="spacing" textLength="38.0602" x="998.1178" y="165.7749">&#171;Interface&#187;</text><text fill="#000000" font-family="sans-serif" font-size="8.4" font-style="italic" lengthAdjust="spacing" textLength="68.5494" x="982.8732" y="175.4148">TokenRepository</text><line style="stroke:#181818;stroke-width:0.3;" x1="918.06" x2="1096.7358" y1="180.1867" y2="180.1867"/><line style="stroke:#181818;stroke-width:0.3;" x1="918.06" x2="1096.7358" y1="184.9867" y2="184.9867"/><ellipse cx="924.06" cy="193.2331" fill="#84BE84" rx="1.8" ry="1.8" style="stroke:#038048;stroke-width:0.6;"/><text fill="#000000" font-family="sans-serif" font-size="8.4" lengthAdjust="spacing" textLength="164.2758" x="929.46" y="195.5078">saveToken(id: String, userId: Long): void</text></g><!--class PostgresEmployerRepository--><g class="entity" data-entity="PostgresEmployerRepository" data-source-line="71" data-uid="ent0016" id="entity_PostgresEmployerRepository"><rect fill="#F5F5F5" height="28.8" rx="1.5" ry="1.5" style="stroke:#181818;stroke-width:0.3;" width="135.1143" x="1334.64" y="49.932"/><ellipse cx="1343.64" cy="59.532" fill="#ADD1B2" rx="6.6" ry="6.6" style="stroke:#181818;stroke-width:0.6;"/><path d="M1345.4239,62.9178 Q1345.0753,63.0971 1344.6918,63.1868 Q1344.3083,63.2764 1343.8849,63.2764 Q1342.3808,63.2764 1341.5889,62.2853 Q1340.797,61.2942 1340.797,59.4216 Q1340.797,57.5439 1341.5889,56.5528 Q1342.3808,55.5617 1343.8849,55.5617 Q1344.3083,55.5617 1344.6967,55.6513 Q1345.0852,55.741 1345.4239,55.9203 L1345.4239,57.5539 Q1345.0454,57.2052 1344.6893,57.0434 Q1344.3332,56.8815 1343.9546,56.8815 Q1343.1478,56.8815 1342.7369,57.5215 Q1342.326,58.1615 1342.326,59.4216 Q1342.326,60.6766 1342.7369,61.3166 Q1343.1478,61.9566 1343.9546,61.9566 Q1344.3332,61.9566 1344.6893,61.7947 Q1345.0454,61.6329 1345.4239,61.2842 Z " fill="#000000"/><text fill="#000000" font-family="sans-serif" font-size="8.4" lengthAdjust="spacing" textLength="115.9143" x="1352.04" y="62.7066">PostgresEmployerRepository</text><line style="stroke:#181818;stroke-width:0.3;" x1="1335.24" x2="1469.1543" y1="69.132" y2="69.132"/><line style="stroke:#181818;stroke-width:0.3;" x1="1335.24" x2="1469.1543" y1="73.932" y2="73.932"/></g><!--class PostgresSeekerRepository--><g class="entity" data-entity="PostgresSeekerRepository" data-source-line="72" data-uid="ent0017" id="entity_PostgresSeekerRepository"><rect fill="#F5F5F5" height="28.8" rx="1.5" ry="1.5" style="stroke:#181818;stroke-width:0.3;" width="124.2492" x="1621.476" y="49.932"/><ellipse cx="1630.476" cy="59.532" fill="#ADD1B2" rx="6.6" ry="6.6" style="stroke:#181818;stroke-width:0.6;"/><path d="M1632.2599,62.9178 Q1631.9113,63.0971 1631.5278,63.1868 Q1631.1443,63.2764 1630.7209,63.2764 Q1629.2168,63.2764 1628.4249,62.2853 Q1627.633,61.2942 1627.633,59.4216 Q1627.633,57.5439 1628.4249,56.5528 Q1629.2168,55.5617 1630.7209,55.5617 Q1631.1443,55.5617 1631.5327,55.6513 Q1631.9212,55.741 1632.2599,55.9203 L1632.2599,57.5539 Q1631.8814,57.2052 1631.5253,57.0434 Q1631.1692,56.8815 1630.7906,56.8815 Q1629.9838,56.8815 1629.5729,57.5215 Q1629.162,58.1615 1629.162,59.4216 Q1629.162,60.6766 1629.5729,61.3166 Q1629.9838,61.9566 1630.7906,61.9566 Q1631.1692,61.9566 1631.5253,61.7947 Q1631.8814,61.6329 1632.2599,61.2842 Z " fill="#000000"/><text fill="#000000" font-family="sans-serif" font-size="8.4" lengthAdjust="spacing" textLength="105.0492" x="1638.876" y="62.7066">PostgresSeekerRepository</text><line style="stroke:#181818;stroke-width:0.3;" x1="1622.076" x2="1745.1252" y1="69.132" y2="69.132"/><line style="stroke:#181818;stroke-width:0.3;" x1="1622.076" x2="1745.1252" y1="73.932" y2="73.932"/></g><!--class RedisTokenRepository--><g class="entity" data-entity="RedisTokenRepository" data-source-line="73" data-uid="ent0018" id="entity_RedisTokenRepository"><rect fill="#F5F5F5" height="28.8" rx="1.5" ry="1.5" style="stroke:#181818;stroke-width:0.3;" width="109.7379" x="1490.73" y="49.932"/><ellipse cx="1499.73" cy="59.532" fill="#ADD1B2" rx="6.6" ry="6.6" style="stroke:#181818;stroke-width:0.6;"/><path d="M1501.5139,62.9178 Q1501.1653,63.0971 1500.7818,63.1868 Q1500.3983,63.2764 1499.9749,63.2764 Q1498.4708,63.2764 1497.6789,62.2853 Q1496.887,61.2942 1496.887,59.4216 Q1496.887,57.5439 1497.6789,56.5528 Q1498.4708,55.5617 1499.9749,55.5617 Q1500.3983,55.5617 1500.7867,55.6513 Q1501.1752,55.741 1501.5139,55.9203 L1501.5139,57.5539 Q1501.1354,57.2052 1500.7793,57.0434 Q1500.4232,56.8815 1500.0446,56.8815 Q1499.2378,56.8815 1498.8269,57.5215 Q1498.416,58.1615 1498.416,59.4216 Q1498.416,60.6766 1498.8269,61.3166 Q1499.2378,61.9566 1500.0446,61.9566 Q1500.4232,61.9566 1500.7793,61.7947 Q1501.1354,61.6329 1501.5139,61.2842 Z " fill="#000000"/><text fill="#000000" font-family="sans-serif" font-size="8.4" lengthAdjust="spacing" textLength="90.5379" x="1508.13" y="62.7066">RedisTokenRepository</text><line style="stroke:#181818;stroke-width:0.3;" x1="1491.33" x2="1599.8679" y1="69.132" y2="69.132"/><line style="stroke:#181818;stroke-width:0.3;" x1="1491.33" x2="1599.8679" y1="73.932" y2="73.932"/></g><!--link AuthController to AuthService--><g class="link" data-entity-1="AuthController" data-entity-2="AuthService" data-source-line="79" data-uid="lnk19" id="link_AuthController_AuthService"><path codeLine="79" d="M239.304,103.746 C253.878,108.912 268.836,113.814 283.2,117.864 C357.486,138.828 440.2826,154.0493 503.1866,164.0393" fill="none" id="AuthController-to-AuthService" style="stroke:#181818;stroke-width:0.6;"/><polygon fill="#181818" points="506.742,164.604,501.7853,161.3867,503.7791,164.1335,501.0324,166.1273,506.742,164.604" style="stroke:#181818;stroke-width:0.6;"/><text fill="#000000" font-family="sans-serif" font-size="7.8" lengthAdjust="spacing" textLength="108.7544" x="333.978" y="130.805">&#1048;&#1089;&#1087;&#1086;&#1083;&#1100;&#1079;&#1091;&#1077;&#1090; &#1086;&#1073;&#1077; &#1088;&#1077;&#1072;&#1083;&#1080;&#1079;&#1072;&#1094;&#1080;&#1080;</text></g><!--link EmployerService to AuthService--><g class="link" data-entity-1="EmployerService" data-entity-2="AuthService" data-source-line="82" data-uid="lnk20" id="link_EmployerService_AuthService"><path codeLine="82" d="M720.774,71.49 C651.798,79.05 559.254,94.26 536.4,122.664 C528.504,132.48 525.3885,135.1546 535.2105,143.6086" fill="none" id="EmployerService-to-AuthService" style="stroke:#181818;stroke-width:0.6;stroke-dasharray:4.2,4.2;"/><polygon fill="none" points="543.396,150.654,537.559,140.8801,532.862,146.3371,543.396,150.654" style="stroke:#181818;stroke-width:0.6;"/><text fill="#000000" font-family="sans-serif" font-size="7.8" lengthAdjust="spacing" textLength="111.0929" x="537" y="130.805">&#1056;&#1077;&#1072;&#1083;&#1080;&#1079;&#1091;&#1077;&#1090; &#1076;&#1083;&#1103; &#1088;&#1072;&#1073;&#1086;&#1090;&#1086;&#1076;&#1072;&#1090;&#1077;&#1083;&#1103;</text></g><!--link SeekerService to AuthService--><g class="link" data-entity-1="SeekerService" data-entity-2="AuthService" data-source-line="83" data-uid="lnk21" id="link_SeekerService_AuthService"><path codeLine="83" d="M953.58,88.83 C935.238,99.906 911.928,111.906 889.2,117.864 C846.756,128.994 734.118,111.066 691.8,122.664 C670.626,128.472 658.2827,134.1157 640.9007,144.9697" fill="none" id="SeekerService-to-AuthService" style="stroke:#181818;stroke-width:0.6;stroke-dasharray:4.2,4.2;"/><polygon fill="none" points="631.74,150.69,642.8075,148.0233,638.9939,141.9161,631.74,150.69" style="stroke:#181818;stroke-width:0.6;"/><text fill="#000000" font-family="sans-serif" font-size="7.8" lengthAdjust="spacing" textLength="100.6002" x="692.4" y="130.805">&#1056;&#1077;&#1072;&#1083;&#1080;&#1079;&#1091;&#1077;&#1090; &#1076;&#1083;&#1103; &#1089;&#1086;&#1080;&#1089;&#1082;&#1072;&#1090;&#1077;&#1083;&#1103;</text></g><!--link EmployerService to EmployerRepository--><g class="link" data-entity-1="EmployerService" data-entity-2="EmployerRepository" data-source-line="86" data-uid="lnk22" id="link_EmployerService_EmployerRepository"><path codeLine="86" d="M798.618,88.824 C798.114,101.844 797.7,118.236 798,132.864 C798.12,138.636 798.1782,141.2247 798.4062,147.0927" fill="none" id="EmployerService-to-EmployerRepository" style="stroke:#181818;stroke-width:0.6;"/><polygon fill="#181818" points="798.546,150.69,800.7345,145.2009,798.4295,147.6923,795.9382,145.3873,798.546,150.69" style="stroke:#181818;stroke-width:0.6;"/><text fill="#000000" font-family="sans-serif" font-size="7.8" lengthAdjust="spacing" textLength="120.024" x="798.6" y="130.805">&#1056;&#1072;&#1073;&#1086;&#1090;&#1072;&#1077;&#1090; &#1089; &#1076;&#1072;&#1085;&#1085;&#1099;&#1084;&#1080; &#1082;&#1086;&#1084;&#1087;&#1072;&#1085;&#1080;&#1081;</text></g><!--link EmployerService to TokenRepository--><g class="link" data-entity-1="EmployerService" data-entity-2="TokenRepository" data-source-line="87" data-uid="lnk23" id="link_EmployerService_TokenRepository"><path codeLine="87" d="M849.12,88.8 C868.32,97.998 890.538,108.534 910.8,117.864 C915.57,120.06 916.968,120.186 921.6,122.664 C940.11,132.582 956.9399,143.0753 972.8759,153.5753" fill="none" id="EmployerService-to-TokenRepository" style="stroke:#181818;stroke-width:0.6;"/><polygon fill="#181818" points="975.882,155.556,972.6933,150.5809,973.3769,153.9054,970.0523,154.589,975.882,155.556" style="stroke:#181818;stroke-width:0.6;"/><text fill="#000000" font-family="sans-serif" font-size="7.8" lengthAdjust="spacing" textLength="71.7196" x="939.144" y="130.805">&#1057;&#1086;&#1093;&#1088;&#1072;&#1085;&#1103;&#1077;&#1090; &#1090;&#1086;&#1082;&#1077;&#1085;&#1099;</text></g><!--link SeekerService to SeekerRepository--><g class="link" data-entity-1="SeekerService" data-entity-2="SeekerRepository" data-source-line="90" data-uid="lnk24" id="link_SeekerService_SeekerRepository"><path codeLine="90" d="M1017.432,88.83 C1031.484,99.342 1049.154,110.868 1066.8,117.864 C1079.352,122.844 1083.918,118.62 1096.8,122.664 C1119.21,129.702 1139.5802,138.8542 1159.3562,148.9882" fill="none" id="SeekerService-to-SeekerRepository" style="stroke:#181818;stroke-width:0.6;"/><polygon fill="#181818" points="1162.56,150.63,1158.8488,146.0314,1159.8901,149.2619,1156.6597,150.3032,1162.56,150.63" style="stroke:#181818;stroke-width:0.6;"/><text fill="#000000" font-family="sans-serif" font-size="7.8" lengthAdjust="spacing" textLength="106.7358" x="1123.128" y="130.805">&#1056;&#1072;&#1073;&#1086;&#1090;&#1072;&#1077;&#1090; &#1089; &#1076;&#1072;&#1085;&#1085;&#1099;&#1084;&#1080; &#1083;&#1102;&#1076;&#1077;&#1081;</text></g><!--link SeekerService to TokenRepository--><g class="link" data-entity-1="SeekerService" data-entity-2="TokenRepository" data-source-line="91" data-uid="lnk25" id="link_SeekerService_TokenRepository"><path codeLine="91" d="M1004.076,88.668 C1009.692,98.73 1015.368,110.856 1018.2,122.664 C1020.786,133.446 1019.87,142.0771 1016.972,152.1211" fill="none" id="SeekerService-to-TokenRepository" style="stroke:#181818;stroke-width:0.6;"/><polygon fill="#181818" points="1015.974,155.58,1019.7769,151.057,1016.8057,152.6976,1015.1651,149.7263,1015.974,155.58" style="stroke:#181818;stroke-width:0.6;"/><text fill="#000000" font-family="sans-serif" font-size="7.8" lengthAdjust="spacing" textLength="71.7196" x="1019.976" y="130.805">&#1057;&#1086;&#1093;&#1088;&#1072;&#1085;&#1103;&#1077;&#1090; &#1090;&#1086;&#1082;&#1077;&#1085;&#1099;</text></g><!--link PostgresEmployerRepository to EmployerRepository--><g class="link" data-entity-1="PostgresEmployerRepository" data-entity-2="EmployerRepository" data-source-line="94" data-uid="lnk26" id="link_PostgresEmployerRepository_EmployerRepository"><path codeLine="94" d="M1382.37,78.936 C1364.394,90.99 1336.746,107.964 1310.4,117.864 C1211.31,155.1 1052.34,129.312 907.2,150.864 C903.69,151.386 910.7548,150.0861 907.1608,150.7221" fill="none" id="PostgresEmployerRepository-to-EmployerRepository" style="stroke:#181818;stroke-width:0.6;stroke-dasharray:4.2,4.2;"/><polygon fill="none" points="896.526,152.604,907.7881,154.267,906.5335,147.1771,896.526,152.604" style="stroke:#181818;stroke-width:0.6;"/><text fill="#000000" font-family="sans-serif" font-size="7.8" lengthAdjust="spacing" textLength="16.7007" x="1292.532" y="130.805">impl</text></g><!--link PostgresSeekerRepository to SeekerRepository--><g class="link" data-entity-1="PostgresSeekerRepository" data-entity-2="SeekerRepository" data-source-line="95" data-uid="lnk27" id="link_PostgresSeekerRepository_SeekerRepository"><path codeLine="95" d="M1669.062,78.876 C1655.274,91.236 1633.38,108.714 1611,117.864 C1510.188,159.108 1395.5044,171.6524 1311.9424,175.5224" fill="none" id="PostgresSeekerRepository-to-SeekerRepository" style="stroke:#181818;stroke-width:0.6;stroke-dasharray:4.2,4.2;"/><polygon fill="none" points="1301.154,176.022,1312.109,179.1185,1311.7759,171.9262,1301.154,176.022" style="stroke:#181818;stroke-width:0.6;"/><text fill="#000000" font-family="sans-serif" font-size="7.8" lengthAdjust="spacing" textLength="16.7007" x="1591.266" y="130.805">impl</text></g><!--link RedisTokenRepository to TokenRepository--><g class="link" data-entity-1="RedisTokenRepository" data-entity-2="TokenRepository" data-source-line="96" data-uid="lnk28" id="link_RedisTokenRepository_TokenRepository"><path codeLine="96" d="M1532.796,78.948 C1520.568,91.356 1500.972,108.864 1480.2,117.864 C1435.488,137.238 1420.068,127.872 1371.6,132.864 C1254.612,144.918 1223.658,131.862 1107.6,150.864 C1099.788,152.142 1102.2464,151.4083 1094.2124,153.2023" fill="none" id="RedisTokenRepository-to-TokenRepository" style="stroke:#181818;stroke-width:0.6;stroke-dasharray:4.2,4.2;"/><polygon fill="none" points="1083.672,155.556,1094.997,156.7158,1093.4278,149.6888,1083.672,155.556" style="stroke:#181818;stroke-width:0.6;"/><text fill="#000000" font-family="sans-serif" font-size="7.8" lengthAdjust="spacing" textLength="16.7007" x="1468.206" y="130.805">impl</text></g><!--SRC=[lLNTIXj15BxVfnZYHICsWb0f3I6WCQ62e1XVOCoESPfr9-vibD0AnjRUj5JeZLxM9sWg3KQjyHLctwZdx6QJsP_uH-dc8ZldvplV-URCh6nmkqaTkaDA5fLoaTOQTKUqRBCaBE6GgSey_Wmv2bk325fdLRTjCUAmcaljkiMq0BbDJR7FxJhPefPaXj4CCaY6Ddc6l3S8F3KiHXPQxdP9sAuZB8ivGnS-ETzLPSuUhp72TfgMQ3Ddk9uG9Hbh96DcW6ETInSzwCywR3TFWlVreMUTxKxdVQnr9fl2bcdfvI69021SFGh24dLk1tah-0h1BIRTj8G3GvD73oQ5mjB6Qh58ffRcoWkLUKsi6L9r7TIRxL1k9SrDmDeNZfdqWEufPNLIZodhYWQpxmK_q8PWioMvpQJCeIgrS1wu3I9kKTX6VKiBXUNGZXJASulbyki8XK1Ql_7yiF1Bl-5mDHs-f6nfrgGkpPFLpNSmnX2u9xYPbACSdRx8b8x7e2aaTuNJ7WqhchJ83HH92tF3TR9WLH_aIBbmR4SeScHuNgcGFswp015jbBbIgRmflOh8l29WGxdvv95xI-Nsf0R_LytnQANiriCJjiLjSx5TnffPfatLQjFbmgPM8KGjQacIxZ6C3dqfmpMcbTZLVq0gm4nGak7LTo-X-00zp0V1_QmiDyVdi2MPispc_PsC5jGl13o4ELghmPqG_Jgi2UdM7IQJsvOI51TH2rbd9fUndf312vBBvOWwLz_LJtMgpd29reMrPU9rr8qQg2iZzedAvOgH6ofFCkeCWkyW-CRxgYwzZwhd7H5O_b8zuXsgdke2L5zTggxt6Vxx6QoXViGTtWc1nQrt1Fc7tYTmNm7kG5qW5p2f2uZfgAuHluzcPpyaEMdm8QFVGF046NM1sW3g3C3KnNheo1ZHQ-U9gCWKwLthYDZdAIG4pFlg3vJjWBiVlrCJFQ7CAQSru13ox_eCl0wIwAfRqEuBbEWJ8360bplVs5TNcLJu-90ZzZdW7liAtNed0JhAT0qD0VXz3KN4Yqc9rH9d_96jt7ZVmDJ39fAWpstXF9XjhPXtR4m-RS4if6y71sl6c7G8WyoqteEyj9CPvAIq5gJy1G00]--></g></svg>