<svg xmlns="http://www.w3.org/2000/svg" xmlns:xlink="http://www.w3.org/1999/xlink" contentStyleType="text/css" data-diagram-type="CLASS" height="692px" preserveAspectRatio="none" style="width:1111px;height:692px;background:#FFFFFF;" version="1.1" viewBox="0 0 1111 692" width="1111px" zoomAndPan="magnify"><defs/><g><!--cluster api--><g class="cluster" data-entity="api" data-source-line="4" data-uid="ent0002" id="cluster_api"><rect fill="none" height="157.09" rx="2.5" ry="2.5" style="stroke:#000000;stroke-width:1.5;" width="764" x="24" y="7"/><text fill="#000000" font-family="sans-serif" font-size="14" font-weight="bold" lengthAdjust="spacing" textLength="22.0596" x="394.9702" y="22.5352">api</text></g><!--cluster business-logic--><g class="cluster" data-entity="business-logic" data-source-line="17" data-uid="ent0005" id="cluster_business-logic"><rect fill="none" height="473.9" rx="2.5" ry="2.5" style="stroke:#000000;stroke-width:1.5;" width="817" x="7" y="213.09"/><text fill="#000000" font-family="sans-serif" font-size="14" font-weight="bold" lengthAdjust="spacing" textLength="107.8438" x="361.5781" y="228.6252">business-logic</text></g><!--class MatchingController--><g class="entity" data-entity="MatchingController" data-source-line="5" data-uid="ent0003" id="entity_MatchingController"><rect fill="#F5F5F5" height="80.9766" rx="2.5" ry="2.5" style="stroke:#181818;stroke-width:0.5;" width="537.6426" x="40.18" y="54.55"/><ellipse cx="239.4954" cy="70.55" fill="#ADD1B2" rx="11" ry="11" style="stroke:#181818;stroke-width:1;"/><path d="M242.4686,76.1931 Q241.8875,76.4919 241.2484,76.6413 Q240.6092,76.7907 239.9036,76.7907 Q237.3968,76.7907 236.077,75.1389 Q234.7571,73.487 234.7571,70.3659 Q234.7571,67.2365 236.077,65.5847 Q237.3968,63.9328 239.9036,63.9328 Q240.6092,63.9328 241.2567,64.0822 Q241.9041,64.2316 242.4686,64.5305 L242.4686,67.2531 Q241.8377,66.6721 241.2442,66.4023 Q240.6507,66.1325 240.0198,66.1325 Q238.6751,66.1325 237.9903,67.1992 Q237.3055,68.2658 237.3055,70.3659 Q237.3055,72.4577 237.9903,73.5244 Q238.6751,74.591 240.0198,74.591 Q240.6507,74.591 241.2442,74.3212 Q241.8377,74.0515 242.4686,73.4704 Z " fill="#000000"/><text fill="#000000" font-family="sans-serif" font-size="14" lengthAdjust="spacing" textLength="130.5117" x="259.9954" y="75.841">MatchingController</text><line style="stroke:#181818;stroke-width:0.5;" x1="41.18" x2="576.8226" y1="86.55" y2="86.55"/><rect fill="none" height="6" style="stroke:#C82930;stroke-width:1;" width="6" x="48.18" y="97.2941"/><text fill="#000000" font-family="sans-serif" font-size="14" lengthAdjust="spacing" textLength="224.8066" x="60.18" y="104.0852">MatchingService matchingService</text><line style="stroke:#181818;stroke-width:0.5;" x1="41.18" x2="576.8226" y1="111.0383" y2="111.0383"/><ellipse cx="51.18" cy="124.7824" fill="#84BE84" rx="3" ry="3" style="stroke:#038048;stroke-width:1;"/><text fill="#000000" font-family="sans-serif" font-size="14" lengthAdjust="spacing" textLength="511.6426" x="60.18" y="128.5734">getMatches(vacancyId: Long, maxAmount: Long): List&lt;MatchingResponse&gt;</text></g><!--class MatchingResponse--><g class="entity" data-entity="MatchingResponse" data-source-line="10" data-uid="ent0004" id="entity_MatchingResponse"><rect fill="#D1EAF5" height="106.0859" rx="2.5" ry="2.5" style="stroke:#181818;stroke-width:0.5;" width="159.1758" x="612.41" y="42"/><ellipse cx="627.41" cy="62.3105" fill="#ADD1B2" rx="11" ry="11" style="stroke:#181818;stroke-width:1;"/><path d="M630.3831,67.9536 Q629.8021,68.2524 629.1629,68.4019 Q628.5238,68.5513 627.8182,68.5513 Q625.3114,68.5513 623.9915,66.8994 Q622.6717,65.2476 622.6717,62.1265 Q622.6717,58.9971 623.9915,57.3452 Q625.3114,55.6934 627.8182,55.6934 Q628.5238,55.6934 629.1712,55.8428 Q629.8187,55.9922 630.3831,56.291 L630.3831,59.0137 Q629.7523,58.4326 629.1588,58.1628 Q628.5653,57.8931 627.9344,57.8931 Q626.5897,57.8931 625.9049,58.9597 Q625.2201,60.0264 625.2201,62.1265 Q625.2201,64.2183 625.9049,65.2849 Q626.5897,66.3516 627.9344,66.3516 Q628.5653,66.3516 629.1588,66.0818 Q629.7523,65.812 630.3831,65.231 Z " fill="#000000"/><text fill="#000000" font-family="sans-serif" font-size="12" font-style="italic" lengthAdjust="spacing" textLength="38.4727" x="685.7616" y="58.6016">&#171;DTO&#187;</text><text fill="#000000" font-family="sans-serif" font-size="14" lengthAdjust="spacing" textLength="127.1758" x="641.41" y="74.668">MatchingResponse</text><line style="stroke:#181818;stroke-width:0.5;" x1="613.41" x2="770.5858" y1="82.6211" y2="82.6211"/><ellipse cx="623.41" cy="96.3652" fill="none" rx="3" ry="3" style="stroke:#038048;stroke-width:1;"/><text fill="#000000" font-family="sans-serif" font-size="14" lengthAdjust="spacing" textLength="100.9805" x="632.41" y="100.1563">Long resumeId</text><ellipse cx="623.41" cy="112.8535" fill="none" rx="3" ry="3" style="stroke:#038048;stroke-width:1;"/><text fill="#000000" font-family="sans-serif" font-size="14" lengthAdjust="spacing" textLength="105.2734" x="632.41" y="116.6445">String fullName</text><ellipse cx="623.41" cy="129.3418" fill="none" rx="3" ry="3" style="stroke:#038048;stroke-width:1;"/><text fill="#000000" font-family="sans-serif" font-size="14" lengthAdjust="spacing" textLength="89.2979" x="632.41" y="133.1328">Double score</text><line style="stroke:#181818;stroke-width:0.5;" x1="613.41" x2="770.5858" y1="140.0859" y2="140.0859"/></g><!--class MatchingService--><g class="entity" data-entity="MatchingService" data-source-line="18" data-uid="ent0006" id="entity_MatchingService"><rect fill="#E1BEE7" height="73.1094" rx="2.5" ry="2.5" style="stroke:#181818;stroke-width:0.5;" width="571.8018" x="23.1" y="256.33"/><ellipse cx="249.9096" cy="276.6405" fill="#B4A7E5" rx="11" ry="11" style="stroke:#181818;stroke-width:1;"/><path d="M245.8373,272.4057 L245.8373,270.2475 L253.2167,270.2475 L253.2167,272.4057 L250.7514,272.4057 L250.7514,280.4823 L253.2167,280.4823 L253.2167,282.6405 L245.8373,282.6405 L245.8373,280.4823 L248.3026,280.4823 L248.3026,272.4057 Z " fill="#000000"/><text fill="#000000" font-family="sans-serif" font-size="12" font-style="italic" lengthAdjust="spacing" textLength="63.4336" x="293.5341" y="272.9316">&#171;Interface&#187;</text><text fill="#000000" font-family="sans-serif" font-size="14" font-style="italic" lengthAdjust="spacing" textLength="109.6826" x="270.4096" y="288.998">MatchingService</text><line style="stroke:#181818;stroke-width:0.5;" x1="24.1" x2="593.9018" y1="296.9511" y2="296.9511"/><line style="stroke:#181818;stroke-width:0.5;" x1="24.1" x2="593.9018" y1="304.9511" y2="304.9511"/><ellipse cx="34.1" cy="318.6952" fill="#84BE84" rx="3" ry="3" style="stroke:#038048;stroke-width:1;"/><text fill="#000000" font-family="sans-serif" font-size="14" lengthAdjust="spacing" textLength="545.8018" x="43.1" y="322.4863">findSuitableCandidates(vacancyId: Long, maxAmount: Long): List&lt;MatchResult&gt;</text></g><!--class BasicMatchingService--><g class="entity" data-entity="BasicMatchingService" data-source-line="22" data-uid="ent0007" id="entity_BasicMatchingService"><rect fill="#F5F5F5" height="130.4414" rx="2.5" ry="2.5" style="stroke:#181818;stroke-width:0.5;" width="275.4365" x="262.28" y="398.68"/><ellipse cx="323.8376" cy="414.68" fill="#ADD1B2" rx="11" ry="11" style="stroke:#181818;stroke-width:1;"/><path d="M326.8108,420.3231 Q326.2297,420.6219 325.5905,420.7713 Q324.9514,420.9207 324.2458,420.9207 Q321.739,420.9207 320.4192,419.2689 Q319.0993,417.617 319.0993,414.4959 Q319.0993,411.3665 320.4192,409.7147 Q321.739,408.0628 324.2458,408.0628 Q324.9514,408.0628 325.5988,408.2122 Q326.2463,408.3616 326.8108,408.6605 L326.8108,411.3831 Q326.1799,410.8021 325.5864,410.5323 Q324.9929,410.2625 324.362,410.2625 Q323.0173,410.2625 322.3325,411.3292 Q321.6477,412.3958 321.6477,414.4959 Q321.6477,416.5877 322.3325,417.6544 Q323.0173,418.721 324.362,418.721 Q324.9929,418.721 325.5864,418.4512 Q326.1799,418.1815 326.8108,417.6004 Z " fill="#000000"/><text fill="#000000" font-family="sans-serif" font-size="14" lengthAdjust="spacing" textLength="143.8213" x="344.3376" y="419.971">BasicMatchingService</text><line style="stroke:#181818;stroke-width:0.5;" x1="263.28" x2="536.7165" y1="430.68" y2="430.68"/><rect fill="none" height="6" style="stroke:#C82930;stroke-width:1;" width="6" x="270.28" y="441.4241"/><text fill="#000000" font-family="sans-serif" font-size="14" lengthAdjust="spacing" textLength="218.6338" x="282.28" y="448.2152">VacancyRepository vacancyRepo</text><rect fill="none" height="6" style="stroke:#C82930;stroke-width:1;" width="6" x="270.28" y="457.9124"/><text fill="#000000" font-family="sans-serif" font-size="14" lengthAdjust="spacing" textLength="214.1904" x="282.28" y="464.7034">ResumeRepository resumeRepo</text><rect fill="none" height="6" style="stroke:#C82930;stroke-width:1;" width="6" x="270.28" y="474.4007"/><text fill="#000000" font-family="sans-serif" font-size="14" lengthAdjust="spacing" textLength="249.4365" x="282.28" y="481.1917">VectorResumeRepository vectorRepo</text><rect fill="none" height="6" style="stroke:#C82930;stroke-width:1;" width="6" x="270.28" y="490.889"/><text fill="#000000" font-family="sans-serif" font-size="14" lengthAdjust="spacing" textLength="108.9102" x="282.28" y="497.68">AIClient aiClient</text><line style="stroke:#181818;stroke-width:0.5;" x1="263.28" x2="536.7165" y1="504.6331" y2="504.6331"/><ellipse cx="273.28" cy="518.3773" fill="#84BE84" rx="3" ry="3" style="stroke:#038048;stroke-width:1;"/><text fill="#000000" font-family="sans-serif" font-size="14" lengthAdjust="spacing" textLength="165.3818" x="282.28" y="522.1683">findSuitableCandidates()</text></g><!--class MatchResult--><g class="entity" data-entity="MatchResult" data-source-line="30" data-uid="ent0009" id="entity_MatchResult"><rect fill="#FFF9C4" height="89.5977" rx="2.5" ry="2.5" style="stroke:#181818;stroke-width:0.5;" width="178.1064" x="629.95" y="248.09"/><ellipse cx="673.507" cy="268.4005" fill="#ADD1B2" rx="11" ry="11" style="stroke:#181818;stroke-width:1;"/><path d="M676.4801,274.0436 Q675.8991,274.3424 675.2599,274.4919 Q674.6208,274.6413 673.9152,274.6413 Q671.4083,274.6413 670.0885,272.9894 Q668.7687,271.3376 668.7687,268.2165 Q668.7687,265.0871 670.0885,263.4352 Q671.4083,261.7834 673.9152,261.7834 Q674.6208,261.7834 675.2682,261.9328 Q675.9157,262.0822 676.4801,262.381 L676.4801,265.1037 Q675.8493,264.5226 675.2558,264.2528 Q674.6623,263.9831 674.0314,263.9831 Q672.6867,263.9831 672.0019,265.0497 Q671.317,266.1164 671.317,268.2165 Q671.317,270.3083 672.0019,271.3749 Q672.6867,272.4416 674.0314,272.4416 Q674.6623,272.4416 675.2558,272.1718 Q675.8493,271.902 676.4801,271.321 Z " fill="#000000"/><text fill="#000000" font-family="sans-serif" font-size="12" font-style="italic" lengthAdjust="spacing" textLength="57.6797" x="706.3364" y="264.6916">&#171;Domain&#187;</text><text fill="#000000" font-family="sans-serif" font-size="14" lengthAdjust="spacing" textLength="82.6465" x="693.853" y="280.758">MatchResult</text><line style="stroke:#181818;stroke-width:0.5;" x1="630.95" x2="807.0564" y1="288.7111" y2="288.7111"/><ellipse cx="640.95" cy="302.4552" fill="none" rx="3" ry="3" style="stroke:#038048;stroke-width:1;"/><text fill="#000000" font-family="sans-serif" font-size="14" lengthAdjust="spacing" textLength="100.9805" x="649.95" y="306.2463">Long resumeId</text><ellipse cx="640.95" cy="318.9435" fill="none" rx="3" ry="3" style="stroke:#038048;stroke-width:1;"/><text fill="#000000" font-family="sans-serif" font-size="14" lengthAdjust="spacing" textLength="152.1064" x="649.95" y="322.7345">Double similarityScore</text><line style="stroke:#181818;stroke-width:0.5;" x1="630.95" x2="807.0564" y1="329.6877" y2="329.6877"/></g><!--class VacancyRepository--><g class="entity" data-entity="VacancyRepository" data-source-line="35" data-uid="ent0010" id="entity_VacancyRepository"><rect fill="#E1BEE7" height="56.6211" rx="2.5" ry="2.5" style="stroke:#181818;stroke-width:0.5;" width="159.0869" x="127.46" y="614.37"/><ellipse cx="142.46" cy="634.6805" fill="#B4A7E5" rx="11" ry="11" style="stroke:#181818;stroke-width:1;"/><path d="M138.3877,630.4457 L138.3877,628.2875 L145.7671,628.2875 L145.7671,630.4457 L143.3018,630.4457 L143.3018,638.5223 L145.7671,638.5223 L145.7671,640.6805 L138.3877,640.6805 L138.3877,638.5223 L140.8531,638.5223 L140.8531,630.4457 Z " fill="#000000"/><text fill="#000000" font-family="sans-serif" font-size="12" font-style="italic" lengthAdjust="spacing" textLength="63.4336" x="188.2867" y="630.9716">&#171;Interface&#187;</text><text fill="#000000" font-family="sans-serif" font-size="14" font-style="italic" lengthAdjust="spacing" textLength="127.0869" x="156.46" y="647.038">VacancyRepository</text><line style="stroke:#181818;stroke-width:0.5;" x1="128.46" x2="285.5469" y1="654.9911" y2="654.9911"/><line style="stroke:#181818;stroke-width:0.5;" x1="128.46" x2="285.5469" y1="662.9911" y2="662.9911"/></g><!--class ResumeRepository--><g class="entity" data-entity="ResumeRepository" data-source-line="36" data-uid="ent0011" id="entity_ResumeRepository"><rect fill="#E1BEE7" height="56.6211" rx="2.5" ry="2.5" style="stroke:#181818;stroke-width:0.5;" width="157.4736" x="321.26" y="614.37"/><ellipse cx="336.26" cy="634.6805" fill="#B4A7E5" rx="11" ry="11" style="stroke:#181818;stroke-width:1;"/><path d="M332.1877,630.4457 L332.1877,628.2875 L339.5671,628.2875 L339.5671,630.4457 L337.1018,630.4457 L337.1018,638.5223 L339.5671,638.5223 L339.5671,640.6805 L332.1877,640.6805 L332.1877,638.5223 L334.6531,638.5223 L334.6531,630.4457 Z " fill="#000000"/><text fill="#000000" font-family="sans-serif" font-size="12" font-style="italic" lengthAdjust="spacing" textLength="63.4336" x="381.28" y="630.9716">&#171;Interface&#187;</text><text fill="#000000" font-family="sans-serif" font-size="14" font-style="italic" lengthAdjust="spacing" textLength="125.4736" x="350.26" y="647.038">ResumeRepository</text><line style="stroke:#181818;stroke-width:0.5;" x1="322.26" x2="477.7336" y1="654.9911" y2="654.9911"/><line style="stroke:#181818;stroke-width:0.5;" x1="322.26" x2="477.7336" y1="662.9911" y2="662.9911"/></g><!--class VectorResumeRepository--><g class="entity" data-entity="VectorResumeRepository" data-source-line="37" data-uid="ent0012" id="entity_VectorResumeRepository"><rect fill="#E1BEE7" height="56.6211" rx="2.5" ry="2.5" style="stroke:#181818;stroke-width:0.5;" width="201.1621" x="513.42" y="614.37"/><ellipse cx="528.42" cy="634.6805" fill="#B4A7E5" rx="11" ry="11" style="stroke:#181818;stroke-width:1;"/><path d="M524.3477,630.4457 L524.3477,628.2875 L531.7271,628.2875 L531.7271,630.4457 L529.2618,630.4457 L529.2618,638.5223 L531.7271,638.5223 L531.7271,640.6805 L524.3477,640.6805 L524.3477,638.5223 L526.8131,638.5223 L526.8131,630.4457 Z " fill="#000000"/><text fill="#000000" font-family="sans-serif" font-size="12" font-style="italic" lengthAdjust="spacing" textLength="63.4336" x="595.2843" y="630.9716">&#171;Interface&#187;</text><text fill="#000000" font-family="sans-serif" font-size="14" font-style="italic" lengthAdjust="spacing" textLength="169.1621" x="542.42" y="647.038">VectorResumeRepository</text><line style="stroke:#181818;stroke-width:0.5;" x1="514.42" x2="713.5821" y1="654.9911" y2="654.9911"/><line style="stroke:#181818;stroke-width:0.5;" x1="514.42" x2="713.5821" y1="662.9911" y2="662.9911"/></g><!--class AIClient--><g class="entity" data-entity="AIClient" data-source-line="40" data-uid="ent0013" id="entity_AIClient"><rect fill="#E1BEE7" height="73.1094" rx="2.5" ry="2.5" style="stroke:#181818;stroke-width:0.5;" width="264.7793" x="839.61" y="606.12"/><ellipse cx="938.0329" cy="626.4305" fill="#B4A7E5" rx="11" ry="11" style="stroke:#181818;stroke-width:1;"/><path d="M933.9606,622.1957 L933.9606,620.0375 L941.34,620.0375 L941.34,622.1957 L938.8746,622.1957 L938.8746,630.2723 L941.34,630.2723 L941.34,632.4305 L933.9606,632.4305 L933.9606,630.2723 L936.4259,630.2723 L936.4259,622.1957 Z " fill="#000000"/><text fill="#000000" font-family="sans-serif" font-size="12" font-style="italic" lengthAdjust="spacing" textLength="63.4336" x="956.5329" y="622.7216">&#171;Interface&#187;</text><text fill="#000000" font-family="sans-serif" font-size="14" font-style="italic" lengthAdjust="spacing" textLength="53.1973" x="961.651" y="638.788">AIClient</text><line style="stroke:#181818;stroke-width:0.5;" x1="840.61" x2="1103.3893" y1="646.7411" y2="646.7411"/><line style="stroke:#181818;stroke-width:0.5;" x1="840.61" x2="1103.3893" y1="654.7411" y2="654.7411"/><ellipse cx="850.61" cy="668.4852" fill="#84BE84" rx="3" ry="3" style="stroke:#038048;stroke-width:1;"/><text fill="#000000" font-family="sans-serif" font-size="14" lengthAdjust="spacing" textLength="238.7793" x="859.61" y="672.2763">getEmbeddings(text: String): float[]</text></g><!--reverse link MatchingService to BasicMatchingService--><g class="link" data-entity-1="MatchingService" data-entity-2="BasicMatchingService" data-source-line="23" data-uid="lnk8" id="link_MatchingService_BasicMatchingService"><path d="M336.8352,345.5777 C347.5852,365.5377 352.75,375.15 365.3,398.45" fill="none" id="MatchingService-backto-BasicMatchingService" style="stroke:#181818;stroke-width:1;stroke-dasharray:7,7;"/><polygon fill="none" points="328.3,329.73,331.5526,348.4228,342.1178,342.7326,328.3,329.73" style="stroke:#181818;stroke-width:1;"/></g><!--link MatchingController to MatchingService--><g class="link" data-entity-1="MatchingController" data-entity-2="MatchingService" data-source-line="44" data-uid="lnk14" id="link_MatchingController_MatchingService"><path codeLine="44" d="M309,135.67 C309,170.88 309,215.89 309,249.94" fill="none" id="MatchingController-to-MatchingService" style="stroke:#181818;stroke-width:1;"/><polygon fill="#181818" points="309,255.94,313,246.94,309,250.94,305,246.94,309,255.94" style="stroke:#181818;stroke-width:1;"/><text fill="#000000" font-family="sans-serif" font-size="13" lengthAdjust="spacing" textLength="28.5645" x="310" y="193.6584">uses</text></g><!--link BasicMatchingService to VacancyRepository--><g class="link" data-entity-1="BasicMatchingService" data-entity-2="VacancyRepository" data-source-line="45" data-uid="lnk15" id="link_BasicMatchingService_VacancyRepository"><path codeLine="45" d="M329.5,529.47 C297.74,558.57 266.3351,587.338 241.6651,609.928" fill="none" id="BasicMatchingService-to-VacancyRepository" style="stroke:#181818;stroke-width:1;"/><polygon fill="#181818" points="237.24,613.98,246.579,610.8521,240.9276,610.6033,241.1763,604.952,237.24,613.98" style="stroke:#181818;stroke-width:1;"/><text fill="#000000" font-family="sans-serif" font-size="13" lengthAdjust="spacing" textLength="28.5645" x="292.94" y="572.6884">uses</text></g><!--link BasicMatchingService to ResumeRepository--><g class="link" data-entity-1="BasicMatchingService" data-entity-2="ResumeRepository" data-source-line="46" data-uid="lnk16" id="link_BasicMatchingService_ResumeRepository"><path codeLine="46" d="M400,529.47 C400,558.67 400,585.61 400,608.21" fill="none" id="BasicMatchingService-to-ResumeRepository" style="stroke:#181818;stroke-width:1;"/><polygon fill="#181818" points="400,614.21,404,605.21,400,609.21,396,605.21,400,614.21" style="stroke:#181818;stroke-width:1;"/><text fill="#000000" font-family="sans-serif" font-size="13" lengthAdjust="spacing" textLength="28.5645" x="401" y="572.6884">uses</text></g><!--link BasicMatchingService to VectorResumeRepository--><g class="link" data-entity-1="BasicMatchingService" data-entity-2="VectorResumeRepository" data-source-line="47" data-uid="lnk17" id="link_BasicMatchingService_VectorResumeRepository"><path codeLine="47" d="M478.17,529.47 C513.39,558.57 548.4946,587.5682 575.8346,610.1582" fill="none" id="BasicMatchingService-to-VectorResumeRepository" style="stroke:#181818;stroke-width:1;"/><polygon fill="#181818" points="580.46,613.98,576.0698,605.1638,576.6055,610.7952,570.9741,611.3309,580.46,613.98" style="stroke:#181818;stroke-width:1;"/><text fill="#000000" font-family="sans-serif" font-size="13" lengthAdjust="spacing" textLength="28.5645" x="533.46" y="572.6884">uses</text></g><!--link BasicMatchingService to AIClient--><g class="link" data-entity-1="BasicMatchingService" data-entity-2="AIClient" data-source-line="48" data-uid="lnk18" id="link_BasicMatchingService_AIClient"><path codeLine="48" d="M538.1,507.58 C635.13,537.57 757.7675,575.4683 849.6575,603.8683" fill="none" id="BasicMatchingService-to-AIClient" style="stroke:#181818;stroke-width:1;"/><polygon fill="#181818" points="855.39,605.64,847.9724,599.1608,850.613,604.1636,845.6102,606.8041,855.39,605.64" style="stroke:#181818;stroke-width:1;"/><text fill="#000000" font-family="sans-serif" font-size="13" lengthAdjust="spacing" textLength="28.5645" x="755.05" y="572.6884">uses</text></g><!--SRC=[bPHFRvj04CNlV8fLSacK-10fKTG8MR8nI9RIfZ9LBrKFusLCHza_Q7UnObNvxbt046n8dEA3xTatiu_VFh3Ff0em85aamDevyEVSw59baHRQiFFahle4jfDzzmh8CNKxWSmWTw1oWK5GD7Ls1WMTiRy1ynUlHhAluFWVKdcabJDQ23JxvUgQTCifcYrnPFBmVwUyOZcwMepsOWiS5DyjimVsg5L-xRjUPjBxTatXqd-HTM4xV8MsqChYj1xt6epOQoKi31S_dgPJThwuYMV9NS_iLJtRtxKj9IwpNZrrnezWcrA8Ro3xfXUwN7jIbck3-yrVUxJMfIM5raw4pectu4WvD1lmD8xfXE6oNQiinZVpEBu_iBWXbQKbEV3RHg0ooi3zBp7FeXHk1DOSBF5ZJoGBWHALimEx_OF-sJXOOQ4jEMrsRFjMwUbMDTwUp7I5_ZGVFMq6sks-VA2TBID1tXy3QdwSndNvJb0QCbL6j0HIrHaaIV8bklrKJDema2G1XjmkxSNYwEI7k4RF_gXh0EGpJU-m76_rHjywEx8VvR9-ScEvnYppqR0N3bzyw9f7niTk8pIuNx-hmIElYibaEaZL0oijsc0qZ9L-YEvKn-3UJsunZknKMyUh4Vu3]--></g></svg>