<svg xmlns="http://www.w3.org/2000/svg" xmlns:xlink="http://www.w3.org/1999/xlink" contentStyleType="text/css" data-diagram-type="CLASS" height="671px" preserveAspectRatio="none" style="width:1402px;height:671px;background:#FFFFFF;" version="1.1" viewBox="0 0 1402 671" width="1402px" zoomAndPan="magnify"><defs/><g><!--cluster api--><g class="cluster" data-entity="api" data-source-line="4" data-uid="ent0002" id="cluster_api"><rect fill="none" height="157.09" rx="2.5" ry="2.5" style="stroke:#000000;stroke-width:1.5;" width="764" x="101.54" y="7"/><text fill="#000000" font-family="sans-serif" font-size="14" font-weight="bold" lengthAdjust="spacing" textLength="22.0596" x="472.5102" y="22.5352">api</text></g><!--cluster business-logic--><g class="cluster" data-entity="business-logic" data-source-line="17" data-uid="ent0005" id="cluster_business-logic"><rect fill="none" height="332.04" rx="2.5" ry="2.5" style="stroke:#000000;stroke-width:1.5;" width="1116" x="84.54" y="213.09"/><text fill="#000000" font-family="sans-serif" font-size="14" font-weight="bold" lengthAdjust="spacing" textLength="107.8438" x="588.6181" y="228.6252">business-logic</text></g><!--cluster ai-integration--><g class="cluster" data-entity="ai-integration" data-source-line="40" data-uid="ent0011" id="cluster_ai-integration"><rect fill="none" height="305.08" rx="2.5" ry="2.5" style="stroke:#000000;stroke-width:1.5;" width="172" x="1224.54" y="36.05"/><text fill="#000000" font-family="sans-serif" font-size="14" font-weight="bold" lengthAdjust="spacing" textLength="101.541" x="1259.7695" y="51.5852">ai-integration</text></g><!--class MatchingController--><g class="entity" data-entity="MatchingController" data-source-line="5" data-uid="ent0003" id="entity_MatchingController"><rect fill="#F5F5F5" height="80.9766" rx="2.5" ry="2.5" style="stroke:#181818;stroke-width:0.5;" width="537.6426" x="117.72" y="54.56"/><ellipse cx="317.0354" cy="70.56" fill="#ADD1B2" rx="11" ry="11" style="stroke:#181818;stroke-width:1;"/><path d="M320.0086,76.2031 Q319.4275,76.5019 318.7884,76.6513 Q318.1492,76.8007 317.4436,76.8007 Q314.9368,76.8007 313.617,75.1489 Q312.2971,73.497 312.2971,70.3759 Q312.2971,67.2465 313.617,65.5947 Q314.9368,63.9428 317.4436,63.9428 Q318.1492,63.9428 318.7967,64.0922 Q319.4441,64.2416 320.0086,64.5405 L320.0086,67.2631 Q319.3777,66.6821 318.7842,66.4123 Q318.1907,66.1425 317.5598,66.1425 Q316.2151,66.1425 315.5303,67.2092 Q314.8455,68.2758 314.8455,70.3759 Q314.8455,72.4677 315.5303,73.5344 Q316.2151,74.601 317.5598,74.601 Q318.1907,74.601 318.7842,74.3312 Q319.3777,74.0615 320.0086,73.4804 Z " fill="#000000"/><text fill="#000000" font-family="sans-serif" font-size="14" lengthAdjust="spacing" textLength="130.5117" x="337.5354" y="75.851">MatchingController</text><line style="stroke:#181818;stroke-width:0.5;" x1="118.72" x2="654.3626" y1="86.56" y2="86.56"/><rect fill="none" height="6" style="stroke:#C82930;stroke-width:1;" width="6" x="125.72" y="97.3041"/><text fill="#000000" font-family="sans-serif" font-size="14" lengthAdjust="spacing" textLength="224.8066" x="137.72" y="104.0952">MatchingService matchingService</text><line style="stroke:#181818;stroke-width:0.5;" x1="118.72" x2="654.3626" y1="111.0483" y2="111.0483"/><ellipse cx="128.72" cy="124.7924" fill="#84BE84" rx="3" ry="3" style="stroke:#038048;stroke-width:1;"/><text fill="#000000" font-family="sans-serif" font-size="14" lengthAdjust="spacing" textLength="511.6426" x="137.72" y="128.5834">getMatches(vacancyId: Long, maxAmount: Long): List&lt;MatchingResponse&gt;</text></g><!--class MatchingResponse--><g class="entity" data-entity="MatchingResponse" data-source-line="10" data-uid="ent0004" id="entity_MatchingResponse"><rect fill="#D1EAF5" height="106.0859" rx="2.5" ry="2.5" style="stroke:#181818;stroke-width:0.5;" width="159.1758" x="689.96" y="42"/><ellipse cx="704.96" cy="62.3105" fill="#ADD1B2" rx="11" ry="11" style="stroke:#181818;stroke-width:1;"/><path d="M707.9331,67.9536 Q707.3521,68.2524 706.7129,68.4019 Q706.0738,68.5513 705.3682,68.5513 Q702.8614,68.5513 701.5415,66.8994 Q700.2217,65.2476 700.2217,62.1265 Q700.2217,58.9971 701.5415,57.3452 Q702.8614,55.6934 705.3682,55.6934 Q706.0738,55.6934 706.7212,55.8428 Q707.3687,55.9922 707.9331,56.291 L707.9331,59.0137 Q707.3023,58.4326 706.7088,58.1628 Q706.1153,57.8931 705.4844,57.8931 Q704.1397,57.8931 703.4549,58.9597 Q702.7701,60.0264 702.7701,62.1265 Q702.7701,64.2183 703.4549,65.2849 Q704.1397,66.3516 705.4844,66.3516 Q706.1153,66.3516 706.7088,66.0818 Q707.3023,65.812 707.9331,65.231 Z " fill="#000000"/><text fill="#000000" font-family="sans-serif" font-size="12" font-style="italic" lengthAdjust="spacing" textLength="38.4727" x="763.3116" y="58.6016">&#171;DTO&#187;</text><text fill="#000000" font-family="sans-serif" font-size="14" lengthAdjust="spacing" textLength="127.1758" x="718.96" y="74.668">MatchingResponse</text><line style="stroke:#181818;stroke-width:0.5;" x1="690.96" x2="848.1358" y1="82.6211" y2="82.6211"/><ellipse cx="700.96" cy="96.3652" fill="none" rx="3" ry="3" style="stroke:#038048;stroke-width:1;"/><text fill="#000000" font-family="sans-serif" font-size="14" lengthAdjust="spacing" textLength="100.9805" x="709.96" y="100.1563">Long resumeId</text><ellipse cx="700.96" cy="112.8535" fill="none" rx="3" ry="3" style="stroke:#038048;stroke-width:1;"/><text fill="#000000" font-family="sans-serif" font-size="14" lengthAdjust="spacing" textLength="105.2734" x="709.96" y="116.6445">String fullName</text><ellipse cx="700.96" cy="129.3418" fill="none" rx="3" ry="3" style="stroke:#038048;stroke-width:1;"/><text fill="#000000" font-family="sans-serif" font-size="14" lengthAdjust="spacing" textLength="89.2979" x="709.96" y="133.1328">Double score</text><line style="stroke:#181818;stroke-width:0.5;" x1="690.96" x2="848.1358" y1="140.0859" y2="140.0859"/></g><!--class MatchingService--><g class="entity" data-entity="MatchingService" data-source-line="18" data-uid="ent0006" id="entity_MatchingService"><rect fill="#E1BEE7" height="73.1094" rx="2.5" ry="2.5" style="stroke:#181818;stroke-width:0.5;" width="571.8018" x="100.64" y="256.33"/><ellipse cx="327.4496" cy="276.6405" fill="#B4A7E5" rx="11" ry="11" style="stroke:#181818;stroke-width:1;"/><path d="M323.3773,272.4057 L323.3773,270.2475 L330.7567,270.2475 L330.7567,272.4057 L328.2914,272.4057 L328.2914,280.4823 L330.7567,280.4823 L330.7567,282.6405 L323.3773,282.6405 L323.3773,280.4823 L325.8426,280.4823 L325.8426,272.4057 Z " fill="#000000"/><text fill="#000000" font-family="sans-serif" font-size="12" font-style="italic" lengthAdjust="spacing" textLength="63.4336" x="371.0741" y="272.9316">&#171;Interface&#187;</text><text fill="#000000" font-family="sans-serif" font-size="14" font-style="italic" lengthAdjust="spacing" textLength="109.6826" x="347.9496" y="288.998">MatchingService</text><line style="stroke:#181818;stroke-width:0.5;" x1="101.64" x2="671.4418" y1="296.9511" y2="296.9511"/><line style="stroke:#181818;stroke-width:0.5;" x1="101.64" x2="671.4418" y1="304.9511" y2="304.9511"/><ellipse cx="111.64" cy="318.6952" fill="#84BE84" rx="3" ry="3" style="stroke:#038048;stroke-width:1;"/><text fill="#000000" font-family="sans-serif" font-size="14" lengthAdjust="spacing" textLength="545.8018" x="120.64" y="322.4863">findSuitableCandidates(vacancyId: Long, maxAmount: Long): List&lt;MatchResult&gt;</text></g><!--class BasicMatchingService--><g class="entity" data-entity="BasicMatchingService" data-source-line="22" data-uid="ent0007" id="entity_BasicMatchingService"><rect fill="#F5F5F5" height="130.4414" rx="2.5" ry="2.5" style="stroke:#181818;stroke-width:0.5;" width="275.4365" x="248.83" y="398.69"/><ellipse cx="310.3876" cy="414.69" fill="#ADD1B2" rx="11" ry="11" style="stroke:#181818;stroke-width:1;"/><path d="M313.3608,420.3331 Q312.7797,420.6319 312.1405,420.7813 Q311.5014,420.9307 310.7958,420.9307 Q308.289,420.9307 306.9692,419.2789 Q305.6493,417.627 305.6493,414.5059 Q305.6493,411.3765 306.9692,409.7247 Q308.289,408.0728 310.7958,408.0728 Q311.5014,408.0728 312.1488,408.2222 Q312.7963,408.3716 313.3608,408.6705 L313.3608,411.3931 Q312.7299,410.8121 312.1364,410.5423 Q311.5429,410.2725 310.912,410.2725 Q309.5673,410.2725 308.8825,411.3392 Q308.1977,412.4058 308.1977,414.5059 Q308.1977,416.5977 308.8825,417.6644 Q309.5673,418.731 310.912,418.731 Q311.5429,418.731 312.1364,418.4612 Q312.7299,418.1915 313.3608,417.6104 Z " fill="#000000"/><text fill="#000000" font-family="sans-serif" font-size="14" lengthAdjust="spacing" textLength="143.8213" x="330.8876" y="419.981">BasicMatchingService</text><line style="stroke:#181818;stroke-width:0.5;" x1="249.83" x2="523.2665" y1="430.69" y2="430.69"/><rect fill="none" height="6" style="stroke:#C82930;stroke-width:1;" width="6" x="256.83" y="441.4341"/><text fill="#000000" font-family="sans-serif" font-size="14" lengthAdjust="spacing" textLength="218.6338" x="268.83" y="448.2252">VacancyRepository vacancyRepo</text><rect fill="none" height="6" style="stroke:#C82930;stroke-width:1;" width="6" x="256.83" y="457.9224"/><text fill="#000000" font-family="sans-serif" font-size="14" lengthAdjust="spacing" textLength="214.1904" x="268.83" y="464.7134">ResumeRepository resumeRepo</text><rect fill="none" height="6" style="stroke:#C82930;stroke-width:1;" width="6" x="256.83" y="474.4107"/><text fill="#000000" font-family="sans-serif" font-size="14" lengthAdjust="spacing" textLength="249.4365" x="268.83" y="481.2017">VectorResumeRepository vectorRepo</text><rect fill="none" height="6" style="stroke:#C82930;stroke-width:1;" width="6" x="256.83" y="490.899"/><text fill="#000000" font-family="sans-serif" font-size="14" lengthAdjust="spacing" textLength="108.9102" x="268.83" y="497.69">AIClient aiClient</text><line style="stroke:#181818;stroke-width:0.5;" x1="249.83" x2="523.2665" y1="504.6431" y2="504.6431"/><ellipse cx="259.83" cy="518.3873" fill="#84BE84" rx="3" ry="3" style="stroke:#038048;stroke-width:1;"/><text fill="#000000" font-family="sans-serif" font-size="14" lengthAdjust="spacing" textLength="165.3818" x="268.83" y="522.1783">findSuitableCandidates()</text></g><!--class MatchResult--><g class="entity" data-entity="MatchResult" data-source-line="30" data-uid="ent0009" id="entity_MatchResult"><rect fill="#FFF9C4" height="89.5977" rx="2.5" ry="2.5" style="stroke:#181818;stroke-width:0.5;" width="178.1064" x="707.49" y="248.09"/><ellipse cx="751.047" cy="268.4005" fill="#ADD1B2" rx="11" ry="11" style="stroke:#181818;stroke-width:1;"/><path d="M754.0201,274.0436 Q753.4391,274.3424 752.7999,274.4919 Q752.1608,274.6413 751.4552,274.6413 Q748.9483,274.6413 747.6285,272.9894 Q746.3087,271.3376 746.3087,268.2165 Q746.3087,265.0871 747.6285,263.4352 Q748.9483,261.7834 751.4552,261.7834 Q752.1608,261.7834 752.8082,261.9328 Q753.4557,262.0822 754.0201,262.381 L754.0201,265.1037 Q753.3893,264.5226 752.7958,264.2528 Q752.2023,263.9831 751.5714,263.9831 Q750.2267,263.9831 749.5419,265.0497 Q748.857,266.1164 748.857,268.2165 Q748.857,270.3083 749.5419,271.3749 Q750.2267,272.4416 751.5714,272.4416 Q752.2023,272.4416 752.7958,272.1718 Q753.3893,271.902 754.0201,271.321 Z " fill="#000000"/><text fill="#000000" font-family="sans-serif" font-size="12" font-style="italic" lengthAdjust="spacing" textLength="57.6797" x="783.8764" y="264.6916">&#171;Domain&#187;</text><text fill="#000000" font-family="sans-serif" font-size="14" lengthAdjust="spacing" textLength="82.6465" x="771.393" y="280.758">MatchResult</text><line style="stroke:#181818;stroke-width:0.5;" x1="708.49" x2="884.5964" y1="288.7111" y2="288.7111"/><ellipse cx="718.49" cy="302.4552" fill="none" rx="3" ry="3" style="stroke:#038048;stroke-width:1;"/><text fill="#000000" font-family="sans-serif" font-size="14" lengthAdjust="spacing" textLength="100.9805" x="727.49" y="306.2463">Long resumeId</text><ellipse cx="718.49" cy="318.9435" fill="none" rx="3" ry="3" style="stroke:#038048;stroke-width:1;"/><text fill="#000000" font-family="sans-serif" font-size="14" lengthAdjust="spacing" textLength="152.1064" x="727.49" y="322.7345">Double similarityScore</text><line style="stroke:#181818;stroke-width:0.5;" x1="708.49" x2="884.5964" y1="329.6877" y2="329.6877"/></g><!--class AIClient--><g class="entity" data-entity="AIClient" data-source-line="35" data-uid="ent0010" id="entity_AIClient"><rect fill="#E1BEE7" height="73.1094" rx="2.5" ry="2.5" style="stroke:#181818;stroke-width:0.5;" width="264.7793" x="920.15" y="256.33"/><ellipse cx="1018.5729" cy="276.6405" fill="#B4A7E5" rx="11" ry="11" style="stroke:#181818;stroke-width:1;"/><path d="M1014.5006,272.4057 L1014.5006,270.2475 L1021.88,270.2475 L1021.88,272.4057 L1019.4146,272.4057 L1019.4146,280.4823 L1021.88,280.4823 L1021.88,282.6405 L1014.5006,282.6405 L1014.5006,280.4823 L1016.9659,280.4823 L1016.9659,272.4057 Z " fill="#000000"/><text fill="#000000" font-family="sans-serif" font-size="12" font-style="italic" lengthAdjust="spacing" textLength="63.4336" x="1037.0729" y="272.9316">&#171;Interface&#187;</text><text fill="#000000" font-family="sans-serif" font-size="14" font-style="italic" lengthAdjust="spacing" textLength="53.1973" x="1042.191" y="288.998">AIClient</text><line style="stroke:#181818;stroke-width:0.5;" x1="921.15" x2="1183.9293" y1="296.9511" y2="296.9511"/><line style="stroke:#181818;stroke-width:0.5;" x1="921.15" x2="1183.9293" y1="304.9511" y2="304.9511"/><ellipse cx="931.15" cy="318.6952" fill="#84BE84" rx="3" ry="3" style="stroke:#038048;stroke-width:1;"/><text fill="#000000" font-family="sans-serif" font-size="14" lengthAdjust="spacing" textLength="238.7793" x="940.15" y="322.4863">getEmbeddings(text: String): float[]</text></g><!--class OllamaAIClient--><g class="entity" data-entity="OllamaAIClient" data-source-line="41" data-uid="ent0012" id="entity_OllamaAIClient"><rect fill="#F5F5F5" height="64.4883" rx="2.5" ry="2.5" style="stroke:#181818;stroke-width:0.5;" width="140.3652" x="1240.36" y="260.64"/><ellipse cx="1258.8093" cy="276.64" fill="#ADD1B2" rx="11" ry="11" style="stroke:#181818;stroke-width:1;"/><path d="M1261.7824,282.2831 Q1261.2014,282.5819 1260.5622,282.7313 Q1259.923,282.8807 1259.2175,282.8807 Q1256.7106,282.8807 1255.3908,281.2289 Q1254.071,279.577 1254.071,276.4559 Q1254.071,273.3265 1255.3908,271.6747 Q1256.7106,270.0228 1259.2175,270.0228 Q1259.923,270.0228 1260.5705,270.1722 Q1261.218,270.3216 1261.7824,270.6205 L1261.7824,273.3431 Q1261.1516,272.7621 1260.558,272.4923 Q1259.9645,272.2225 1259.3337,272.2225 Q1257.989,272.2225 1257.3041,273.2892 Q1256.6193,274.3558 1256.6193,276.4559 Q1256.6193,278.5477 1257.3041,279.6144 Q1257.989,280.681 1259.3337,280.681 Q1259.9645,280.681 1260.558,280.4112 Q1261.1516,280.1415 1261.7824,279.5604 Z " fill="#000000"/><text fill="#000000" font-family="sans-serif" font-size="14" lengthAdjust="spacing" textLength="100.7002" x="1273.5758" y="281.931">OllamaAIClient</text><line style="stroke:#181818;stroke-width:0.5;" x1="1241.36" x2="1379.7252" y1="292.64" y2="292.64"/><line style="stroke:#181818;stroke-width:0.5;" x1="1241.36" x2="1379.7252" y1="300.64" y2="300.64"/><ellipse cx="1251.36" cy="314.3841" fill="#84BE84" rx="3" ry="3" style="stroke:#038048;stroke-width:1;"/><text fill="#000000" font-family="sans-serif" font-size="14" lengthAdjust="spacing" textLength="114.3652" x="1260.36" y="318.1752">getEmbeddings()</text></g><!--class AIClient--><g class="entity" data-entity="AIClient" data-source-line="42" data-uid="ent0013" id="entity_AIClient"><rect fill="#F5F5F5" height="48" rx="2.5" ry="2.5" style="stroke:#181818;stroke-width:0.5;" width="85.1973" x="1267.94" y="71.05"/><ellipse cx="1282.94" cy="87.05" fill="#B4A7E5" rx="11" ry="11" style="stroke:#181818;stroke-width:1;"/><path d="M1278.8677,82.8151 L1278.8677,80.6569 L1286.2471,80.6569 L1286.2471,82.8151 L1283.7818,82.8151 L1283.7818,90.8918 L1286.2471,90.8918 L1286.2471,93.05 L1278.8677,93.05 L1278.8677,90.8918 L1281.3331,90.8918 L1281.3331,82.8151 Z " fill="#000000"/><text fill="#000000" font-family="sans-serif" font-size="14" font-style="italic" lengthAdjust="spacing" textLength="53.1973" x="1296.94" y="92.341">AIClient</text><line style="stroke:#181818;stroke-width:0.5;" x1="1268.94" x2="1352.1373" y1="103.05" y2="103.05"/><line style="stroke:#181818;stroke-width:0.5;" x1="1268.94" x2="1352.1373" y1="111.05" y2="111.05"/></g><!--class VacancyRepository--><g class="entity" data-entity="VacancyRepository" data-source-line="47" data-uid="ent0015" id="entity_VacancyRepository"><rect fill="#E1BEE7" height="56.6211" rx="2.5" ry="2.5" style="stroke:#181818;stroke-width:0.5;" width="159.0869" x="7" y="608.13"/><ellipse cx="22" cy="628.4405" fill="#B4A7E5" rx="11" ry="11" style="stroke:#181818;stroke-width:1;"/><path d="M17.9277,624.2057 L17.9277,622.0475 L25.3071,622.0475 L25.3071,624.2057 L22.8418,624.2057 L22.8418,632.2823 L25.3071,632.2823 L25.3071,634.4405 L17.9277,634.4405 L17.9277,632.2823 L20.3931,632.2823 L20.3931,624.2057 Z " fill="#000000"/><text fill="#000000" font-family="sans-serif" font-size="12" font-style="italic" lengthAdjust="spacing" textLength="63.4336" x="67.8267" y="624.7316">&#171;Interface&#187;</text><text fill="#000000" font-family="sans-serif" font-size="14" font-style="italic" lengthAdjust="spacing" textLength="127.0869" x="36" y="640.798">VacancyRepository</text><line style="stroke:#181818;stroke-width:0.5;" x1="8" x2="165.0869" y1="648.7511" y2="648.7511"/><line style="stroke:#181818;stroke-width:0.5;" x1="8" x2="165.0869" y1="656.7511" y2="656.7511"/></g><!--class ResumeRepository--><g class="entity" data-entity="ResumeRepository" data-source-line="48" data-uid="ent0016" id="entity_ResumeRepository"><rect fill="#E1BEE7" height="56.6211" rx="2.5" ry="2.5" style="stroke:#181818;stroke-width:0.5;" width="157.4736" x="200.81" y="608.13"/><ellipse cx="215.81" cy="628.4405" fill="#B4A7E5" rx="11" ry="11" style="stroke:#181818;stroke-width:1;"/><path d="M211.7377,624.2057 L211.7377,622.0475 L219.1171,622.0475 L219.1171,624.2057 L216.6518,624.2057 L216.6518,632.2823 L219.1171,632.2823 L219.1171,634.4405 L211.7377,634.4405 L211.7377,632.2823 L214.2031,632.2823 L214.2031,624.2057 Z " fill="#000000"/><text fill="#000000" font-family="sans-serif" font-size="12" font-style="italic" lengthAdjust="spacing" textLength="63.4336" x="260.83" y="624.7316">&#171;Interface&#187;</text><text fill="#000000" font-family="sans-serif" font-size="14" font-style="italic" lengthAdjust="spacing" textLength="125.4736" x="229.81" y="640.798">ResumeRepository</text><line style="stroke:#181818;stroke-width:0.5;" x1="201.81" x2="357.2836" y1="648.7511" y2="648.7511"/><line style="stroke:#181818;stroke-width:0.5;" x1="201.81" x2="357.2836" y1="656.7511" y2="656.7511"/></g><!--class VectorResumeRepository--><g class="entity" data-entity="VectorResumeRepository" data-source-line="49" data-uid="ent0017" id="entity_VectorResumeRepository"><rect fill="#E1BEE7" height="56.6211" rx="2.5" ry="2.5" style="stroke:#181818;stroke-width:0.5;" width="201.1621" x="392.96" y="608.13"/><ellipse cx="407.96" cy="628.4405" fill="#B4A7E5" rx="11" ry="11" style="stroke:#181818;stroke-width:1;"/><path d="M403.8877,624.2057 L403.8877,622.0475 L411.2671,622.0475 L411.2671,624.2057 L408.8018,624.2057 L408.8018,632.2823 L411.2671,632.2823 L411.2671,634.4405 L403.8877,634.4405 L403.8877,632.2823 L406.3531,632.2823 L406.3531,624.2057 Z " fill="#000000"/><text fill="#000000" font-family="sans-serif" font-size="12" font-style="italic" lengthAdjust="spacing" textLength="63.4336" x="474.8243" y="624.7316">&#171;Interface&#187;</text><text fill="#000000" font-family="sans-serif" font-size="14" font-style="italic" lengthAdjust="spacing" textLength="169.1621" x="421.96" y="640.798">VectorResumeRepository</text><line style="stroke:#181818;stroke-width:0.5;" x1="393.96" x2="593.1221" y1="648.7511" y2="648.7511"/><line style="stroke:#181818;stroke-width:0.5;" x1="393.96" x2="593.1221" y1="656.7511" y2="656.7511"/></g><!--class AIClient--><g class="entity" data-entity="AIClient" data-source-line="55" data-uid="ent0022" id="entity_AIClient"><rect fill="#F5F5F5" height="48" rx="2.5" ry="2.5" style="stroke:#181818;stroke-width:0.5;" width="85.1973" x="628.94" y="612.44"/><ellipse cx="643.94" cy="628.44" fill="#ADD1B2" rx="11" ry="11" style="stroke:#181818;stroke-width:1;"/><path d="M646.9131,634.0831 Q646.3321,634.3819 645.6929,634.5313 Q645.0538,634.6807 644.3482,634.6807 Q641.8414,634.6807 640.5215,633.0289 Q639.2017,631.377 639.2017,628.2559 Q639.2017,625.1265 640.5215,623.4747 Q641.8414,621.8228 644.3482,621.8228 Q645.0538,621.8228 645.7012,621.9722 Q646.3487,622.1216 646.9131,622.4205 L646.9131,625.1431 Q646.2823,624.5621 645.6888,624.2923 Q645.0953,624.0225 644.4644,624.0225 Q643.1197,624.0225 642.4349,625.0892 Q641.7501,626.1558 641.7501,628.2559 Q641.7501,630.3477 642.4349,631.4144 Q643.1197,632.481 644.4644,632.481 Q645.0953,632.481 645.6888,632.2112 Q646.2823,631.9415 646.9131,631.3604 Z " fill="#000000"/><text fill="#000000" font-family="sans-serif" font-size="14" lengthAdjust="spacing" textLength="53.1973" x="657.94" y="633.731">AIClient</text><line style="stroke:#181818;stroke-width:0.5;" x1="629.94" x2="713.1373" y1="644.44" y2="644.44"/><line style="stroke:#181818;stroke-width:0.5;" x1="629.94" x2="713.1373" y1="652.44" y2="652.44"/></g><!--reverse link MatchingService to BasicMatchingService--><g class="link" data-entity-1="MatchingService" data-entity-2="BasicMatchingService" data-source-line="23" data-uid="lnk8" id="link_MatchingService_BasicMatchingService"><path d="M386.54,347.73 C386.54,367.7 386.54,375.15 386.54,398.45" fill="none" id="MatchingService-backto-BasicMatchingService" style="stroke:#181818;stroke-width:1;stroke-dasharray:7,7;"/><polygon fill="none" points="386.54,329.73,380.54,347.73,392.54,347.73,386.54,329.73" style="stroke:#181818;stroke-width:1;"/></g><!--reverse link AIClient to OllamaAIClient--><g class="link" data-entity-1="AIClient" data-entity-2="OllamaAIClient" data-source-line="42" data-uid="lnk14" id="link_AIClient_OllamaAIClient"><path d="M1310.54,137.28 C1310.54,172.34 1310.54,220.84 1310.54,260.28" fill="none" id="AIClient-backto-OllamaAIClient" style="stroke:#181818;stroke-width:1;stroke-dasharray:7,7;"/><polygon fill="none" points="1310.54,119.28,1304.54,137.28,1316.54,137.28,1310.54,119.28" style="stroke:#181818;stroke-width:1;"/></g><!--link MatchingController to MatchingService--><g class="link" data-entity-1="MatchingController" data-entity-2="MatchingService" data-source-line="51" data-uid="lnk18" id="link_MatchingController_MatchingService"><path codeLine="51" d="M386.54,135.68 C386.54,170.89 386.54,215.9 386.54,249.94" fill="none" id="MatchingController-to-MatchingService" style="stroke:#181818;stroke-width:1;"/><polygon fill="#181818" points="386.54,255.94,390.54,246.94,386.54,250.94,382.54,246.94,386.54,255.94" style="stroke:#181818;stroke-width:1;"/><text fill="#000000" font-family="sans-serif" font-size="13" lengthAdjust="spacing" textLength="28.5645" x="387.54" y="193.6584">uses</text></g><!--link BasicMatchingService to VacancyRepository--><g class="link" data-entity-1="BasicMatchingService" data-entity-2="VacancyRepository" data-source-line="52" data-uid="lnk19" id="link_BasicMatchingService_VacancyRepository"><path codeLine="52" d="M272.7,529.62 C225.13,556.66 177.606,583.6747 140.456,604.7947" fill="none" id="BasicMatchingService-to-VacancyRepository" style="stroke:#181818;stroke-width:1;"/><polygon fill="#181818" points="135.24,607.76,145.0409,606.7893,139.5867,605.2889,141.0871,599.8347,135.24,607.76" style="stroke:#181818;stroke-width:1;"/><text fill="#000000" font-family="sans-serif" font-size="13" lengthAdjust="spacing" textLength="28.5645" x="210.67" y="574.6984">uses</text></g><!--link BasicMatchingService to ResumeRepository--><g class="link" data-entity-1="BasicMatchingService" data-entity-2="ResumeRepository" data-source-line="53" data-uid="lnk20" id="link_BasicMatchingService_ResumeRepository"><path codeLine="53" d="M346.09,529.38 C329.05,556.54 313.3097,581.6281 300.0097,602.8181" fill="none" id="BasicMatchingService-to-ResumeRepository" style="stroke:#181818;stroke-width:1;"/><polygon fill="#181818" points="296.82,607.9,304.9925,602.4036,299.4781,603.6651,298.2166,598.1507,296.82,607.9" style="stroke:#181818;stroke-width:1;"/><text fill="#000000" font-family="sans-serif" font-size="13" lengthAdjust="spacing" textLength="28.5645" x="324.46" y="574.6984">uses</text></g><!--link BasicMatchingService to VectorResumeRepository--><g class="link" data-entity-1="BasicMatchingService" data-entity-2="VectorResumeRepository" data-source-line="54" data-uid="lnk21" id="link_BasicMatchingService_VectorResumeRepository"><path codeLine="54" d="M427,529.38 C444.04,556.54 459.782,581.627 473.072,602.817" fill="none" id="BasicMatchingService-to-VectorResumeRepository" style="stroke:#181818;stroke-width:1;"/><polygon fill="#181818" points="476.26,607.9,474.8667,598.1502,473.6034,603.6642,468.0894,602.4008,476.26,607.9" style="stroke:#181818;stroke-width:1;"/><text fill="#000000" font-family="sans-serif" font-size="13" lengthAdjust="spacing" textLength="28.5645" x="456.88" y="574.6984">uses</text></g><!--link BasicMatchingService to AIClient--><g class="link" data-entity-1="BasicMatchingService" data-entity-2="AIClient" data-source-line="55" data-uid="lnk23" id="link_BasicMatchingService_AIClient"><path codeLine="55" d="M494.7,529.62 C543.04,558.55 591.8412,587.7494 627.2912,608.9594" fill="none" id="BasicMatchingService-to-AIClient" style="stroke:#181818;stroke-width:1;"/><polygon fill="#181818" points="632.44,612.04,626.7705,603.9866,628.1493,609.4729,622.6631,610.8517,632.44,612.04" style="stroke:#181818;stroke-width:1;"/><text fill="#000000" font-family="sans-serif" font-size="13" lengthAdjust="spacing" textLength="28.5645" x="572.22" y="574.6984">uses</text></g><!--SRC=[bLHDRzf04BtxLwoIGq49XqYDgaO82OoHaDgcWgYNgeTXFJYZx8UrkqQWAl-zQmncmKPkx8FjsJSpRz-yjNqZbOC1oM81raw0lsL65ogDjT26tSuUopkoDUodHq26IxSJo0no1oeJ64Lv5MStaDCD-ninV_6o9FiEZh-IocAjdD52e3aibzUWNbwYsH179i-_Q-GToz3jmMXx6-2W-6wUFh5lMcNtFcixbfwtgm9z_o3hXiVY2xIvLXP7-tBlKGkz8uGDXzENvz68tKuVal7iCI1xjw_jTsqBYVCqY2-TyINOkX3Y1yYGz5GNAw-KvThWeVbxeDQgiAJGse7G6V6ZSAGScZLuDIxL6GxdnxMIOl8mIP8lPnJNfD9bGGvysnXKIYcuZohcjIY4Qn5h0fRu9IUIkK29oja6tN3Gloe62yor9QVDZcrEaG2tsCiRm4mT2AjvwsdJm6uEuJFiU1uBylmOKFNIBLV_Yb4gPKgFQ0caoXdCPhElyUV_iidH32H9W26tMmQsk9XyJRfxvFvW97A5QUgLjps7Mp_Jof5-gckXmVt-q-8ze47PBZFWIAlpG_ii14YeEGGZhcFN6VHFpJwnPEl9An1UZpKQL1mjwpdDj7lrVmAfqqAWxKUdZJTzqgf0aD5mGLV25VEqfqKjFx31ODJm-XChBDgezOYK-EQ-kZ8Q13jRjE-hAwqUQGNy1m00]--></g></svg>