<svg xmlns="http://www.w3.org/2000/svg" xmlns:xlink="http://www.w3.org/1999/xlink" contentStyleType="text/css" data-diagram-type="CLASS" height="344px" preserveAspectRatio="none" style="width:2680px;height:344px;background:#FFFFFF;" version="1.1" viewBox="0 0 2680 344" width="2680px" zoomAndPan="magnify"><defs/><g><!--cluster api--><g class="cluster" data-entity="api" data-source-line="5" data-uid="ent0002" id="cluster_api"><rect fill="none" height="323.31" rx="2.5" ry="2.5" style="stroke:#000000;stroke-width:1.5;" width="646" x="7" y="11.31"/><text fill="#000000" font-family="sans-serif" font-size="14" font-weight="bold" lengthAdjust="spacing" textLength="22.0596" x="318.9702" y="26.8452">api</text></g><!--cluster business-logic--><g class="cluster" data-entity="business-logic" data-source-line="20" data-uid="ent0006" id="cluster_business-logic"><rect fill="none" height="331.55" rx="2.5" ry="2.5" style="stroke:#000000;stroke-width:1.5;" width="1510" x="677" y="7"/><text fill="#000000" font-family="sans-serif" font-size="14" font-weight="bold" lengthAdjust="spacing" textLength="107.8438" x="1378.0781" y="22.5352">business-logic</text></g><!--cluster data-access--><g class="cluster" data-entity="data-access" data-source-line="69" data-uid="ent0017" id="cluster_data-access"><rect fill="none" height="99" rx="2.5" ry="2.5" style="stroke:#000000;stroke-width:1.5;" width="463" x="2211" y="36.04"/><text fill="#000000" font-family="sans-serif" font-size="14" font-weight="bold" lengthAdjust="spacing" textLength="87.5205" x="2398.7397" y="51.5752">data-access</text></g><!--class ResumeController--><g class="entity" data-entity="ResumeController" data-source-line="6" data-uid="ent0003" id="entity_ResumeController"><rect fill="#F5F5F5" height="97.4648" rx="2.5" ry="2.5" style="stroke:#181818;stroke-width:0.5;" width="386.459" x="250.77" y="46.31"/><ellipse cx="378.9951" cy="62.31" fill="#ADD1B2" rx="11" ry="11" style="stroke:#181818;stroke-width:1;"/><path d="M381.9682,67.9531 Q381.3872,68.2519 380.748,68.4013 Q380.1089,68.5507 379.4033,68.5507 Q376.8965,68.5507 375.5766,66.8989 Q374.2568,65.247 374.2568,62.1259 Q374.2568,58.9965 375.5766,57.3447 Q376.8965,55.6928 379.4033,55.6928 Q380.1089,55.6928 380.7563,55.8422 Q381.4038,55.9916 381.9682,56.2905 L381.9682,59.0131 Q381.3374,58.4321 380.7439,58.1623 Q380.1504,57.8925 379.5195,57.8925 Q378.1748,57.8925 377.49,58.9592 Q376.8052,60.0258 376.8052,62.1259 Q376.8052,64.2177 377.49,65.2844 Q378.1748,66.351 379.5195,66.351 Q380.1504,66.351 380.7439,66.0812 Q381.3374,65.8115 381.9682,65.2304 Z " fill="#000000"/><text fill="#000000" font-family="sans-serif" font-size="14" lengthAdjust="spacing" textLength="121.5088" x="399.4951" y="67.601">ResumeController</text><line style="stroke:#181818;stroke-width:0.5;" x1="251.77" x2="636.229" y1="78.31" y2="78.31"/><rect fill="none" height="6" style="stroke:#C82930;stroke-width:1;" width="6" x="258.77" y="89.0541"/><text fill="#000000" font-family="sans-serif" font-size="14" lengthAdjust="spacing" textLength="202.665" x="270.77" y="95.8452">ResumeService resumeService</text><rect fill="none" height="6" style="stroke:#C82930;stroke-width:1;" width="6" x="258.77" y="105.5424"/><text fill="#000000" font-family="sans-serif" font-size="14" lengthAdjust="spacing" textLength="202.7676" x="270.77" y="112.3334">ResumeApiMapper apiMapper</text><line style="stroke:#181818;stroke-width:0.5;" x1="251.77" x2="636.229" y1="119.2866" y2="119.2866"/><ellipse cx="261.77" cy="133.0307" fill="#84BE84" rx="3" ry="3" style="stroke:#038048;stroke-width:1;"/><text fill="#000000" font-family="sans-serif" font-size="14" lengthAdjust="spacing" textLength="360.459" x="270.77" y="136.8217">create(req: ResumeCreateRequest): ResumeResponse</text></g><!--class ResumeApiMapper--><g class="entity" data-entity="ResumeApiMapper" data-source-line="12" data-uid="ent0004" id="entity_ResumeApiMapper"><rect fill="#E1BEE7" height="89.5977" rx="2.5" ry="2.5" style="stroke:#181818;stroke-width:0.5;" width="346.9336" x="146.53" y="229.02"/><ellipse cx="252.3435" cy="249.3305" fill="#B4A7E5" rx="11" ry="11" style="stroke:#181818;stroke-width:1;"/><path d="M248.2712,245.0957 L248.2712,242.9375 L255.6506,242.9375 L255.6506,245.0957 L253.1853,245.0957 L253.1853,253.1723 L255.6506,253.1723 L255.6506,255.3305 L248.2712,255.3305 L248.2712,253.1723 L250.7365,253.1723 L250.7365,245.0957 Z " fill="#000000"/><text fill="#000000" font-family="sans-serif" font-size="12" font-style="italic" lengthAdjust="spacing" textLength="63.4336" x="304.53" y="245.6216">&#171;Interface&#187;</text><text fill="#000000" font-family="sans-serif" font-size="14" font-style="italic" lengthAdjust="spacing" textLength="126.8066" x="272.8435" y="261.688">ResumeApiMapper</text><line style="stroke:#181818;stroke-width:0.5;" x1="147.53" x2="492.4636" y1="269.6411" y2="269.6411"/><line style="stroke:#181818;stroke-width:0.5;" x1="147.53" x2="492.4636" y1="277.6411" y2="277.6411"/><ellipse cx="157.53" cy="291.3852" fill="#84BE84" rx="3" ry="3" style="stroke:#038048;stroke-width:1;"/><text fill="#000000" font-family="sans-serif" font-size="14" lengthAdjust="spacing" textLength="320.9336" x="166.53" y="295.1763">toDomain(dto: ResumeCreateRequest): Resume</text><ellipse cx="157.53" cy="307.8735" fill="#84BE84" rx="3" ry="3" style="stroke:#038048;stroke-width:1;"/><text fill="#000000" font-family="sans-serif" font-size="14" lengthAdjust="spacing" textLength="282.7344" x="166.53" y="311.6645">toResponse(r: Resume): ResumeResponse</text></g><!--class BasicResumeApiMapper--><g class="entity" data-entity="BasicResumeApiMapper" data-source-line="17" data-uid="ent0005" id="entity_BasicResumeApiMapper"><rect fill="#F5F5F5" height="48" rx="2.5" ry="2.5" style="stroke:#181818;stroke-width:0.5;" width="192.9453" x="22.53" y="71.04"/><ellipse cx="37.53" cy="87.04" fill="#ADD1B2" rx="11" ry="11" style="stroke:#181818;stroke-width:1;"/><path d="M40.5031,92.6831 Q39.9221,92.9819 39.2829,93.1313 Q38.6438,93.2807 37.9382,93.2807 Q35.4314,93.2807 34.1115,91.6289 Q32.7917,89.977 32.7917,86.8559 Q32.7917,83.7265 34.1115,82.0747 Q35.4314,80.4228 37.9382,80.4228 Q38.6438,80.4228 39.2912,80.5722 Q39.9387,80.7216 40.5031,81.0205 L40.5031,83.7431 Q39.8723,83.1621 39.2788,82.8923 Q38.6853,82.6225 38.0544,82.6225 Q36.7097,82.6225 36.0249,83.6892 Q35.3401,84.7558 35.3401,86.8559 Q35.3401,88.9477 36.0249,90.0144 Q36.7097,91.081 38.0544,91.081 Q38.6853,91.081 39.2788,90.8112 Q39.8723,90.5415 40.5031,89.9604 Z " fill="#000000"/><text fill="#000000" font-family="sans-serif" font-size="14" lengthAdjust="spacing" textLength="160.9453" x="51.53" y="92.331">BasicResumeApiMapper</text><line style="stroke:#181818;stroke-width:0.5;" x1="23.53" x2="214.4753" y1="103.04" y2="103.04"/><line style="stroke:#181818;stroke-width:0.5;" x1="23.53" x2="214.4753" y1="111.04" y2="111.04"/></g><!--class ResumeService--><g class="entity" data-entity="ResumeService" data-source-line="21" data-uid="ent0007" id="entity_ResumeService"><rect fill="#E1BEE7" height="73.1094" rx="2.5" ry="2.5" style="stroke:#181818;stroke-width:0.5;" width="260.0625" x="692.97" y="237.26"/><ellipse cx="768.4114" cy="257.5705" fill="#B4A7E5" rx="11" ry="11" style="stroke:#181818;stroke-width:1;"/><path d="M764.3391,253.3357 L764.3391,251.1775 L771.7185,251.1775 L771.7185,253.3357 L769.2532,253.3357 L769.2532,261.4123 L771.7185,261.4123 L771.7185,263.5705 L764.3391,263.5705 L764.3391,261.4123 L766.8045,261.4123 L766.8045,253.3357 Z " fill="#000000"/><text fill="#000000" font-family="sans-serif" font-size="12" font-style="italic" lengthAdjust="spacing" textLength="63.4336" x="807.5345" y="253.8616">&#171;Interface&#187;</text><text fill="#000000" font-family="sans-serif" font-size="14" font-style="italic" lengthAdjust="spacing" textLength="100.6797" x="788.9114" y="269.928">ResumeService</text><line style="stroke:#181818;stroke-width:0.5;" x1="693.97" x2="952.0325" y1="277.8811" y2="277.8811"/><line style="stroke:#181818;stroke-width:0.5;" x1="693.97" x2="952.0325" y1="285.8811" y2="285.8811"/><ellipse cx="703.97" cy="299.6252" fill="#84BE84" rx="3" ry="3" style="stroke:#038048;stroke-width:1;"/><text fill="#000000" font-family="sans-serif" font-size="14" lengthAdjust="spacing" textLength="234.0625" x="712.97" y="303.4163">createResume(r: Resume): Resume</text></g><!--class BasicResumeService--><g class="entity" data-entity="BasicResumeService" data-source-line="25" data-uid="ent0008" id="entity_BasicResumeService"><rect fill="#F5F5F5" height="64.4883" rx="2.5" ry="2.5" style="stroke:#181818;stroke-width:0.5;" width="270.5762" x="741.71" y="62.8"/><ellipse cx="805.3389" cy="78.8" fill="#ADD1B2" rx="11" ry="11" style="stroke:#181818;stroke-width:1;"/><path d="M808.3121,84.4431 Q807.731,84.7419 807.0918,84.8913 Q806.4527,85.0407 805.7471,85.0407 Q803.2403,85.0407 801.9204,83.3889 Q800.6006,81.737 800.6006,78.6159 Q800.6006,75.4865 801.9204,73.8347 Q803.2403,72.1828 805.7471,72.1828 Q806.4527,72.1828 807.1001,72.3322 Q807.7476,72.4816 808.3121,72.7805 L808.3121,75.5031 Q807.6812,74.9221 807.0877,74.6523 Q806.4942,74.3825 805.8633,74.3825 Q804.5186,74.3825 803.8338,75.4492 Q803.149,76.5158 803.149,78.6159 Q803.149,80.7077 803.8338,81.7744 Q804.5186,82.841 805.8633,82.841 Q806.4942,82.841 807.0877,82.5712 Q807.6812,82.3015 808.3121,81.7204 Z " fill="#000000"/><text fill="#000000" font-family="sans-serif" font-size="14" lengthAdjust="spacing" textLength="134.8184" x="825.8389" y="84.091">BasicResumeService</text><line style="stroke:#181818;stroke-width:0.5;" x1="742.71" x2="1011.2862" y1="94.8" y2="94.8"/><rect fill="none" height="6" style="stroke:#C82930;stroke-width:1;" width="6" x="749.71" y="105.5441"/><text fill="#000000" font-family="sans-serif" font-size="14" lengthAdjust="spacing" textLength="244.5762" x="761.71" y="112.3352">ResumeSaveHandler saveChainHead</text><line style="stroke:#181818;stroke-width:0.5;" x1="742.71" x2="1011.2862" y1="119.2883" y2="119.2883"/></g><!--class Resume--><g class="entity" data-entity="Resume" data-source-line="29" data-uid="ent0009" id="entity_Resume"><rect fill="#FFF9C4" height="106.0859" rx="2.5" ry="2.5" style="stroke:#181818;stroke-width:0.5;" width="151.1934" x="1072.4" y="42"/><ellipse cx="1116.9068" cy="62.3105" fill="#ADD1B2" rx="11" ry="11" style="stroke:#181818;stroke-width:1;"/><path d="M1119.88,67.9536 Q1119.2989,68.2524 1118.6598,68.4019 Q1118.0206,68.5513 1117.315,68.5513 Q1114.8082,68.5513 1113.4884,66.8994 Q1112.1686,65.2476 1112.1686,62.1265 Q1112.1686,58.9971 1113.4884,57.3452 Q1114.8082,55.6934 1117.315,55.6934 Q1118.0206,55.6934 1118.6681,55.8428 Q1119.3155,55.9922 1119.88,56.291 L1119.88,59.0137 Q1119.2491,58.4326 1118.6556,58.1628 Q1118.0621,57.8931 1117.4313,57.8931 Q1116.0865,57.8931 1115.4017,58.9597 Q1114.7169,60.0264 1114.7169,62.1265 Q1114.7169,64.2183 1115.4017,65.2849 Q1116.0865,66.3516 1117.4313,66.3516 Q1118.0621,66.3516 1118.6556,66.0818 Q1119.2491,65.812 1119.88,65.231 Z " fill="#000000"/><text fill="#000000" font-family="sans-serif" font-size="12" font-style="italic" lengthAdjust="spacing" textLength="57.6797" x="1135.4068" y="58.6016">&#171;Domain&#187;</text><text fill="#000000" font-family="sans-serif" font-size="14" lengthAdjust="spacing" textLength="53.3477" x="1137.5729" y="74.668">Resume</text><line style="stroke:#181818;stroke-width:0.5;" x1="1073.4" x2="1222.5934" y1="82.6211" y2="82.6211"/><ellipse cx="1083.4" cy="96.3652" fill="none" rx="3" ry="3" style="stroke:#038048;stroke-width:1;"/><text fill="#000000" font-family="sans-serif" font-size="14" lengthAdjust="spacing" textLength="50.7705" x="1092.4" y="100.1563">Long id</text><ellipse cx="1083.4" cy="112.8535" fill="none" rx="3" ry="3" style="stroke:#038048;stroke-width:1;"/><text fill="#000000" font-family="sans-serif" font-size="14" lengthAdjust="spacing" textLength="125.1934" x="1092.4" y="116.6445">String textContent</text><ellipse cx="1083.4" cy="129.3418" fill="none" rx="3" ry="3" style="stroke:#038048;stroke-width:1;"/><text fill="#000000" font-family="sans-serif" font-size="14" lengthAdjust="spacing" textLength="86.0781" x="1092.4" y="133.1328">float[] vector</text><line style="stroke:#181818;stroke-width:0.5;" x1="1073.4" x2="1222.5934" y1="140.0859" y2="140.0859"/></g><!--class ResumeSaveHandler--><g class="entity" data-entity="ResumeSaveHandler" data-source-line="35" data-uid="ent0010" id="entity_ResumeSaveHandler"><rect fill="#F5F5F5" height="97.4648" rx="2.5" ry="2.5" style="stroke:#181818;stroke-width:0.5;" width="387.1699" x="1287.42" y="225.09"/><ellipse cx="1408.3751" cy="241.09" fill="#A9DCDF" rx="11" ry="11" style="stroke:#181818;stroke-width:1;"/><path d="M1408.4884,236.4381 L1407.3346,241.5099 L1409.6505,241.5099 Z M1406.9942,234.1969 L1409.9908,234.1969 L1413.336,246.59 L1410.8873,246.59 L1410.1236,243.527 L1406.8448,243.527 L1406.0977,246.59 L1403.649,246.59 Z " fill="#000000"/><text fill="#000000" font-family="sans-serif" font-size="14" font-style="italic" lengthAdjust="spacing" textLength="136.7598" x="1428.8751" y="246.381">ResumeSaveHandler</text><line style="stroke:#181818;stroke-width:0.5;" x1="1288.42" x2="1673.5899" y1="257.09" y2="257.09"/><rect fill="none" height="6" style="stroke:#C82930;stroke-width:1;" width="6" x="1295.42" y="267.8341"/><text fill="#000000" font-family="sans-serif" font-size="14" lengthAdjust="spacing" textLength="171.5" x="1307.42" y="274.6252">ResumeSaveHandler next</text><line style="stroke:#181818;stroke-width:0.5;" x1="1288.42" x2="1673.5899" y1="281.5783" y2="281.5783"/><ellipse cx="1298.42" cy="295.3224" fill="#84BE84" rx="3" ry="3" style="stroke:#038048;stroke-width:1;"/><text fill="#000000" font-family="sans-serif" font-size="14" lengthAdjust="spacing" textLength="361.1699" x="1307.42" y="299.1134">setNext(h: ResumeSaveHandler): ResumeSaveHandler</text><ellipse cx="1298.42" cy="311.8107" fill="#84BE84" rx="3" ry="3" style="stroke:#038048;stroke-width:1;"/><text fill="#000000" font-family="sans-serif" font-size="14" font-style="italic" lengthAdjust="spacing" textLength="185.0146" x="1307.42" y="315.6017">handle(r: Resume): Resume</text></g><!--class SqlSaveHandler--><g class="entity" data-entity="SqlSaveHandler" data-source-line="41" data-uid="ent0011" id="entity_SqlSaveHandler"><rect fill="#F5F5F5" height="80.9766" rx="2.5" ry="2.5" style="stroke:#181818;stroke-width:0.5;" width="291.6855" x="1523.16" y="54.55"/><ellipse cx="1612.8475" cy="70.55" fill="#ADD1B2" rx="11" ry="11" style="stroke:#181818;stroke-width:1;"/><path d="M1615.8206,76.1931 Q1615.2396,76.4919 1614.6004,76.6413 Q1613.9613,76.7907 1613.2557,76.7907 Q1610.7489,76.7907 1609.429,75.1389 Q1608.1092,73.487 1608.1092,70.3659 Q1608.1092,67.2365 1609.429,65.5847 Q1610.7489,63.9328 1613.2557,63.9328 Q1613.9613,63.9328 1614.6087,64.0822 Q1615.2562,64.2316 1615.8206,64.5305 L1615.8206,67.2531 Q1615.1898,66.6721 1614.5963,66.4023 Q1614.0028,66.1325 1613.3719,66.1325 Q1612.0272,66.1325 1611.3424,67.1992 Q1610.6576,68.2658 1610.6576,70.3659 Q1610.6576,72.4577 1611.3424,73.5244 Q1612.0272,74.591 1613.3719,74.591 Q1614.0028,74.591 1614.5963,74.3212 Q1615.1898,74.0515 1615.8206,73.4704 Z " fill="#000000"/><text fill="#000000" font-family="sans-serif" font-size="14" lengthAdjust="spacing" textLength="103.8105" x="1633.3475" y="75.841">SqlSaveHandler</text><line style="stroke:#181818;stroke-width:0.5;" x1="1524.16" x2="1813.8455" y1="86.55" y2="86.55"/><rect fill="none" height="6" style="stroke:#C82930;stroke-width:1;" width="6" x="1531.16" y="97.2941"/><text fill="#000000" font-family="sans-serif" font-size="14" lengthAdjust="spacing" textLength="265.6855" x="1543.16" y="104.0852">RelationalResumeRepository repository</text><line style="stroke:#181818;stroke-width:0.5;" x1="1524.16" x2="1813.8455" y1="111.0383" y2="111.0383"/><ellipse cx="1534.16" cy="124.7824" fill="#84BE84" rx="3" ry="3" style="stroke:#038048;stroke-width:1;"/><text fill="#000000" font-family="sans-serif" font-size="14" lengthAdjust="spacing" textLength="185.0146" x="1543.16" y="128.5734">handle(r: Resume): Resume</text></g><!--class AiEmbeddingHandler--><g class="entity" data-entity="AiEmbeddingHandler" data-source-line="46" data-uid="ent0012" id="entity_AiEmbeddingHandler"><rect fill="#F5F5F5" height="80.9766" rx="2.5" ry="2.5" style="stroke:#181818;stroke-width:0.5;" width="211.0146" x="1270.49" y="54.55"/><ellipse cx="1301.6254" cy="70.55" fill="#ADD1B2" rx="11" ry="11" style="stroke:#181818;stroke-width:1;"/><path d="M1304.5985,76.1931 Q1304.0175,76.4919 1303.3783,76.6413 Q1302.7392,76.7907 1302.0336,76.7907 Q1299.5268,76.7907 1298.2069,75.1389 Q1296.8871,73.487 1296.8871,70.3659 Q1296.8871,67.2365 1298.2069,65.5847 Q1299.5268,63.9328 1302.0336,63.9328 Q1302.7392,63.9328 1303.3866,64.0822 Q1304.0341,64.2316 1304.5985,64.5305 L1304.5985,67.2531 Q1303.9677,66.6721 1303.3742,66.4023 Q1302.7807,66.1325 1302.1498,66.1325 Q1300.8051,66.1325 1300.1203,67.1992 Q1299.4355,68.2658 1299.4355,70.3659 Q1299.4355,72.4577 1300.1203,73.5244 Q1300.8051,74.591 1302.1498,74.591 Q1302.7807,74.591 1303.3742,74.3212 Q1303.9677,74.0515 1304.5985,73.4704 Z " fill="#000000"/><text fill="#000000" font-family="sans-serif" font-size="14" lengthAdjust="spacing" textLength="143.1582" x="1319.211" y="75.841">AiEmbeddingHandler</text><line style="stroke:#181818;stroke-width:0.5;" x1="1271.49" x2="1480.5046" y1="86.55" y2="86.55"/><rect fill="none" height="6" style="stroke:#C82930;stroke-width:1;" width="6" x="1278.49" y="97.2941"/><text fill="#000000" font-family="sans-serif" font-size="14" lengthAdjust="spacing" textLength="108.9102" x="1290.49" y="104.0852">AIClient aiClient</text><line style="stroke:#181818;stroke-width:0.5;" x1="1271.49" x2="1480.5046" y1="111.0383" y2="111.0383"/><ellipse cx="1281.49" cy="124.7824" fill="#84BE84" rx="3" ry="3" style="stroke:#038048;stroke-width:1;"/><text fill="#000000" font-family="sans-serif" font-size="14" lengthAdjust="spacing" textLength="185.0146" x="1290.49" y="128.5734">handle(r: Resume): Resume</text></g><!--class VectorSaveHandler--><g class="entity" data-entity="VectorSaveHandler" data-source-line="51" data-uid="ent0013" id="entity_VectorSaveHandler"><rect fill="#F5F5F5" height="80.9766" rx="2.5" ry="2.5" style="stroke:#181818;stroke-width:0.5;" width="313.499" x="1853.25" y="54.55"/><ellipse cx="1942.1992" cy="70.55" fill="#ADD1B2" rx="11" ry="11" style="stroke:#181818;stroke-width:1;"/><path d="M1945.1724,76.1931 Q1944.5913,76.4919 1943.9521,76.6413 Q1943.313,76.7907 1942.6074,76.7907 Q1940.1006,76.7907 1938.7808,75.1389 Q1937.4609,73.487 1937.4609,70.3659 Q1937.4609,67.2365 1938.7808,65.5847 Q1940.1006,63.9328 1942.6074,63.9328 Q1943.313,63.9328 1943.9604,64.0822 Q1944.6079,64.2316 1945.1724,64.5305 L1945.1724,67.2531 Q1944.5415,66.6721 1943.948,66.4023 Q1943.3545,66.1325 1942.7236,66.1325 Q1941.3789,66.1325 1940.6941,67.1992 Q1940.0093,68.2658 1940.0093,70.3659 Q1940.0093,72.4577 1940.6941,73.5244 Q1941.3789,74.591 1942.7236,74.591 Q1943.3545,74.591 1943.948,74.3212 Q1944.5415,74.0515 1945.1724,73.4704 Z " fill="#000000"/><text fill="#000000" font-family="sans-serif" font-size="14" lengthAdjust="spacing" textLength="127.1006" x="1962.6992" y="75.841">VectorSaveHandler</text><line style="stroke:#181818;stroke-width:0.5;" x1="1854.25" x2="2165.749" y1="86.55" y2="86.55"/><rect fill="none" height="6" style="stroke:#C82930;stroke-width:1;" width="6" x="1861.25" y="97.2941"/><text fill="#000000" font-family="sans-serif" font-size="14" lengthAdjust="spacing" textLength="287.499" x="1873.25" y="104.0852">VectorResumeRepository vectorRepository</text><line style="stroke:#181818;stroke-width:0.5;" x1="1854.25" x2="2165.749" y1="111.0383" y2="111.0383"/><ellipse cx="1864.25" cy="124.7824" fill="#84BE84" rx="3" ry="3" style="stroke:#038048;stroke-width:1;"/><text fill="#000000" font-family="sans-serif" font-size="14" lengthAdjust="spacing" textLength="185.0146" x="1873.25" y="128.5734">handle(r: Resume): Resume</text></g><!--class AIClient--><g class="entity" data-entity="AIClient" data-source-line="56" data-uid="ent0014" id="entity_AIClient"><rect fill="#E1BEE7" height="73.1094" rx="2.5" ry="2.5" style="stroke:#181818;stroke-width:0.5;" width="264.7793" x="987.61" y="237.26"/><ellipse cx="1086.0329" cy="257.5705" fill="#B4A7E5" rx="11" ry="11" style="stroke:#181818;stroke-width:1;"/><path d="M1081.9606,253.3357 L1081.9606,251.1775 L1089.34,251.1775 L1089.34,253.3357 L1086.8746,253.3357 L1086.8746,261.4123 L1089.34,261.4123 L1089.34,263.5705 L1081.9606,263.5705 L1081.9606,261.4123 L1084.4259,261.4123 L1084.4259,253.3357 Z " fill="#000000"/><text fill="#000000" font-family="sans-serif" font-size="12" font-style="italic" lengthAdjust="spacing" textLength="63.4336" x="1104.5329" y="253.8616">&#171;Interface&#187;</text><text fill="#000000" font-family="sans-serif" font-size="14" font-style="italic" lengthAdjust="spacing" textLength="53.1973" x="1109.651" y="269.928">AIClient</text><line style="stroke:#181818;stroke-width:0.5;" x1="988.61" x2="1251.3893" y1="277.8811" y2="277.8811"/><line style="stroke:#181818;stroke-width:0.5;" x1="988.61" x2="1251.3893" y1="285.8811" y2="285.8811"/><ellipse cx="998.61" cy="299.6252" fill="#84BE84" rx="3" ry="3" style="stroke:#038048;stroke-width:1;"/><text fill="#000000" font-family="sans-serif" font-size="14" lengthAdjust="spacing" textLength="238.7793" x="1007.61" y="303.4163">getEmbeddings(text: String): float[]</text></g><!--class RelationalResumeRepository--><g class="entity" data-entity="RelationalResumeRepository" data-source-line="60" data-uid="ent0015" id="entity_RelationalResumeRepository"><rect fill="#E1BEE7" height="73.1094" rx="2.5" ry="2.5" style="stroke:#181818;stroke-width:0.5;" width="224.2539" x="1709.87" y="237.26"/><ellipse cx="1724.87" cy="257.5705" fill="#B4A7E5" rx="11" ry="11" style="stroke:#181818;stroke-width:1;"/><path d="M1720.7977,253.3357 L1720.7977,251.1775 L1728.1771,251.1775 L1728.1771,253.3357 L1725.7118,253.3357 L1725.7118,261.4123 L1728.1771,261.4123 L1728.1771,263.5705 L1720.7977,263.5705 L1720.7977,261.4123 L1723.2631,261.4123 L1723.2631,253.3357 Z " fill="#000000"/><text fill="#000000" font-family="sans-serif" font-size="12" font-style="italic" lengthAdjust="spacing" textLength="63.4336" x="1803.2802" y="253.8616">&#171;Interface&#187;</text><text fill="#000000" font-family="sans-serif" font-size="14" font-style="italic" lengthAdjust="spacing" textLength="192.2539" x="1738.87" y="269.928">RelationalResumeRepository</text><line style="stroke:#181818;stroke-width:0.5;" x1="1710.87" x2="1933.1239" y1="277.8811" y2="277.8811"/><line style="stroke:#181818;stroke-width:0.5;" x1="1710.87" x2="1933.1239" y1="285.8811" y2="285.8811"/><ellipse cx="1720.87" cy="299.6252" fill="#84BE84" rx="3" ry="3" style="stroke:#038048;stroke-width:1;"/><text fill="#000000" font-family="sans-serif" font-size="14" lengthAdjust="spacing" textLength="169.1621" x="1729.87" y="303.4163">save(r: Resume): Resume</text></g><!--class VectorResumeRepository--><g class="entity" data-entity="VectorResumeRepository" data-source-line="64" data-uid="ent0016" id="entity_VectorResumeRepository"><rect fill="#E1BEE7" height="73.1094" rx="2.5" ry="2.5" style="stroke:#181818;stroke-width:0.5;" width="201.1621" x="1969.42" y="237.26"/><ellipse cx="1984.42" cy="257.5705" fill="#B4A7E5" rx="11" ry="11" style="stroke:#181818;stroke-width:1;"/><path d="M1980.3477,253.3357 L1980.3477,251.1775 L1987.7271,251.1775 L1987.7271,253.3357 L1985.2618,253.3357 L1985.2618,261.4123 L1987.7271,261.4123 L1987.7271,263.5705 L1980.3477,263.5705 L1980.3477,261.4123 L1982.8131,261.4123 L1982.8131,253.3357 Z " fill="#000000"/><text fill="#000000" font-family="sans-serif" font-size="12" font-style="italic" lengthAdjust="spacing" textLength="63.4336" x="2051.2843" y="253.8616">&#171;Interface&#187;</text><text fill="#000000" font-family="sans-serif" font-size="14" font-style="italic" lengthAdjust="spacing" textLength="169.1621" x="1998.42" y="269.928">VectorResumeRepository</text><line style="stroke:#181818;stroke-width:0.5;" x1="1970.42" x2="2169.5821" y1="277.8811" y2="277.8811"/><line style="stroke:#181818;stroke-width:0.5;" x1="1970.42" x2="2169.5821" y1="285.8811" y2="285.8811"/><ellipse cx="1980.42" cy="299.6252" fill="#84BE84" rx="3" ry="3" style="stroke:#038048;stroke-width:1;"/><text fill="#000000" font-family="sans-serif" font-size="14" lengthAdjust="spacing" textLength="169.1621" x="1989.42" y="303.4163">save(r: Resume): Resume</text></g><!--class BasicResumeRepository--><g class="entity" data-entity="BasicResumeRepository" data-source-line="70" data-uid="ent0018" id="entity_BasicResumeRepository"><rect fill="#F5F5F5" height="48" rx="2.5" ry="2.5" style="stroke:#181818;stroke-width:0.5;" width="191.6123" x="2227.19" y="71.04"/><ellipse cx="2242.19" cy="87.04" fill="#ADD1B2" rx="11" ry="11" style="stroke:#181818;stroke-width:1;"/><path d="M2245.1631,92.6831 Q2244.5821,92.9819 2243.9429,93.1313 Q2243.3038,93.2807 2242.5982,93.2807 Q2240.0914,93.2807 2238.7715,91.6289 Q2237.4517,89.977 2237.4517,86.8559 Q2237.4517,83.7265 2238.7715,82.0747 Q2240.0914,80.4228 2242.5982,80.4228 Q2243.3038,80.4228 2243.9512,80.5722 Q2244.5987,80.7216 2245.1631,81.0205 L2245.1631,83.7431 Q2244.5323,83.1621 2243.9388,82.8923 Q2243.3453,82.6225 2242.7144,82.6225 Q2241.3697,82.6225 2240.6849,83.6892 Q2240.0001,84.7558 2240.0001,86.8559 Q2240.0001,88.9477 2240.6849,90.0144 Q2241.3697,91.081 2242.7144,91.081 Q2243.3453,91.081 2243.9388,90.8112 Q2244.5323,90.5415 2245.1631,89.9604 Z " fill="#000000"/><text fill="#000000" font-family="sans-serif" font-size="14" lengthAdjust="spacing" textLength="159.6123" x="2256.19" y="92.331">BasicResumeRepository</text><line style="stroke:#181818;stroke-width:0.5;" x1="2228.19" x2="2417.8023" y1="103.04" y2="103.04"/><line style="stroke:#181818;stroke-width:0.5;" x1="2228.19" x2="2417.8023" y1="111.04" y2="111.04"/></g><!--class QdrantResumeRepository--><g class="entity" data-entity="QdrantResumeRepository" data-source-line="71" data-uid="ent0019" id="entity_QdrantResumeRepository"><rect fill="#F5F5F5" height="48" rx="2.5" ry="2.5" style="stroke:#181818;stroke-width:0.5;" width="204.5459" x="2453.73" y="71.04"/><ellipse cx="2468.73" cy="87.04" fill="#ADD1B2" rx="11" ry="11" style="stroke:#181818;stroke-width:1;"/><path d="M2471.7031,92.6831 Q2471.1221,92.9819 2470.4829,93.1313 Q2469.8438,93.2807 2469.1382,93.2807 Q2466.6314,93.2807 2465.3115,91.6289 Q2463.9917,89.977 2463.9917,86.8559 Q2463.9917,83.7265 2465.3115,82.0747 Q2466.6314,80.4228 2469.1382,80.4228 Q2469.8438,80.4228 2470.4912,80.5722 Q2471.1387,80.7216 2471.7031,81.0205 L2471.7031,83.7431 Q2471.0723,83.1621 2470.4788,82.8923 Q2469.8853,82.6225 2469.2544,82.6225 Q2467.9097,82.6225 2467.2249,83.6892 Q2466.5401,84.7558 2466.5401,86.8559 Q2466.5401,88.9477 2467.2249,90.0144 Q2467.9097,91.081 2469.2544,91.081 Q2469.8853,91.081 2470.4788,90.8112 Q2471.0723,90.5415 2471.7031,89.9604 Z " fill="#000000"/><text fill="#000000" font-family="sans-serif" font-size="14" lengthAdjust="spacing" textLength="172.5459" x="2482.73" y="92.331">QdrantResumeRepository</text><line style="stroke:#181818;stroke-width:0.5;" x1="2454.73" x2="2657.2759" y1="103.04" y2="103.04"/><line style="stroke:#181818;stroke-width:0.5;" x1="2454.73" x2="2657.2759" y1="111.04" y2="111.04"/></g><!--link ResumeController to ResumeService--><g class="link" data-entity-1="ResumeController" data-entity-2="ResumeService" data-source-line="74" data-uid="lnk20" id="link_ResumeController_ResumeService"><path codeLine="74" d="M547.06,144.11 C609.75,173.35 683.0724,207.5538 740.3824,234.2838" fill="none" id="ResumeController-to-ResumeService" style="stroke:#181818;stroke-width:1;"/><polygon fill="#181818" points="745.82,236.82,739.3543,229.3907,741.2886,234.7065,735.9728,236.6408,745.82,236.82" style="stroke:#181818;stroke-width:1;"/><text fill="#000000" font-family="sans-serif" font-size="13" lengthAdjust="spacing" textLength="28.5645" x="657.19" y="191.6584">uses</text></g><!--link ResumeController to ResumeApiMapper--><g class="link" data-entity-1="ResumeController" data-entity-2="ResumeApiMapper" data-source-line="75" data-uid="lnk21" id="link_ResumeController_ResumeApiMapper"><path codeLine="75" d="M410.44,143.88 C391.94,170.26 372.5655,197.8779 354.4755,223.6679" fill="none" id="ResumeController-to-ResumeApiMapper" style="stroke:#181818;stroke-width:1;"/><polygon fill="#181818" points="351.03,228.58,359.473,223.5089,353.9013,224.4866,352.9235,218.9149,351.03,228.58" style="stroke:#181818;stroke-width:1;"/><text fill="#000000" font-family="sans-serif" font-size="13" lengthAdjust="spacing" textLength="28.5645" x="386.72" y="191.6584">uses</text></g><!--link BasicResumeApiMapper to ResumeApiMapper--><g class="link" data-entity-1="BasicResumeApiMapper" data-entity-2="ResumeApiMapper" data-source-line="76" data-uid="lnk22" id="link_BasicResumeApiMapper_ResumeApiMapper"><path codeLine="76" d="M145.69,119.52 C177.3,147.32 217.1043,182.3219 256.4643,216.9419" fill="none" id="BasicResumeApiMapper-to-ResumeApiMapper" style="stroke:#181818;stroke-width:1;stroke-dasharray:7,7;"/><polygon fill="none" points="269.98,228.83,260.427,212.4367,252.5016,221.4472,269.98,228.83" style="stroke:#181818;stroke-width:1;"/><text fill="#000000" font-family="sans-serif" font-size="13" lengthAdjust="spacing" textLength="74.0137" x="232.53" y="191.6584">implements</text></g><!--link BasicResumeService to ResumeService--><g class="link" data-entity-1="BasicResumeService" data-entity-2="ResumeService" data-source-line="78" data-uid="lnk23" id="link_BasicResumeService_ResumeService"><path codeLine="78" d="M867.35,127.65 C857.97,158.33 849.0218,187.6463 839.2218,219.7063" fill="none" id="BasicResumeService-to-ResumeService" style="stroke:#181818;stroke-width:1;stroke-dasharray:7,7;"/><polygon fill="none" points="833.96,236.92,844.9598,221.4602,833.4839,217.9523,833.96,236.92" style="stroke:#181818;stroke-width:1;"/><text fill="#000000" font-family="sans-serif" font-size="13" lengthAdjust="spacing" textLength="74.0137" x="852.62" y="191.6584">implements</text></g><!--link BasicResumeService to ResumeSaveHandler--><g class="link" data-entity-1="BasicResumeService" data-entity-2="ResumeSaveHandler" data-source-line="79" data-uid="lnk24" id="link_BasicResumeService_ResumeSaveHandler"><path codeLine="79" d="M956.51,127.69 C1010.54,148.5 1083.92,175.41 1150,195.09 C1164.89,199.52 1217.6364,212.0791 1281.4864,226.9491" fill="none" id="BasicResumeService-to-ResumeSaveHandler" style="stroke:#181818;stroke-width:1;"/><polygon fill="#181818" points="1287.33,228.31,1279.4718,222.3729,1282.4603,227.1759,1277.6573,230.1644,1287.33,228.31" style="stroke:#181818;stroke-width:1;"/><text fill="#000000" font-family="sans-serif" font-size="13" lengthAdjust="spacing" textLength="73.3218" x="1151" y="191.6584">starts chain</text></g><!--link SqlSaveHandler to ResumeSaveHandler--><g class="link" data-entity-1="SqlSaveHandler" data-entity-2="ResumeSaveHandler" data-source-line="81" data-uid="lnk25" id="link_SqlSaveHandler_ResumeSaveHandler"><path codeLine="81" d="M1626.81,135.71 C1598.77,162.08 1574.9047,184.521 1545.1947,212.451" fill="none" id="SqlSaveHandler-to-ResumeSaveHandler" style="stroke:#181818;stroke-width:1;"/><polygon fill="none" points="1532.08,224.78,1549.3044,216.8226,1541.0851,208.0794,1532.08,224.78" style="stroke:#181818;stroke-width:1;"/><text fill="#000000" font-family="sans-serif" font-size="13" lengthAdjust="spacing" textLength="50.1973" x="1581.64" y="191.6584">extends</text></g><!--link AiEmbeddingHandler to ResumeSaveHandler--><g class="link" data-entity-1="AiEmbeddingHandler" data-entity-2="ResumeSaveHandler" data-source-line="82" data-uid="lnk26" id="link_AiEmbeddingHandler_ResumeSaveHandler"><path codeLine="82" d="M1399.02,135.64 C1409.61,153.79 1422.38,175.56 1434,195.09 C1439.73,204.71 1436.5898,199.5587 1442.5098,209.3687" fill="none" id="AiEmbeddingHandler-to-ResumeSaveHandler" style="stroke:#181818;stroke-width:1;"/><polygon fill="none" points="1451.81,224.78,1447.6469,206.2687,1437.3727,212.4688,1451.81,224.78" style="stroke:#181818;stroke-width:1;"/><text fill="#000000" font-family="sans-serif" font-size="13" lengthAdjust="spacing" textLength="50.1973" x="1435" y="191.6584">extends</text></g><!--link VectorSaveHandler to ResumeSaveHandler--><g class="link" data-entity-1="VectorSaveHandler" data-entity-2="ResumeSaveHandler" data-source-line="83" data-uid="lnk27" id="link_VectorSaveHandler_ResumeSaveHandler"><path codeLine="83" d="M1931.82,135.95 C1891.16,155.62 1840.21,178.59 1793,195.09 C1769.35,203.35 1741.413,211.0463 1692.393,223.1763" fill="none" id="VectorSaveHandler-to-ResumeSaveHandler" style="stroke:#181818;stroke-width:1;"/><polygon fill="none" points="1674.92,227.5,1693.8342,229.0006,1690.9518,217.352,1674.92,227.5" style="stroke:#181818;stroke-width:1;"/><text fill="#000000" font-family="sans-serif" font-size="13" lengthAdjust="spacing" textLength="50.1973" x="1836.66" y="191.6584">extends</text></g><!--link SqlSaveHandler to RelationalResumeRepository--><g class="link" data-entity-1="SqlSaveHandler" data-entity-2="RelationalResumeRepository" data-source-line="85" data-uid="lnk28" id="link_SqlSaveHandler_RelationalResumeRepository"><path codeLine="85" d="M1703.34,135.71 C1729.59,166.05 1761.5527,202.9839 1786.9727,232.3439" fill="none" id="SqlSaveHandler-to-RelationalResumeRepository" style="stroke:#181818;stroke-width:1;"/><polygon fill="#181818" points="1790.9,236.88,1788.033,227.4577,1787.6272,233.0999,1781.9849,232.6941,1790.9,236.88" style="stroke:#181818;stroke-width:1;"/><text fill="#000000" font-family="sans-serif" font-size="13" lengthAdjust="spacing" textLength="28.5645" x="1755.66" y="191.6584">uses</text></g><!--link AiEmbeddingHandler to AIClient--><g class="link" data-entity-1="AiEmbeddingHandler" data-entity-2="AIClient" data-source-line="86" data-uid="lnk29" id="link_AiEmbeddingHandler_AIClient"><path codeLine="86" d="M1318.23,135.93 C1274.28,166.28 1219.2772,204.2606 1176.8472,233.5606" fill="none" id="AiEmbeddingHandler-to-AIClient" style="stroke:#181818;stroke-width:1;"/><polygon fill="#181818" points="1171.91,236.97,1181.5887,235.1474,1176.0243,234.1288,1177.0429,228.5644,1171.91,236.97" style="stroke:#181818;stroke-width:1;"/><text fill="#000000" font-family="sans-serif" font-size="13" lengthAdjust="spacing" textLength="28.5645" x="1256.68" y="191.6584">uses</text></g><!--link VectorSaveHandler to VectorResumeRepository--><g class="link" data-entity-1="VectorSaveHandler" data-entity-2="VectorResumeRepository" data-source-line="87" data-uid="lnk30" id="link_VectorSaveHandler_VectorResumeRepository"><path codeLine="87" d="M2023.47,135.71 C2033.76,166.05 2045.9125,201.838 2055.8725,231.198" fill="none" id="VectorSaveHandler-to-VectorResumeRepository" style="stroke:#181818;stroke-width:1;"/><polygon fill="#181818" points="2057.8,236.88,2058.6967,227.072,2056.1937,232.145,2051.1207,229.6421,2057.8,236.88" style="stroke:#181818;stroke-width:1;"/><text fill="#000000" font-family="sans-serif" font-size="13" lengthAdjust="spacing" textLength="28.5645" x="2044.59" y="191.6584">uses</text></g><!--link BasicResumeRepository to RelationalResumeRepository--><g class="link" data-entity-1="BasicResumeRepository" data-entity-2="RelationalResumeRepository" data-source-line="89" data-uid="lnk31" id="link_BasicResumeRepository_RelationalResumeRepository"><path codeLine="89" d="M2273.11,119.35 C2224.98,141.16 2149.67,173.53 2082,195.09 C2025.5,213.08 2008.83,208.17 1952,225.09 C1940.13,228.62 1944.7909,226.7754 1932.6209,230.9854" fill="none" id="BasicResumeRepository-to-RelationalResumeRepository" style="stroke:#181818;stroke-width:1;stroke-dasharray:7,7;"/><polygon fill="none" points="1915.61,236.87,1934.5825,236.6557,1930.6594,225.3151,1915.61,236.87" style="stroke:#181818;stroke-width:1;"/><text fill="#000000" font-family="sans-serif" font-size="13" lengthAdjust="spacing" textLength="74.0137" x="2130.12" y="191.6584">implements</text></g><!--link QdrantResumeRepository to VectorResumeRepository--><g class="link" data-entity-1="QdrantResumeRepository" data-entity-2="VectorResumeRepository" data-source-line="90" data-uid="lnk32" id="link_QdrantResumeRepository_VectorResumeRepository"><path codeLine="90" d="M2503.32,119.41 C2482.43,128.54 2458.16,138.98 2436,148.09 C2382.64,170.01 2369.41,175.91 2315,195.09 C2267.97,211.66 2232.4992,223.2386 2188.0892,237.0386" fill="none" id="QdrantResumeRepository-to-VectorResumeRepository" style="stroke:#181818;stroke-width:1;stroke-dasharray:7,7;"/><polygon fill="none" points="2170.9,242.38,2189.8697,242.7683,2186.3088,231.3089,2170.9,242.38" style="stroke:#181818;stroke-width:1;"/><text fill="#000000" font-family="sans-serif" font-size="13" lengthAdjust="spacing" textLength="74.0137" x="2362.55" y="191.6584">implements</text></g><!--SRC=[fLLHRzem47xFhx3Q5wegbIPjceOg9CX0hRHDMv7sCktXS0wmQknW6xQgvR_F9Z6On25R1r8mzfs_x-w-k-X79WfGi28P1wr7G1yNIcv4daak5RcSl7FVH1_ClbeBME3KF74a2ga1iU0O6EWbvF8N4mio1wunIOhIWrn0mIx8SqBiXpemye1wiy9C2gCavwYgG_T9gyCfgYsZ3Ydurx0Q5kmp58Mz0VpgO7DDg48ms5Euxdl8_Su3hZUepPNVjSz22brUlqlsFqmOL7Em3Ef8jxVt_cmm89VZDwFn-7qGmJKnygDS0HEztCZpo2TEdaPF-UEp3CjKZa0pMgEOx8BappQQ2TGwvNB1gAz3FJoVxkxWQ1M8yuemFSlGeqJA3Lky0v4xCMYxpfOsVtS8UVE-qi4oBPFiQ4ucam_PsnEQdwGL8ik3dQbHJfm6VnkdF1GcE9np2UR7JxArmfOg18MPDWgeEK4FwLQjqX6KiB01daRpnUxqblscxLLaBt1zzensPBa__AigJDSyf7DAbeDXKW3tOYkaPZODJxRx_38Wy0-eGpPUpJ3FRU9ZoCFxZ3DR20AiNBmEvVk-Q6tXbQUDqBRLzci3F7RG8OhkvbcWEIH4zvmK-vKkBKQbmROfr5gaRbZNKUtXk6SDhILd_uiKpgKS3AH0gHrDfo-7O5xKgbEUVyiL2DCmi7StNYjfEgZDjpxPQDJdB8-3lhADJLXoS_CISs2hWkFAQa4dIMJk1Lv7Ge5Fn2K88T1tdsW3ocX2tPnCabftf-bBtCiA3aMkaqXVTleqkwpJfSbhS4x8LSAZv0R7DglCOdm6RSgjV9Aek7nTpX0BYXJNNtb7AthW_mS0]--></g></svg>