<svg xmlns="http://www.w3.org/2000/svg" xmlns:xlink="http://www.w3.org/1999/xlink" contentStyleType="text/css" data-diagram-type="CLASS" height="344px" preserveAspectRatio="none" style="width:2512px;height:344px;background:#FFFFFF;" version="1.1" viewBox="0 0 2512 344" width="2512px" zoomAndPan="magnify"><defs/><g><!--cluster api--><g class="cluster" data-entity="api" data-source-line="5" data-uid="ent0002" id="cluster_api"><rect fill="none" height="323.31" rx="2.5" ry="2.5" style="stroke:#000000;stroke-width:1.5;" width="646" x="7" y="11.31"/><text fill="#000000" font-family="sans-serif" font-size="14" font-weight="bold" lengthAdjust="spacing" textLength="22.0596" x="318.9702" y="26.8452">api</text></g><!--cluster business-logic--><g class="cluster" data-entity="business-logic" data-source-line="20" data-uid="ent0006" id="cluster_business-logic"><rect fill="none" height="331.55" rx="2.5" ry="2.5" style="stroke:#000000;stroke-width:1.5;" width="1342" x="677" y="7"/><text fill="#000000" font-family="sans-serif" font-size="14" font-weight="bold" lengthAdjust="spacing" textLength="107.8438" x="1294.0781" y="22.5352">business-logic</text></g><!--cluster data-access--><g class="cluster" data-entity="data-access" data-source-line="65" data-uid="ent0016" id="cluster_data-access"><rect fill="none" height="99" rx="2.5" ry="2.5" style="stroke:#000000;stroke-width:1.5;" width="463" x="2043" y="36.04"/><text fill="#000000" font-family="sans-serif" font-size="14" font-weight="bold" lengthAdjust="spacing" textLength="87.5205" x="2230.7397" y="51.5752">data-access</text></g><!--class ResumeController--><g class="entity" data-entity="ResumeController" data-source-line="6" data-uid="ent0003" id="entity_ResumeController"><rect fill="#F5F5F5" height="97.4648" rx="2.5" ry="2.5" style="stroke:#181818;stroke-width:0.5;" width="386.459" x="250.77" y="46.31"/><ellipse cx="378.9951" cy="62.31" fill="#ADD1B2" rx="11" ry="11" style="stroke:#181818;stroke-width:1;"/><path d="M381.9682,67.9531 Q381.3872,68.2519 380.748,68.4013 Q380.1089,68.5507 379.4033,68.5507 Q376.8965,68.5507 375.5766,66.8989 Q374.2568,65.247 374.2568,62.1259 Q374.2568,58.9965 375.5766,57.3447 Q376.8965,55.6928 379.4033,55.6928 Q380.1089,55.6928 380.7563,55.8422 Q381.4038,55.9916 381.9682,56.2905 L381.9682,59.0131 Q381.3374,58.4321 380.7439,58.1623 Q380.1504,57.8925 379.5195,57.8925 Q378.1748,57.8925 377.49,58.9592 Q376.8052,60.0258 376.8052,62.1259 Q376.8052,64.2177 377.49,65.2844 Q378.1748,66.351 379.5195,66.351 Q380.1504,66.351 380.7439,66.0812 Q381.3374,65.8115 381.9682,65.2304 Z " fill="#000000"/><text fill="#000000" font-family="sans-serif" font-size="14" lengthAdjust="spacing" textLength="121.5088" x="399.4951" y="67.601">ResumeController</text><line style="stroke:#181818;stroke-width:0.5;" x1="251.77" x2="636.229" y1="78.31" y2="78.31"/><rect fill="none" height="6" style="stroke:#C82930;stroke-width:1;" width="6" x="258.77" y="89.0541"/><text fill="#000000" font-family="sans-serif" font-size="14" lengthAdjust="spacing" textLength="202.665" x="270.77" y="95.8452">ResumeService resumeService</text><rect fill="none" height="6" style="stroke:#C82930;stroke-width:1;" width="6" x="258.77" y="105.5424"/><text fill="#000000" font-family="sans-serif" font-size="14" lengthAdjust="spacing" textLength="202.7676" x="270.77" y="112.3334">ResumeApiMapper apiMapper</text><line style="stroke:#181818;stroke-width:0.5;" x1="251.77" x2="636.229" y1="119.2866" y2="119.2866"/><ellipse cx="261.77" cy="133.0307" fill="#84BE84" rx="3" ry="3" style="stroke:#038048;stroke-width:1;"/><text fill="#000000" font-family="sans-serif" font-size="14" lengthAdjust="spacing" textLength="360.459" x="270.77" y="136.8217">create(req: ResumeCreateRequest): ResumeResponse</text></g><!--class ResumeApiMapper--><g class="entity" data-entity="ResumeApiMapper" data-source-line="12" data-uid="ent0004" id="entity_ResumeApiMapper"><rect fill="#E1BEE7" height="89.5977" rx="2.5" ry="2.5" style="stroke:#181818;stroke-width:0.5;" width="346.9336" x="146.53" y="229.02"/><ellipse cx="252.3435" cy="249.3305" fill="#B4A7E5" rx="11" ry="11" style="stroke:#181818;stroke-width:1;"/><path d="M248.2712,245.0957 L248.2712,242.9375 L255.6506,242.9375 L255.6506,245.0957 L253.1853,245.0957 L253.1853,253.1723 L255.6506,253.1723 L255.6506,255.3305 L248.2712,255.3305 L248.2712,253.1723 L250.7365,253.1723 L250.7365,245.0957 Z " fill="#000000"/><text fill="#000000" font-family="sans-serif" font-size="12" font-style="italic" lengthAdjust="spacing" textLength="63.4336" x="304.53" y="245.6216">&#171;Interface&#187;</text><text fill="#000000" font-family="sans-serif" font-size="14" font-style="italic" lengthAdjust="spacing" textLength="126.8066" x="272.8435" y="261.688">ResumeApiMapper</text><line style="stroke:#181818;stroke-width:0.5;" x1="147.53" x2="492.4636" y1="269.6411" y2="269.6411"/><line style="stroke:#181818;stroke-width:0.5;" x1="147.53" x2="492.4636" y1="277.6411" y2="277.6411"/><ellipse cx="157.53" cy="291.3852" fill="#84BE84" rx="3" ry="3" style="stroke:#038048;stroke-width:1;"/><text fill="#000000" font-family="sans-serif" font-size="14" lengthAdjust="spacing" textLength="320.9336" x="166.53" y="295.1763">toDomain(dto: ResumeCreateRequest): Resume</text><ellipse cx="157.53" cy="307.8735" fill="#84BE84" rx="3" ry="3" style="stroke:#038048;stroke-width:1;"/><text fill="#000000" font-family="sans-serif" font-size="14" lengthAdjust="spacing" textLength="282.7344" x="166.53" y="311.6645">toResponse(r: Resume): ResumeResponse</text></g><!--class BasicResumeApiMapper--><g class="entity" data-entity="BasicResumeApiMapper" data-source-line="17" data-uid="ent0005" id="entity_BasicResumeApiMapper"><rect fill="#F5F5F5" height="48" rx="2.5" ry="2.5" style="stroke:#181818;stroke-width:0.5;" width="192.9453" x="22.53" y="71.04"/><ellipse cx="37.53" cy="87.04" fill="#ADD1B2" rx="11" ry="11" style="stroke:#181818;stroke-width:1;"/><path d="M40.5031,92.6831 Q39.9221,92.9819 39.2829,93.1313 Q38.6438,93.2807 37.9382,93.2807 Q35.4314,93.2807 34.1115,91.6289 Q32.7917,89.977 32.7917,86.8559 Q32.7917,83.7265 34.1115,82.0747 Q35.4314,80.4228 37.9382,80.4228 Q38.6438,80.4228 39.2912,80.5722 Q39.9387,80.7216 40.5031,81.0205 L40.5031,83.7431 Q39.8723,83.1621 39.2788,82.8923 Q38.6853,82.6225 38.0544,82.6225 Q36.7097,82.6225 36.0249,83.6892 Q35.3401,84.7558 35.3401,86.8559 Q35.3401,88.9477 36.0249,90.0144 Q36.7097,91.081 38.0544,91.081 Q38.6853,91.081 39.2788,90.8112 Q39.8723,90.5415 40.5031,89.9604 Z " fill="#000000"/><text fill="#000000" font-family="sans-serif" font-size="14" lengthAdjust="spacing" textLength="160.9453" x="51.53" y="92.331">BasicResumeApiMapper</text><line style="stroke:#181818;stroke-width:0.5;" x1="23.53" x2="214.4753" y1="103.04" y2="103.04"/><line style="stroke:#181818;stroke-width:0.5;" x1="23.53" x2="214.4753" y1="111.04" y2="111.04"/></g><!--class ResumeService--><g class="entity" data-entity="ResumeService" data-source-line="21" data-uid="ent0007" id="entity_ResumeService"><rect fill="#E1BEE7" height="73.1094" rx="2.5" ry="2.5" style="stroke:#181818;stroke-width:0.5;" width="260.0625" x="694.97" y="237.26"/><ellipse cx="770.4114" cy="257.5705" fill="#B4A7E5" rx="11" ry="11" style="stroke:#181818;stroke-width:1;"/><path d="M766.3391,253.3357 L766.3391,251.1775 L773.7185,251.1775 L773.7185,253.3357 L771.2532,253.3357 L771.2532,261.4123 L773.7185,261.4123 L773.7185,263.5705 L766.3391,263.5705 L766.3391,261.4123 L768.8045,261.4123 L768.8045,253.3357 Z " fill="#000000"/><text fill="#000000" font-family="sans-serif" font-size="12" font-style="italic" lengthAdjust="spacing" textLength="63.4336" x="809.5345" y="253.8616">&#171;Interface&#187;</text><text fill="#000000" font-family="sans-serif" font-size="14" font-style="italic" lengthAdjust="spacing" textLength="100.6797" x="790.9114" y="269.928">ResumeService</text><line style="stroke:#181818;stroke-width:0.5;" x1="695.97" x2="954.0325" y1="277.8811" y2="277.8811"/><line style="stroke:#181818;stroke-width:0.5;" x1="695.97" x2="954.0325" y1="285.8811" y2="285.8811"/><ellipse cx="705.97" cy="299.6252" fill="#84BE84" rx="3" ry="3" style="stroke:#038048;stroke-width:1;"/><text fill="#000000" font-family="sans-serif" font-size="14" lengthAdjust="spacing" textLength="234.0625" x="714.97" y="303.4163">createResume(r: Resume): Resume</text></g><!--class BasicResumeService--><g class="entity" data-entity="BasicResumeService" data-source-line="25" data-uid="ent0008" id="entity_BasicResumeService"><rect fill="#F5F5F5" height="64.4883" rx="2.5" ry="2.5" style="stroke:#181818;stroke-width:0.5;" width="270.5762" x="692.71" y="62.8"/><ellipse cx="756.3389" cy="78.8" fill="#ADD1B2" rx="11" ry="11" style="stroke:#181818;stroke-width:1;"/><path d="M759.3121,84.4431 Q758.731,84.7419 758.0918,84.8913 Q757.4527,85.0407 756.7471,85.0407 Q754.2403,85.0407 752.9204,83.3889 Q751.6006,81.737 751.6006,78.6159 Q751.6006,75.4865 752.9204,73.8347 Q754.2403,72.1828 756.7471,72.1828 Q757.4527,72.1828 758.1001,72.3322 Q758.7476,72.4816 759.3121,72.7805 L759.3121,75.5031 Q758.6812,74.9221 758.0877,74.6523 Q757.4942,74.3825 756.8633,74.3825 Q755.5186,74.3825 754.8338,75.4492 Q754.149,76.5158 754.149,78.6159 Q754.149,80.7077 754.8338,81.7744 Q755.5186,82.841 756.8633,82.841 Q757.4942,82.841 758.0877,82.5712 Q758.6812,82.3015 759.3121,81.7204 Z " fill="#000000"/><text fill="#000000" font-family="sans-serif" font-size="14" lengthAdjust="spacing" textLength="134.8184" x="776.8389" y="84.091">BasicResumeService</text><line style="stroke:#181818;stroke-width:0.5;" x1="693.71" x2="962.2862" y1="94.8" y2="94.8"/><rect fill="none" height="6" style="stroke:#C82930;stroke-width:1;" width="6" x="700.71" y="105.5441"/><text fill="#000000" font-family="sans-serif" font-size="14" lengthAdjust="spacing" textLength="244.5762" x="712.71" y="112.3352">ResumeSaveHandler saveChainHead</text><line style="stroke:#181818;stroke-width:0.5;" x1="693.71" x2="962.2862" y1="119.2883" y2="119.2883"/></g><!--class Resume--><g class="entity" data-entity="Resume" data-source-line="29" data-uid="ent0009" id="entity_Resume"><rect fill="#FFF9C4" height="106.0859" rx="2.5" ry="2.5" style="stroke:#181818;stroke-width:0.5;" width="151.1934" x="998.4" y="42"/><ellipse cx="1042.9068" cy="62.3105" fill="#ADD1B2" rx="11" ry="11" style="stroke:#181818;stroke-width:1;"/><path d="M1045.88,67.9536 Q1045.2989,68.2524 1044.6598,68.4019 Q1044.0206,68.5513 1043.315,68.5513 Q1040.8082,68.5513 1039.4884,66.8994 Q1038.1686,65.2476 1038.1686,62.1265 Q1038.1686,58.9971 1039.4884,57.3452 Q1040.8082,55.6934 1043.315,55.6934 Q1044.0206,55.6934 1044.6681,55.8428 Q1045.3155,55.9922 1045.88,56.291 L1045.88,59.0137 Q1045.2491,58.4326 1044.6556,58.1628 Q1044.0621,57.8931 1043.4313,57.8931 Q1042.0865,57.8931 1041.4017,58.9597 Q1040.7169,60.0264 1040.7169,62.1265 Q1040.7169,64.2183 1041.4017,65.2849 Q1042.0865,66.3516 1043.4313,66.3516 Q1044.0621,66.3516 1044.6556,66.0818 Q1045.2491,65.812 1045.88,65.231 Z " fill="#000000"/><text fill="#000000" font-family="sans-serif" font-size="12" font-style="italic" lengthAdjust="spacing" textLength="57.6797" x="1061.4068" y="58.6016">&#171;Domain&#187;</text><text fill="#000000" font-family="sans-serif" font-size="14" lengthAdjust="spacing" textLength="53.3477" x="1063.5729" y="74.668">Resume</text><line style="stroke:#181818;stroke-width:0.5;" x1="999.4" x2="1148.5934" y1="82.6211" y2="82.6211"/><ellipse cx="1009.4" cy="96.3652" fill="none" rx="3" ry="3" style="stroke:#038048;stroke-width:1;"/><text fill="#000000" font-family="sans-serif" font-size="14" lengthAdjust="spacing" textLength="50.7705" x="1018.4" y="100.1563">Long id</text><ellipse cx="1009.4" cy="112.8535" fill="none" rx="3" ry="3" style="stroke:#038048;stroke-width:1;"/><text fill="#000000" font-family="sans-serif" font-size="14" lengthAdjust="spacing" textLength="125.1934" x="1018.4" y="116.6445">String textContent</text><ellipse cx="1009.4" cy="129.3418" fill="none" rx="3" ry="3" style="stroke:#038048;stroke-width:1;"/><text fill="#000000" font-family="sans-serif" font-size="14" lengthAdjust="spacing" textLength="86.0781" x="1018.4" y="133.1328">float[] vector</text><line style="stroke:#181818;stroke-width:0.5;" x1="999.4" x2="1148.5934" y1="140.0859" y2="140.0859"/></g><!--class ResumeSaveHandler--><g class="entity" data-entity="ResumeSaveHandler" data-source-line="35" data-uid="ent0010" id="entity_ResumeSaveHandler"><rect fill="#F5F5F5" height="97.4648" rx="2.5" ry="2.5" style="stroke:#181818;stroke-width:0.5;" width="387.1699" x="1385.42" y="225.09"/><ellipse cx="1506.3751" cy="241.09" fill="#A9DCDF" rx="11" ry="11" style="stroke:#181818;stroke-width:1;"/><path d="M1506.4884,236.4381 L1505.3346,241.5099 L1507.6505,241.5099 Z M1504.9942,234.1969 L1507.9908,234.1969 L1511.336,246.59 L1508.8873,246.59 L1508.1236,243.527 L1504.8448,243.527 L1504.0977,246.59 L1501.649,246.59 Z " fill="#000000"/><text fill="#000000" font-family="sans-serif" font-size="14" font-style="italic" lengthAdjust="spacing" textLength="136.7598" x="1526.8751" y="246.381">ResumeSaveHandler</text><line style="stroke:#181818;stroke-width:0.5;" x1="1386.42" x2="1771.5899" y1="257.09" y2="257.09"/><rect fill="none" height="6" style="stroke:#C82930;stroke-width:1;" width="6" x="1393.42" y="267.8341"/><text fill="#000000" font-family="sans-serif" font-size="14" lengthAdjust="spacing" textLength="171.5" x="1405.42" y="274.6252">ResumeSaveHandler next</text><line style="stroke:#181818;stroke-width:0.5;" x1="1386.42" x2="1771.5899" y1="281.5783" y2="281.5783"/><ellipse cx="1396.42" cy="295.3224" fill="#84BE84" rx="3" ry="3" style="stroke:#038048;stroke-width:1;"/><text fill="#000000" font-family="sans-serif" font-size="14" lengthAdjust="spacing" textLength="361.1699" x="1405.42" y="299.1134">setNext(h: ResumeSaveHandler): ResumeSaveHandler</text><ellipse cx="1396.42" cy="311.8107" fill="#84BE84" rx="3" ry="3" style="stroke:#038048;stroke-width:1;"/><text fill="#000000" font-family="sans-serif" font-size="14" font-style="italic" lengthAdjust="spacing" textLength="185.0146" x="1405.42" y="315.6017">handle(r: Resume): Resume</text></g><!--class SqlSaveHandler--><g class="entity" data-entity="SqlSaveHandler" data-source-line="41" data-uid="ent0011" id="entity_SqlSaveHandler"><rect fill="#F5F5F5" height="80.9766" rx="2.5" ry="2.5" style="stroke:#181818;stroke-width:0.5;" width="224.9053" x="1778.55" y="54.55"/><ellipse cx="1834.8474" cy="70.55" fill="#ADD1B2" rx="11" ry="11" style="stroke:#181818;stroke-width:1;"/><path d="M1837.8205,76.1931 Q1837.2395,76.4919 1836.6003,76.6413 Q1835.9611,76.7907 1835.2556,76.7907 Q1832.7487,76.7907 1831.4289,75.1389 Q1830.1091,73.487 1830.1091,70.3659 Q1830.1091,67.2365 1831.4289,65.5847 Q1832.7487,63.9328 1835.2556,63.9328 Q1835.9611,63.9328 1836.6086,64.0822 Q1837.2561,64.2316 1837.8205,64.5305 L1837.8205,67.2531 Q1837.1896,66.6721 1836.5961,66.4023 Q1836.0026,66.1325 1835.3718,66.1325 Q1834.0271,66.1325 1833.3422,67.1992 Q1832.6574,68.2658 1832.6574,70.3659 Q1832.6574,72.4577 1833.3422,73.5244 Q1834.0271,74.591 1835.3718,74.591 Q1836.0026,74.591 1836.5961,74.3212 Q1837.1896,74.0515 1837.8205,73.4704 Z " fill="#000000"/><text fill="#000000" font-family="sans-serif" font-size="14" lengthAdjust="spacing" textLength="103.8105" x="1855.3474" y="75.841">SqlSaveHandler</text><line style="stroke:#181818;stroke-width:0.5;" x1="1779.55" x2="2002.4553" y1="86.55" y2="86.55"/><rect fill="none" height="6" style="stroke:#C82930;stroke-width:1;" width="6" x="1786.55" y="97.2941"/><text fill="#000000" font-family="sans-serif" font-size="14" lengthAdjust="spacing" textLength="198.9053" x="1798.55" y="104.0852">ResumeRepository repository</text><line style="stroke:#181818;stroke-width:0.5;" x1="1779.55" x2="2002.4553" y1="111.0383" y2="111.0383"/><ellipse cx="1789.55" cy="124.7824" fill="#84BE84" rx="3" ry="3" style="stroke:#038048;stroke-width:1;"/><text fill="#000000" font-family="sans-serif" font-size="14" lengthAdjust="spacing" textLength="185.0146" x="1798.55" y="128.5734">handle(r: Resume): Resume</text></g><!--class AiEmbeddingHandler--><g class="entity" data-entity="AiEmbeddingHandler" data-source-line="46" data-uid="ent0012" id="entity_AiEmbeddingHandler"><rect fill="#F5F5F5" height="80.9766" rx="2.5" ry="2.5" style="stroke:#181818;stroke-width:0.5;" width="211.0146" x="1184.49" y="54.55"/><ellipse cx="1215.6254" cy="70.55" fill="#ADD1B2" rx="11" ry="11" style="stroke:#181818;stroke-width:1;"/><path d="M1218.5985,76.1931 Q1218.0175,76.4919 1217.3783,76.6413 Q1216.7392,76.7907 1216.0336,76.7907 Q1213.5268,76.7907 1212.2069,75.1389 Q1210.8871,73.487 1210.8871,70.3659 Q1210.8871,67.2365 1212.2069,65.5847 Q1213.5268,63.9328 1216.0336,63.9328 Q1216.7392,63.9328 1217.3866,64.0822 Q1218.0341,64.2316 1218.5985,64.5305 L1218.5985,67.2531 Q1217.9677,66.6721 1217.3742,66.4023 Q1216.7807,66.1325 1216.1498,66.1325 Q1214.8051,66.1325 1214.1203,67.1992 Q1213.4355,68.2658 1213.4355,70.3659 Q1213.4355,72.4577 1214.1203,73.5244 Q1214.8051,74.591 1216.1498,74.591 Q1216.7807,74.591 1217.3742,74.3212 Q1217.9677,74.0515 1218.5985,73.4704 Z " fill="#000000"/><text fill="#000000" font-family="sans-serif" font-size="14" lengthAdjust="spacing" textLength="143.1582" x="1233.211" y="75.841">AiEmbeddingHandler</text><line style="stroke:#181818;stroke-width:0.5;" x1="1185.49" x2="1394.5046" y1="86.55" y2="86.55"/><rect fill="none" height="6" style="stroke:#C82930;stroke-width:1;" width="6" x="1192.49" y="97.2941"/><text fill="#000000" font-family="sans-serif" font-size="14" lengthAdjust="spacing" textLength="108.9102" x="1204.49" y="104.0852">AIClient aiClient</text><line style="stroke:#181818;stroke-width:0.5;" x1="1185.49" x2="1394.5046" y1="111.0383" y2="111.0383"/><ellipse cx="1195.49" cy="124.7824" fill="#84BE84" rx="3" ry="3" style="stroke:#038048;stroke-width:1;"/><text fill="#000000" font-family="sans-serif" font-size="14" lengthAdjust="spacing" textLength="185.0146" x="1204.49" y="128.5734">handle(r: Resume): Resume</text></g><!--class VectorSaveHandler--><g class="entity" data-entity="VectorSaveHandler" data-source-line="51" data-uid="ent0013" id="entity_VectorSaveHandler"><rect fill="#F5F5F5" height="80.9766" rx="2.5" ry="2.5" style="stroke:#181818;stroke-width:0.5;" width="313.499" x="1430.25" y="54.55"/><ellipse cx="1519.1992" cy="70.55" fill="#ADD1B2" rx="11" ry="11" style="stroke:#181818;stroke-width:1;"/><path d="M1522.1724,76.1931 Q1521.5913,76.4919 1520.9521,76.6413 Q1520.313,76.7907 1519.6074,76.7907 Q1517.1006,76.7907 1515.7808,75.1389 Q1514.4609,73.487 1514.4609,70.3659 Q1514.4609,67.2365 1515.7808,65.5847 Q1517.1006,63.9328 1519.6074,63.9328 Q1520.313,63.9328 1520.9604,64.0822 Q1521.6079,64.2316 1522.1724,64.5305 L1522.1724,67.2531 Q1521.5415,66.6721 1520.948,66.4023 Q1520.3545,66.1325 1519.7236,66.1325 Q1518.3789,66.1325 1517.6941,67.1992 Q1517.0093,68.2658 1517.0093,70.3659 Q1517.0093,72.4577 1517.6941,73.5244 Q1518.3789,74.591 1519.7236,74.591 Q1520.3545,74.591 1520.948,74.3212 Q1521.5415,74.0515 1522.1724,73.4704 Z " fill="#000000"/><text fill="#000000" font-family="sans-serif" font-size="14" lengthAdjust="spacing" textLength="127.1006" x="1539.6992" y="75.841">VectorSaveHandler</text><line style="stroke:#181818;stroke-width:0.5;" x1="1431.25" x2="1742.749" y1="86.55" y2="86.55"/><rect fill="none" height="6" style="stroke:#C82930;stroke-width:1;" width="6" x="1438.25" y="97.2941"/><text fill="#000000" font-family="sans-serif" font-size="14" lengthAdjust="spacing" textLength="287.499" x="1450.25" y="104.0852">VectorResumeRepository vectorRepository</text><line style="stroke:#181818;stroke-width:0.5;" x1="1431.25" x2="1742.749" y1="111.0383" y2="111.0383"/><ellipse cx="1441.25" cy="124.7824" fill="#84BE84" rx="3" ry="3" style="stroke:#038048;stroke-width:1;"/><text fill="#000000" font-family="sans-serif" font-size="14" lengthAdjust="spacing" textLength="185.0146" x="1450.25" y="128.5734">handle(r: Resume): Resume</text></g><!--class AIClient--><g class="entity" data-entity="AIClient" data-source-line="56" data-uid="ent0014" id="entity_AIClient"><rect fill="#E1BEE7" height="73.1094" rx="2.5" ry="2.5" style="stroke:#181818;stroke-width:0.5;" width="264.7793" x="1085.61" y="237.26"/><ellipse cx="1184.0329" cy="257.5705" fill="#B4A7E5" rx="11" ry="11" style="stroke:#181818;stroke-width:1;"/><path d="M1179.9606,253.3357 L1179.9606,251.1775 L1187.34,251.1775 L1187.34,253.3357 L1184.8746,253.3357 L1184.8746,261.4123 L1187.34,261.4123 L1187.34,263.5705 L1179.9606,263.5705 L1179.9606,261.4123 L1182.4259,261.4123 L1182.4259,253.3357 Z " fill="#000000"/><text fill="#000000" font-family="sans-serif" font-size="12" font-style="italic" lengthAdjust="spacing" textLength="63.4336" x="1202.5329" y="253.8616">&#171;Interface&#187;</text><text fill="#000000" font-family="sans-serif" font-size="14" font-style="italic" lengthAdjust="spacing" textLength="53.1973" x="1207.651" y="269.928">AIClient</text><line style="stroke:#181818;stroke-width:0.5;" x1="1086.61" x2="1349.3893" y1="277.8811" y2="277.8811"/><line style="stroke:#181818;stroke-width:0.5;" x1="1086.61" x2="1349.3893" y1="285.8811" y2="285.8811"/><ellipse cx="1096.61" cy="299.6252" fill="#84BE84" rx="3" ry="3" style="stroke:#038048;stroke-width:1;"/><text fill="#000000" font-family="sans-serif" font-size="14" lengthAdjust="spacing" textLength="238.7793" x="1105.61" y="303.4163">getEmbeddings(text: String): float[]</text></g><!--class ResumeRepository--><g class="entity" data-entity="ResumeRepository" data-source-line="60" data-uid="ent0015" id="entity_ResumeRepository"><rect fill="#E1BEE7" height="73.1094" rx="2.5" ry="2.5" style="stroke:#181818;stroke-width:0.5;" width="195.1621" x="1807.42" y="237.26"/><ellipse cx="1839.3798" cy="257.5705" fill="#B4A7E5" rx="11" ry="11" style="stroke:#181818;stroke-width:1;"/><path d="M1835.3075,253.3357 L1835.3075,251.1775 L1842.6869,251.1775 L1842.6869,253.3357 L1840.2216,253.3357 L1840.2216,261.4123 L1842.6869,261.4123 L1842.6869,263.5705 L1835.3075,263.5705 L1835.3075,261.4123 L1837.7729,261.4123 L1837.7729,253.3357 Z " fill="#000000"/><text fill="#000000" font-family="sans-serif" font-size="12" font-style="italic" lengthAdjust="spacing" textLength="63.4336" x="1888.1687" y="253.8616">&#171;Interface&#187;</text><text fill="#000000" font-family="sans-serif" font-size="14" font-style="italic" lengthAdjust="spacing" textLength="125.4736" x="1857.1487" y="269.928">ResumeRepository</text><line style="stroke:#181818;stroke-width:0.5;" x1="1808.42" x2="2001.5821" y1="277.8811" y2="277.8811"/><line style="stroke:#181818;stroke-width:0.5;" x1="1808.42" x2="2001.5821" y1="285.8811" y2="285.8811"/><ellipse cx="1818.42" cy="299.6252" fill="#84BE84" rx="3" ry="3" style="stroke:#038048;stroke-width:1;"/><text fill="#000000" font-family="sans-serif" font-size="14" lengthAdjust="spacing" textLength="169.1621" x="1827.42" y="303.4163">save(r: Resume): Resume</text></g><!--class BasicResumeRepository--><g class="entity" data-entity="BasicResumeRepository" data-source-line="66" data-uid="ent0017" id="entity_BasicResumeRepository"><rect fill="#F5F5F5" height="48" rx="2.5" ry="2.5" style="stroke:#181818;stroke-width:0.5;" width="191.6123" x="2059.19" y="71.04"/><ellipse cx="2074.19" cy="87.04" fill="#ADD1B2" rx="11" ry="11" style="stroke:#181818;stroke-width:1;"/><path d="M2077.1631,92.6831 Q2076.5821,92.9819 2075.9429,93.1313 Q2075.3038,93.2807 2074.5982,93.2807 Q2072.0914,93.2807 2070.7715,91.6289 Q2069.4517,89.977 2069.4517,86.8559 Q2069.4517,83.7265 2070.7715,82.0747 Q2072.0914,80.4228 2074.5982,80.4228 Q2075.3038,80.4228 2075.9512,80.5722 Q2076.5987,80.7216 2077.1631,81.0205 L2077.1631,83.7431 Q2076.5323,83.1621 2075.9388,82.8923 Q2075.3453,82.6225 2074.7144,82.6225 Q2073.3697,82.6225 2072.6849,83.6892 Q2072.0001,84.7558 2072.0001,86.8559 Q2072.0001,88.9477 2072.6849,90.0144 Q2073.3697,91.081 2074.7144,91.081 Q2075.3453,91.081 2075.9388,90.8112 Q2076.5323,90.5415 2077.1631,89.9604 Z " fill="#000000"/><text fill="#000000" font-family="sans-serif" font-size="14" lengthAdjust="spacing" textLength="159.6123" x="2088.19" y="92.331">BasicResumeRepository</text><line style="stroke:#181818;stroke-width:0.5;" x1="2060.19" x2="2249.8023" y1="103.04" y2="103.04"/><line style="stroke:#181818;stroke-width:0.5;" x1="2060.19" x2="2249.8023" y1="111.04" y2="111.04"/></g><!--class QdrantResumeRepository--><g class="entity" data-entity="QdrantResumeRepository" data-source-line="67" data-uid="ent0018" id="entity_QdrantResumeRepository"><rect fill="#F5F5F5" height="48" rx="2.5" ry="2.5" style="stroke:#181818;stroke-width:0.5;" width="204.5459" x="2285.73" y="71.04"/><ellipse cx="2300.73" cy="87.04" fill="#ADD1B2" rx="11" ry="11" style="stroke:#181818;stroke-width:1;"/><path d="M2303.7031,92.6831 Q2303.1221,92.9819 2302.4829,93.1313 Q2301.8438,93.2807 2301.1382,93.2807 Q2298.6314,93.2807 2297.3115,91.6289 Q2295.9917,89.977 2295.9917,86.8559 Q2295.9917,83.7265 2297.3115,82.0747 Q2298.6314,80.4228 2301.1382,80.4228 Q2301.8438,80.4228 2302.4912,80.5722 Q2303.1387,80.7216 2303.7031,81.0205 L2303.7031,83.7431 Q2303.0723,83.1621 2302.4788,82.8923 Q2301.8853,82.6225 2301.2544,82.6225 Q2299.9097,82.6225 2299.2249,83.6892 Q2298.5401,84.7558 2298.5401,86.8559 Q2298.5401,88.9477 2299.2249,90.0144 Q2299.9097,91.081 2301.2544,91.081 Q2301.8853,91.081 2302.4788,90.8112 Q2303.0723,90.5415 2303.7031,89.9604 Z " fill="#000000"/><text fill="#000000" font-family="sans-serif" font-size="14" lengthAdjust="spacing" textLength="172.5459" x="2314.73" y="92.331">QdrantResumeRepository</text><line style="stroke:#181818;stroke-width:0.5;" x1="2286.73" x2="2489.2759" y1="103.04" y2="103.04"/><line style="stroke:#181818;stroke-width:0.5;" x1="2286.73" x2="2489.2759" y1="111.04" y2="111.04"/></g><!--link ResumeController to ResumeService--><g class="link" data-entity-1="ResumeController" data-entity-2="ResumeService" data-source-line="70" data-uid="lnk19" id="link_ResumeController_ResumeService"><path codeLine="70" d="M547.86,144.23 C610.88,173.47 684.527,207.6453 742.067,234.3353" fill="none" id="ResumeController-to-ResumeService" style="stroke:#181818;stroke-width:1;"/><polygon fill="#181818" points="747.51,236.86,741.0287,229.4443,742.9742,234.7561,737.6624,236.7016,747.51,236.86" style="stroke:#181818;stroke-width:1;"/><text fill="#000000" font-family="sans-serif" font-size="13" lengthAdjust="spacing" textLength="28.5645" x="658.31" y="191.6584">uses</text></g><!--link ResumeController to ResumeApiMapper--><g class="link" data-entity-1="ResumeController" data-entity-2="ResumeApiMapper" data-source-line="71" data-uid="lnk20" id="link_ResumeController_ResumeApiMapper"><path codeLine="71" d="M410.44,143.88 C391.94,170.26 372.5655,197.8779 354.4755,223.6679" fill="none" id="ResumeController-to-ResumeApiMapper" style="stroke:#181818;stroke-width:1;"/><polygon fill="#181818" points="351.03,228.58,359.473,223.5089,353.9013,224.4866,352.9235,218.9149,351.03,228.58" style="stroke:#181818;stroke-width:1;"/><text fill="#000000" font-family="sans-serif" font-size="13" lengthAdjust="spacing" textLength="28.5645" x="386.72" y="191.6584">uses</text></g><!--link BasicResumeApiMapper to ResumeApiMapper--><g class="link" data-entity-1="BasicResumeApiMapper" data-entity-2="ResumeApiMapper" data-source-line="72" data-uid="lnk21" id="link_BasicResumeApiMapper_ResumeApiMapper"><path codeLine="72" d="M145.69,119.52 C177.3,147.32 217.1043,182.3219 256.4643,216.9419" fill="none" id="BasicResumeApiMapper-to-ResumeApiMapper" style="stroke:#181818;stroke-width:1;stroke-dasharray:7,7;"/><polygon fill="none" points="269.98,228.83,260.427,212.4367,252.5016,221.4472,269.98,228.83" style="stroke:#181818;stroke-width:1;"/><text fill="#000000" font-family="sans-serif" font-size="13" lengthAdjust="spacing" textLength="74.0137" x="232.53" y="191.6584">implements</text></g><!--link BasicResumeService to ResumeService--><g class="link" data-entity-1="BasicResumeService" data-entity-2="ResumeService" data-source-line="74" data-uid="lnk22" id="link_BasicResumeService_ResumeService"><path codeLine="74" d="M827.46,127.65 C826.94,158.33 826.4531,186.8626 825.9131,218.9226" fill="none" id="BasicResumeService-to-ResumeService" style="stroke:#181818;stroke-width:1;stroke-dasharray:7,7;"/><polygon fill="none" points="825.61,236.92,831.9123,219.0236,819.914,218.8215,825.61,236.92" style="stroke:#181818;stroke-width:1;"/><text fill="#000000" font-family="sans-serif" font-size="13" lengthAdjust="spacing" textLength="74.0137" x="827.59" y="191.6584">implements</text></g><!--link BasicResumeService to ResumeSaveHandler--><g class="link" data-entity-1="BasicResumeService" data-entity-2="ResumeSaveHandler" data-source-line="75" data-uid="lnk23" id="link_BasicResumeService_ResumeSaveHandler"><path codeLine="75" d="M917.01,127.67 C937.9,134.71 960.15,141.92 981,148.09 C1062.76,172.28 1083.4,178.33 1167,195.09 C1255.56,212.84 1279.22,208.44 1368,225.09 C1373.63,226.14 1373.4526,226.083 1379.2026,227.213" fill="none" id="BasicResumeService-to-ResumeSaveHandler" style="stroke:#181818;stroke-width:1;"/><polygon fill="#181818" points="1385.09,228.37,1377.0302,222.7096,1380.1838,227.4058,1375.4876,230.5594,1385.09,228.37" style="stroke:#181818;stroke-width:1;"/><text fill="#000000" font-family="sans-serif" font-size="13" lengthAdjust="spacing" textLength="73.3218" x="1168" y="191.6584">starts chain</text></g><!--link SqlSaveHandler to ResumeSaveHandler--><g class="link" data-entity-1="SqlSaveHandler" data-entity-2="ResumeSaveHandler" data-source-line="77" data-uid="lnk24" id="link_SqlSaveHandler_ResumeSaveHandler"><path codeLine="77" d="M1835.23,135.84 C1807.74,154.74 1773.75,177.08 1742,195.09 C1724,205.29 1720.6051,207.4619 1701.4951,216.8519" fill="none" id="SqlSaveHandler-to-ResumeSaveHandler" style="stroke:#181818;stroke-width:1;"/><polygon fill="none" points="1685.34,224.79,1704.1411,222.237,1698.8491,211.4669,1685.34,224.79" style="stroke:#181818;stroke-width:1;"/><text fill="#000000" font-family="sans-serif" font-size="13" lengthAdjust="spacing" textLength="50.1973" x="1768.21" y="191.6584">extends</text></g><!--link AiEmbeddingHandler to ResumeSaveHandler--><g class="link" data-entity-1="AiEmbeddingHandler" data-entity-2="ResumeSaveHandler" data-source-line="78" data-uid="lnk25" id="link_AiEmbeddingHandler_ResumeSaveHandler"><path codeLine="78" d="M1355.22,135.93 C1398.25,162.26 1439.5258,187.496 1485.0458,215.346" fill="none" id="AiEmbeddingHandler-to-ResumeSaveHandler" style="stroke:#181818;stroke-width:1;"/><polygon fill="none" points="1500.4,224.74,1488.1771,210.2279,1481.9144,220.4641,1500.4,224.74" style="stroke:#181818;stroke-width:1;"/><text fill="#000000" font-family="sans-serif" font-size="13" lengthAdjust="spacing" textLength="50.1973" x="1452.8" y="191.6584">extends</text></g><!--link VectorSaveHandler to ResumeSaveHandler--><g class="link" data-entity-1="VectorSaveHandler" data-entity-2="ResumeSaveHandler" data-source-line="79" data-uid="lnk26" id="link_VectorSaveHandler_ResumeSaveHandler"><path codeLine="79" d="M1585.2,135.71 C1584.01,162.08 1583.2576,178.8686 1581.9876,206.7986" fill="none" id="VectorSaveHandler-to-ResumeSaveHandler" style="stroke:#181818;stroke-width:1;"/><polygon fill="none" points="1581.17,224.78,1587.9814,207.0711,1575.9938,206.526,1581.17,224.78" style="stroke:#181818;stroke-width:1;"/><text fill="#000000" font-family="sans-serif" font-size="13" lengthAdjust="spacing" textLength="50.1973" x="1584.24" y="191.6584">extends</text></g><!--link SqlSaveHandler to ResumeRepository--><g class="link" data-entity-1="SqlSaveHandler" data-entity-2="ResumeRepository" data-source-line="81" data-uid="lnk27" id="link_SqlSaveHandler_ResumeRepository"><path codeLine="81" d="M1894.14,135.71 C1896.54,166.05 1899.3574,201.5386 1901.6774,230.8986" fill="none" id="SqlSaveHandler-to-ResumeRepository" style="stroke:#181818;stroke-width:1;"/><polygon fill="#181818" points="1902.15,236.88,1905.4286,227.5929,1901.7561,231.8955,1897.4535,228.2231,1902.15,236.88" style="stroke:#181818;stroke-width:1;"/><text fill="#000000" font-family="sans-serif" font-size="13" lengthAdjust="spacing" textLength="28.5645" x="1899.84" y="191.6584">uses</text></g><!--link AiEmbeddingHandler to AIClient--><g class="link" data-entity-1="AiEmbeddingHandler" data-entity-2="AIClient" data-source-line="82" data-uid="lnk28" id="link_AiEmbeddingHandler_AIClient"><path codeLine="82" d="M1273.84,135.71 C1261.49,166.05 1246.8635,201.9633 1234.9035,231.3233" fill="none" id="AiEmbeddingHandler-to-AIClient" style="stroke:#181818;stroke-width:1;"/><polygon fill="#181818" points="1232.64,236.88,1239.7397,230.054,1234.5263,232.2495,1232.3309,227.036,1232.64,236.88" style="stroke:#181818;stroke-width:1;"/><text fill="#000000" font-family="sans-serif" font-size="13" lengthAdjust="spacing" textLength="28.5645" x="1257.16" y="191.6584">uses</text></g><!--link VectorSaveHandler to ResumeRepository--><g class="link" data-entity-1="VectorSaveHandler" data-entity-2="ResumeRepository" data-source-line="83" data-uid="lnk29" id="link_VectorSaveHandler_ResumeRepository"><path codeLine="83" d="M1626.44,135.8 C1647.91,155.73 1675.81,178.98 1704,195.09 C1739.15,215.17 1752.18,210.65 1790,225.09 C1799.69,228.78 1804.238,230.5196 1814.248,234.5696" fill="none" id="VectorSaveHandler-to-ResumeRepository" style="stroke:#181818;stroke-width:1;"/><polygon fill="#181818" points="1819.81,236.82,1812.9672,229.7365,1815.175,234.9447,1809.9668,237.1525,1819.81,236.82" style="stroke:#181818;stroke-width:1;"/><text fill="#000000" font-family="sans-serif" font-size="13" lengthAdjust="spacing" textLength="28.5645" x="1705" y="191.6584">uses</text></g><!--link BasicResumeRepository to ResumeRepository--><g class="link" data-entity-1="BasicResumeRepository" data-entity-2="ResumeRepository" data-source-line="85" data-uid="lnk30" id="link_BasicResumeRepository_ResumeRepository"><path codeLine="85" d="M2121.8,119.52 C2079.3,149.57 2019.9371,191.5479 1970.3671,226.5979" fill="none" id="BasicResumeRepository-to-ResumeRepository" style="stroke:#181818;stroke-width:1;stroke-dasharray:7,7;"/><polygon fill="none" points="1955.67,236.99,1973.8311,231.497,1966.9031,221.6989,1955.67,236.99" style="stroke:#181818;stroke-width:1;"/><text fill="#000000" font-family="sans-serif" font-size="13" lengthAdjust="spacing" textLength="74.0137" x="2038.5" y="191.6584">implements</text></g><!--link QdrantResumeRepository to ResumeRepository--><g class="link" data-entity-1="QdrantResumeRepository" data-entity-2="ResumeRepository" data-source-line="86" data-uid="lnk31" id="link_QdrantResumeRepository_ResumeRepository"><path codeLine="86" d="M2336.39,119.48 C2315.33,128.76 2290.65,139.3 2268,148.09 C2179.16,182.55 2093.4154,211.8259 2019.9154,235.9059" fill="none" id="QdrantResumeRepository-to-ResumeRepository" style="stroke:#181818;stroke-width:1;stroke-dasharray:7,7;"/><polygon fill="none" points="2002.81,241.51,2021.7834,241.6077,2018.0474,230.2041,2002.81,241.51" style="stroke:#181818;stroke-width:1;"/><text fill="#000000" font-family="sans-serif" font-size="13" lengthAdjust="spacing" textLength="74.0137" x="2180.2" y="191.6584">implements</text></g><!--SRC=[dLHTRzem57tthx3Q5wegbIPjceOg962WLjgchKXxcVPmSIx1gcC7sx1LBVzzDad098Pq3H84ttjyplqqZrmMe26dOm76Z80zPbgjPJfMGcbwEVtWFyJitRux3yXmPfy4KetCWim41Wvc2QdwmsL65o0C4bAK27e11R-WpuIwXtao-e1cdUDOIQkL4AWhet-IoZX3lU7CCmN_Mbx3Wd-5ed0tGFsszxccJ2DOx6bSzMlAtSa3hjPex5LzwhuB9Krv_PRiVhYqg1VW53IPRc_lQzjWG2ydxqQJoSSWWcjgrMUL0vUzrAhpp4UWMaPFr-Qp2ijKZi1mrf18ja7ovsl39HgJ29LnLjUX6LwTxkxWM1M8HqMKdbLOiqJA3Hky0vdwPZ3kVRnq-Rj3IDltbG2dj4oobpcTJZ-Dtn_9_A9S8_8qE9bPxPlJub_hEm-b3OmBeS3- -aqthh6L3abXRgm6Pe_OGxdLg7G49Hrjm6VGVdCdlMM_xNiLEGkWpxMYBLtkZA-gmcmbGZbjiGzOACDTy4zkvkhNWFO_k8PyaiynJLswOtp3-x7WBlqKUFdoDfQVkrAT2ggqjaBRLCTl3V0mD_iekaScGxjFYEdv1knNtUWugiuxjti2_TraVdfE1n5kXXGi9C2OMmx7wpcOs4QcIlkFL8EqBGTtTskn9ycWiM7wT6tGdFCyhDhADxRZwCtDImp0yq9WxkfY28bidW1r41HW8f0WXA3N-jHOqDPGvZSL8OtvIfANECeL7sLgI6H6EZ7jZk-4j7KDsarLfJagQN1ezCejfkBqfIJQJ64TZZ11AU9TzXhaFm00]--></g></svg>