<svg xmlns="http://www.w3.org/2000/svg" xmlns:xlink="http://www.w3.org/1999/xlink" contentStyleType="text/css" data-diagram-type="SEQUENCE" height="463.8px" preserveAspectRatio="none" style="width:858px;height:463px;background:#FFFFFF;" version="1.1" viewBox="0 0 858 463" width="858px" zoomAndPan="magnify"><defs/><g><rect fill="#F5F5F5" height="456.7125" style="stroke:#181818;stroke-width:0.3;" width="372.9234" x="323.8374" y="3.6"/><text fill="#000000" font-family="sans-serif" font-size="7.8" font-weight="bold" lengthAdjust="spacing" textLength="33.4471" x="493.5756" y="11.141">Backend</text><g><title>WebSPA</title><rect fill="#FFFFFF" height="334.1402" style="stroke:#181818;stroke-width:0.6;" width="6" x="223.299" y="67.6793"/></g><g><title>MatchingController</title><rect fill="#FFFFFF" height="298.9676" style="stroke:#181818;stroke-width:0.6;" width="6" x="366.5909" y="85.2656"/></g><g><title>MatchingService</title><rect fill="#FFFFFF" height="263.7949" style="stroke:#181818;stroke-width:0.6;" width="6" x="491.8084" y="102.852"/></g><g><title>...........</title><rect fill="#FFFFFF" height="52.759" style="stroke:#181818;stroke-width:0.6;" width="6" x="660.0782" y="120.4383"/></g><g><title>...........</title><rect fill="#FFFFFF" height="52.759" style="stroke:#181818;stroke-width:0.6;" width="6" x="660.0782" y="225.9562"/></g><g><title>...........</title><rect fill="#FFFFFF" height="52.759" style="stroke:#181818;stroke-width:0.6;" width="6" x="660.0782" y="296.3016"/></g><g><title>AIService</title><rect fill="#FFFFFF" height="17.5863" style="stroke:#181818;stroke-width:0.6;" width="6" x="719.8682" y="190.7836"/></g><g><title>Qdrant</title><rect fill="#FFFFFF" height="17.5863" style="stroke:#181818;stroke-width:0.6;" width="6" x="783.041" y="243.5426"/></g><g><title>PostgreSQL</title><rect fill="#FFFFFF" height="17.5863" style="stroke:#181818;stroke-width:0.6;" width="6" x="829.8176" y="138.0246"/></g><g><title>PostgreSQL</title><rect fill="#FFFFFF" height="17.5863" style="stroke:#181818;stroke-width:0.6;" width="6" x="829.8176" y="313.8879"/></g><g><title>............</title><rect fill="#000000" fill-opacity="0.00000" height="363.7266" width="4.8" x="30.9038" y="48.893"/><line style="stroke:#181818;stroke-width:0.3;stroke-dasharray:3,3;" x1="33" x2="33" y1="48.893" y2="412.6195"/></g><g><title>WebSPA</title><rect fill="#000000" fill-opacity="0.00000" height="363.7266" width="4.8" x="223.899" y="48.893"/><line style="stroke:#181818;stroke-width:0.3;stroke-dasharray:3,3;" x1="225.8414" x2="225.8414" y1="48.893" y2="412.6195"/></g><g><title>MatchingController</title><rect fill="#000000" fill-opacity="0.00000" height="363.7266" width="4.8" x="367.1909" y="48.893"/><line style="stroke:#181818;stroke-width:0.3;stroke-dasharray:3,3;" x1="369.4374" x2="369.4374" y1="48.893" y2="412.6195"/></g><g><title>MatchingService</title><rect fill="#000000" fill-opacity="0.00000" height="363.7266" width="4.8" x="492.4084" y="48.893"/><line style="stroke:#181818;stroke-width:0.3;stroke-dasharray:3,3;" x1="494.3036" x2="494.3036" y1="48.893" y2="412.6195"/></g><g><title>...........</title><rect fill="#000000" fill-opacity="0.00000" height="363.7266" width="4.8" x="660.6782" y="48.893"/><line style="stroke:#181818;stroke-width:0.3;stroke-dasharray:3,3;" x1="662.9956" x2="662.9956" y1="48.893" y2="412.6195"/></g><g><title>AIService</title><rect fill="#000000" fill-opacity="0.00000" height="363.7266" width="4.8" x="720.4682" y="48.893"/><line style="stroke:#181818;stroke-width:0.3;stroke-dasharray:3,3;" x1="722.5608" x2="722.5608" y1="48.893" y2="412.6195"/></g><g><title>Qdrant</title><rect fill="#000000" fill-opacity="0.00000" height="363.7266" width="4.8" x="783.641" y="48.893"/><line style="stroke:#181818;stroke-width:0.3;stroke-dasharray:3,3;" x1="785.7193" x2="785.7193" y1="48.893" y2="412.6195"/></g><g><title>PostgreSQL</title><rect fill="#000000" fill-opacity="0.00000" height="363.7266" width="4.8" x="830.4176" y="48.893"/><line style="stroke:#181818;stroke-width:0.3;stroke-dasharray:3,3;" x1="832.5627" x2="832.5627" y1="48.893" y2="412.6195"/></g><g class="participant participant-head" data-participant="User"><text fill="#000000" font-family="sans-serif" font-size="8.4" lengthAdjust="spacing" textLength="57.0076" x="3" y="47.1211">&#1056;&#1072;&#1073;&#1086;&#1090;&#1086;&#1076;&#1072;&#1090;&#1077;&#1083;&#1100;</text><ellipse cx="33.3038" cy="8.1" fill="#E2E2F0" rx="4.8" ry="4.8" style="stroke:#181818;stroke-width:0.3;"/><path d="M33.3038,12.9 L33.3038,29.1 M25.5038,17.7 L41.1038,17.7 M33.3038,29.1 L25.5038,38.1 M33.3038,29.1 L41.1038,38.1" fill="none" style="stroke:#181818;stroke-width:0.3;"/></g><g class="participant participant-tail" data-participant="User"><text fill="#000000" font-family="sans-serif" font-size="8.4" lengthAdjust="spacing" textLength="57.0076" x="3" y="420.1406">&#1056;&#1072;&#1073;&#1086;&#1090;&#1086;&#1076;&#1072;&#1090;&#1077;&#1083;&#1100;</text><ellipse cx="33.3038" cy="427.0125" fill="#E2E2F0" rx="4.8" ry="4.8" style="stroke:#181818;stroke-width:0.3;"/><path d="M33.3038,431.8125 L33.3038,448.0125 M25.5038,436.6125 L41.1038,436.6125 M33.3038,448.0125 L25.5038,457.0125 M33.3038,448.0125 L41.1038,457.0125" fill="none" style="stroke:#181818;stroke-width:0.3;"/></g><g class="participant participant-head" data-participant="SPA"><rect fill="#E2E2F0" height="18.293" rx="1.5" ry="1.5" style="stroke:#181818;stroke-width:0.3;" width="40.5152" x="206.0414" y="30"/><text fill="#000000" font-family="sans-serif" font-size="8.4" lengthAdjust="spacing" textLength="32.1152" x="210.2414" y="42.3211">WebSPA</text></g><g class="participant participant-tail" data-participant="SPA"><rect fill="#E2E2F0" height="18.293" rx="1.5" ry="1.5" style="stroke:#181818;stroke-width:0.3;" width="40.5152" x="206.0414" y="412.0195"/><text fill="#000000" font-family="sans-serif" font-size="8.4" lengthAdjust="spacing" textLength="32.1152" x="210.2414" y="424.3406">WebSPA</text></g><g class="participant participant-head" data-participant="CTRL"><rect fill="#E2E2F0" height="18.293" rx="1.5" ry="1.5" style="stroke:#181818;stroke-width:0.3;" width="86.707" x="326.2374" y="30"/><text fill="#000000" font-family="sans-serif" font-size="8.4" lengthAdjust="spacing" textLength="78.307" x="330.4374" y="42.3211">MatchingController</text></g><g class="participant participant-tail" data-participant="CTRL"><rect fill="#E2E2F0" height="18.293" rx="1.5" ry="1.5" style="stroke:#181818;stroke-width:0.3;" width="86.707" x="326.2374" y="412.0195"/><text fill="#000000" font-family="sans-serif" font-size="8.4" lengthAdjust="spacing" textLength="78.307" x="330.4374" y="424.3406">MatchingController</text></g><g class="participant participant-head" data-participant="SVC"><rect fill="#E2E2F0" height="18.293" rx="1.5" ry="1.5" style="stroke:#181818;stroke-width:0.3;" width="74.2096" x="457.7036" y="30"/><text fill="#000000" font-family="sans-serif" font-size="8.4" lengthAdjust="spacing" textLength="65.8096" x="461.9036" y="42.3211">MatchingService</text></g><g class="participant participant-tail" data-participant="SVC"><rect fill="#E2E2F0" height="18.293" rx="1.5" ry="1.5" style="stroke:#181818;stroke-width:0.3;" width="74.2096" x="457.7036" y="412.0195"/><text fill="#000000" font-family="sans-serif" font-size="8.4" lengthAdjust="spacing" textLength="65.8096" x="461.9036" y="424.3406">MatchingService</text></g><g class="participant participant-head" data-participant="REPO"><rect fill="#E2E2F0" height="18.293" rx="1.5" ry="1.5" style="stroke:#181818;stroke-width:0.3;" width="62.5652" x="631.7956" y="30"/><text fill="#000000" font-family="sans-serif" font-size="8.4" lengthAdjust="spacing" textLength="54.1652" x="635.9956" y="42.3211">&#1056;&#1077;&#1087;&#1086;&#1079;&#1080;&#1090;&#1086;&#1088;&#1080;&#1080;</text></g><g class="participant participant-tail" data-participant="REPO"><rect fill="#E2E2F0" height="18.293" rx="1.5" ry="1.5" style="stroke:#181818;stroke-width:0.3;" width="62.5652" x="631.7956" y="412.0195"/><text fill="#000000" font-family="sans-serif" font-size="8.4" lengthAdjust="spacing" textLength="54.1652" x="635.9956" y="424.3406">&#1056;&#1077;&#1087;&#1086;&#1079;&#1080;&#1090;&#1086;&#1088;&#1080;&#1080;</text></g><g class="participant participant-head" data-participant="AI"><rect fill="#E2E2F0" height="18.293" rx="1.5" ry="1.5" style="stroke:#181818;stroke-width:0.3;" width="45.0146" x="700.3608" y="30"/><text fill="#000000" font-family="sans-serif" font-size="8.4" lengthAdjust="spacing" textLength="36.6146" x="704.5608" y="42.3211">AIService</text></g><g class="participant participant-tail" data-participant="AI"><rect fill="#E2E2F0" height="18.293" rx="1.5" ry="1.5" style="stroke:#181818;stroke-width:0.3;" width="45.0146" x="700.3608" y="412.0195"/><text fill="#000000" font-family="sans-serif" font-size="8.4" lengthAdjust="spacing" textLength="36.6146" x="704.5608" y="424.3406">AIService</text></g><g class="participant participant-head" data-participant="VDB"><text fill="#000000" font-family="sans-serif" font-size="8.4" lengthAdjust="spacing" textLength="28.2434" x="770.1193" y="47.1211">Qdrant</text><path d="M775.241,17.4 C775.241,11.4 786.041,11.4 786.041,11.4 C786.041,11.4 796.841,11.4 796.841,17.4 L796.841,33 C796.841,39 786.041,39 786.041,39 C786.041,39 775.241,39 775.241,33 L775.241,17.4" fill="#E2E2F0" style="stroke:#181818;stroke-width:0.3;"/><path d="M775.241,17.4 C775.241,23.4 786.041,23.4 786.041,23.4 C786.041,23.4 796.841,23.4 796.841,17.4" fill="none" style="stroke:#181818;stroke-width:0.3;"/></g><g class="participant participant-tail" data-participant="VDB"><text fill="#000000" font-family="sans-serif" font-size="8.4" lengthAdjust="spacing" textLength="28.2434" x="770.1193" y="420.1406">Qdrant</text><path d="M775.241,427.9125 C775.241,421.9125 786.041,421.9125 786.041,421.9125 C786.041,421.9125 796.841,421.9125 796.841,427.9125 L796.841,443.5125 C796.841,449.5125 786.041,449.5125 786.041,449.5125 C786.041,449.5125 775.241,449.5125 775.241,443.5125 L775.241,427.9125" fill="#E2E2F0" style="stroke:#181818;stroke-width:0.3;"/><path d="M775.241,427.9125 C775.241,433.9125 786.041,433.9125 786.041,433.9125 C786.041,433.9125 796.841,433.9125 796.841,427.9125" fill="none" style="stroke:#181818;stroke-width:0.3;"/></g><g class="participant participant-head" data-participant="DB"><text fill="#000000" font-family="sans-serif" font-size="8.4" lengthAdjust="spacing" textLength="46.1098" x="807.9627" y="47.1211">PostgreSQL</text><path d="M822.0176,17.4 C822.0176,11.4 832.8176,11.4 832.8176,11.4 C832.8176,11.4 843.6176,11.4 843.6176,17.4 L843.6176,33 C843.6176,39 832.8176,39 832.8176,39 C832.8176,39 822.0176,39 822.0176,33 L822.0176,17.4" fill="#E2E2F0" style="stroke:#181818;stroke-width:0.3;"/><path d="M822.0176,17.4 C822.0176,23.4 832.8176,23.4 832.8176,23.4 C832.8176,23.4 843.6176,23.4 843.6176,17.4" fill="none" style="stroke:#181818;stroke-width:0.3;"/></g><g class="participant participant-tail" data-participant="DB"><text fill="#000000" font-family="sans-serif" font-size="8.4" lengthAdjust="spacing" textLength="46.1098" x="807.9627" y="420.1406">PostgreSQL</text><path d="M822.0176,427.9125 C822.0176,421.9125 832.8176,421.9125 832.8176,421.9125 C832.8176,421.9125 843.6176,421.9125 843.6176,427.9125 L843.6176,443.5125 C843.6176,449.5125 832.8176,449.5125 832.8176,449.5125 C832.8176,449.5125 822.0176,449.5125 822.0176,443.5125 L822.0176,427.9125" fill="#E2E2F0" style="stroke:#181818;stroke-width:0.3;"/><path d="M822.0176,427.9125 C822.0176,433.9125 832.8176,433.9125 832.8176,433.9125 C832.8176,433.9125 843.6176,433.9125 843.6176,427.9125" fill="none" style="stroke:#181818;stroke-width:0.3;"/></g><g><title>WebSPA</title><rect fill="#FFFFFF" height="334.1402" style="stroke:#181818;stroke-width:0.6;" width="6" x="223.299" y="67.6793"/></g><g><title>MatchingController</title><rect fill="#FFFFFF" height="298.9676" style="stroke:#181818;stroke-width:0.6;" width="6" x="366.5909" y="85.2656"/></g><g><title>MatchingService</title><rect fill="#FFFFFF" height="263.7949" style="stroke:#181818;stroke-width:0.6;" width="6" x="491.8084" y="102.852"/></g><g><title>...........</title><rect fill="#FFFFFF" height="52.759" style="stroke:#181818;stroke-width:0.6;" width="6" x="660.0782" y="120.4383"/></g><g><title>...........</title><rect fill="#FFFFFF" height="52.759" style="stroke:#181818;stroke-width:0.6;" width="6" x="660.0782" y="225.9562"/></g><g><title>...........</title><rect fill="#FFFFFF" height="52.759" style="stroke:#181818;stroke-width:0.6;" width="6" x="660.0782" y="296.3016"/></g><g><title>AIService</title><rect fill="#FFFFFF" height="17.5863" style="stroke:#181818;stroke-width:0.6;" width="6" x="719.8682" y="190.7836"/></g><g><title>Qdrant</title><rect fill="#FFFFFF" height="17.5863" style="stroke:#181818;stroke-width:0.6;" width="6" x="783.041" y="243.5426"/></g><g><title>PostgreSQL</title><rect fill="#FFFFFF" height="17.5863" style="stroke:#181818;stroke-width:0.6;" width="6" x="829.8176" y="138.0246"/></g><g><title>PostgreSQL</title><rect fill="#FFFFFF" height="17.5863" style="stroke:#181818;stroke-width:0.6;" width="6" x="829.8176" y="313.8879"/></g><g class="message" data-participant-1="User" data-participant-2="SPA"><polygon fill="#181818" points="216.099,65.2793,222.099,67.6793,216.099,70.0793,218.499,67.6793" style="stroke:#181818;stroke-width:0.6;"/><line style="stroke:#181818;stroke-width:0.6;" x1="33.3038" x2="219.699" y1="67.6793" y2="67.6793"/><text fill="#000000" font-family="sans-serif" font-size="7.8" lengthAdjust="spacing" textLength="72.1271" x="37.5038" y="64.834">&#1053;&#1072;&#1081;&#1090;&#1080; &#1082;&#1072;&#1085;&#1076;&#1080;&#1076;&#1072;&#1090;&#1086;&#1074;</text></g><g class="message" data-participant-1="SPA" data-participant-2="CTRL"><polygon fill="#181818" points="359.3909,82.8656,365.3909,85.2656,359.3909,87.6656,361.7909,85.2656" style="stroke:#181818;stroke-width:0.6;"/><line style="stroke:#181818;stroke-width:0.6;" x1="229.299" x2="362.9909" y1="85.2656" y2="85.2656"/><text fill="#000000" font-family="sans-serif" font-size="7.8" lengthAdjust="spacing" textLength="112.9667" x="233.499" y="82.4203">&#1047;&#1072;&#1087;&#1088;&#1086;&#1089; &#1085;&#1072; &#1087;&#1086;&#1080;&#1089;&#1082; &#1089;&#1086;&#1074;&#1087;&#1072;&#1076;&#1077;&#1085;&#1080;&#1081;</text></g><g class="message" data-participant-1="CTRL" data-participant-2="SVC"><polygon fill="#181818" points="484.6084,100.452,490.6084,102.852,484.6084,105.252,487.0084,102.852" style="stroke:#181818;stroke-width:0.6;"/><line style="stroke:#181818;stroke-width:0.6;" x1="372.5909" x2="488.2084" y1="102.852" y2="102.852"/><text fill="#000000" font-family="sans-serif" font-size="7.8" lengthAdjust="spacing" textLength="107.8175" x="376.7909" y="100.0066">&#1053;&#1072;&#1081;&#1090;&#1080; &#1087;&#1086;&#1076;&#1093;&#1086;&#1076;&#1103;&#1097;&#1080;&#1077; &#1088;&#1077;&#1079;&#1102;&#1084;&#1077;</text></g><g class="message" data-participant-1="SVC" data-participant-2="REPO"><polygon fill="#181818" points="652.8782,118.0383,658.8782,120.4383,652.8782,122.8383,655.2782,120.4383" style="stroke:#181818;stroke-width:0.6;"/><line style="stroke:#181818;stroke-width:0.6;" x1="497.8084" x2="656.4782" y1="120.4383" y2="120.4383"/><text fill="#000000" font-family="sans-serif" font-size="7.8" lengthAdjust="spacing" textLength="113.6751" x="502.0084" y="117.593">&#1055;&#1086;&#1083;&#1091;&#1095;&#1080;&#1090;&#1100; &#1086;&#1087;&#1080;&#1089;&#1072;&#1085;&#1080;&#1077; &#1074;&#1072;&#1082;&#1072;&#1085;&#1089;&#1080;&#1080;</text></g><g class="message" data-participant-1="REPO" data-participant-2="DB"><polygon fill="#181818" points="822.6176,135.6246,828.6176,138.0246,822.6176,140.4246,825.0176,138.0246" style="stroke:#181818;stroke-width:0.6;"/><line style="stroke:#181818;stroke-width:0.6;" x1="666.0782" x2="826.2176" y1="138.0246" y2="138.0246"/><text fill="#000000" font-family="sans-serif" font-size="7.8" lengthAdjust="spacing" textLength="92.5298" x="670.2782" y="135.1793">&#1047;&#1072;&#1087;&#1088;&#1086;&#1089; &#1090;&#1077;&#1082;&#1089;&#1090;&#1072; &#1074;&#1072;&#1082;&#1072;&#1085;&#1089;&#1080;&#1080;</text></g><g class="message" data-participant-1="DB" data-participant-2="REPO"><polygon fill="#181818" points="672.6782,153.2109,666.6782,155.6109,672.6782,158.0109,670.2782,155.6109" style="stroke:#181818;stroke-width:0.6;"/><line style="stroke:#181818;stroke-width:0.6;stroke-dasharray:1.2,1.2;" x1="669.0782" x2="832.2176" y1="155.6109" y2="155.6109"/><text fill="#000000" font-family="sans-serif" font-size="7.8" lengthAdjust="spacing" textLength="59.7264" x="676.2782" y="152.7656">&#1058;&#1077;&#1082;&#1089;&#1090; &#1074;&#1072;&#1082;&#1072;&#1085;&#1089;&#1080;&#1080;</text></g><g class="message" data-participant-1="REPO" data-participant-2="SVC"><polygon fill="#181818" points="504.4084,170.7973,498.4084,173.1973,504.4084,175.5973,502.0084,173.1973" style="stroke:#181818;stroke-width:0.6;"/><line style="stroke:#181818;stroke-width:0.6;stroke-dasharray:1.2,1.2;" x1="500.8084" x2="662.4782" y1="173.1973" y2="173.1973"/><text fill="#000000" font-family="sans-serif" font-size="7.8" lengthAdjust="spacing" textLength="68.2271" x="508.0084" y="170.352">&#1044;&#1072;&#1085;&#1085;&#1099;&#1077; &#1074;&#1072;&#1082;&#1072;&#1085;&#1089;&#1080;&#1080;</text></g><g class="message" data-participant-1="SVC" data-participant-2="AI"><polygon fill="#181818" points="712.6682,188.3836,718.6682,190.7836,712.6682,193.1836,715.0682,190.7836" style="stroke:#181818;stroke-width:0.6;"/><line style="stroke:#181818;stroke-width:0.6;" x1="497.8084" x2="716.2682" y1="190.7836" y2="190.7836"/><text fill="#000000" font-family="sans-serif" font-size="7.8" lengthAdjust="spacing" textLength="119.4261" x="502.0084" y="187.9383">&#1055;&#1086;&#1083;&#1091;&#1095;&#1080;&#1090;&#1100; &#1101;&#1084;&#1073;&#1077;&#1076;&#1076;&#1080;&#1085;&#1075; &#1074;&#1072;&#1082;&#1072;&#1085;&#1089;&#1080;&#1080;</text></g><g class="message" data-participant-1="AI" data-participant-2="SVC"><polygon fill="#181818" points="504.4084,205.9699,498.4084,208.3699,504.4084,210.7699,502.0084,208.3699" style="stroke:#181818;stroke-width:0.6;"/><line style="stroke:#181818;stroke-width:0.6;stroke-dasharray:1.2,1.2;" x1="500.8084" x2="722.2682" y1="208.3699" y2="208.3699"/><text fill="#000000" font-family="sans-serif" font-size="7.8" lengthAdjust="spacing" textLength="64.986" x="508.0084" y="205.5246">&#1042;&#1077;&#1082;&#1090;&#1086;&#1088; &#1074;&#1072;&#1082;&#1072;&#1085;&#1089;&#1080;&#1080;</text></g><g class="message" data-participant-1="SVC" data-participant-2="REPO"><polygon fill="#181818" points="652.8782,223.5563,658.8782,225.9562,652.8782,228.3563,655.2782,225.9562" style="stroke:#181818;stroke-width:0.6;"/><line style="stroke:#181818;stroke-width:0.6;" x1="497.8084" x2="656.4782" y1="225.9562" y2="225.9562"/><text fill="#000000" font-family="sans-serif" font-size="7.8" lengthAdjust="spacing" textLength="94.7807" x="502.0084" y="223.1109">&#1053;&#1072;&#1081;&#1090;&#1080; &#1087;&#1086;&#1093;&#1086;&#1078;&#1080;&#1077; &#1074;&#1077;&#1082;&#1090;&#1086;&#1088;&#1099;</text></g><g class="message" data-participant-1="REPO" data-participant-2="VDB"><polygon fill="#181818" points="775.841,241.1426,781.841,243.5426,775.841,245.9426,778.241,243.5426" style="stroke:#181818;stroke-width:0.6;"/><line style="stroke:#181818;stroke-width:0.6;" x1="666.0782" x2="779.441" y1="243.5426" y2="243.5426"/><text fill="#000000" font-family="sans-serif" font-size="7.8" lengthAdjust="spacing" textLength="105.5628" x="670.2782" y="240.6973">&#1055;&#1086;&#1080;&#1089;&#1082; &#1073;&#1083;&#1080;&#1078;&#1072;&#1081;&#1096;&#1080;&#1093; &#1089;&#1086;&#1089;&#1077;&#1076;&#1077;&#1081;</text></g><g class="message" data-participant-1="VDB" data-participant-2="REPO"><polygon fill="#181818" points="672.6782,258.7289,666.6782,261.1289,672.6782,263.5289,670.2782,261.1289" style="stroke:#181818;stroke-width:0.6;"/><line style="stroke:#181818;stroke-width:0.6;stroke-dasharray:1.2,1.2;" x1="669.0782" x2="785.441" y1="261.1289" y2="261.1289"/><text fill="#000000" font-family="sans-serif" font-size="7.8" lengthAdjust="spacing" textLength="97.8809" x="676.2782" y="258.2836">&#1057;&#1087;&#1080;&#1089;&#1086;&#1082; ID &#1080; &#1074;&#1077;&#1089;&#1086;&#1074; (score)</text></g><g class="message" data-participant-1="REPO" data-participant-2="SVC"><polygon fill="#181818" points="504.4084,276.3152,498.4084,278.7152,504.4084,281.1152,502.0084,278.7152" style="stroke:#181818;stroke-width:0.6;"/><line style="stroke:#181818;stroke-width:0.6;stroke-dasharray:1.2,1.2;" x1="500.8084" x2="662.4782" y1="278.7152" y2="278.7152"/><text fill="#000000" font-family="sans-serif" font-size="7.8" lengthAdjust="spacing" textLength="70.04" x="508.0084" y="275.8699">&#1057;&#1087;&#1080;&#1089;&#1086;&#1082; ID &#1080; &#1074;&#1077;&#1089;&#1086;&#1074;</text></g><g class="message" data-participant-1="SVC" data-participant-2="REPO"><polygon fill="#181818" points="652.8782,293.9016,658.8782,296.3016,652.8782,298.7016,655.2782,296.3016" style="stroke:#181818;stroke-width:0.6;"/><line style="stroke:#181818;stroke-width:0.6;" x1="497.8084" x2="656.4782" y1="296.3016" y2="296.3016"/><text fill="#000000" font-family="sans-serif" font-size="7.8" lengthAdjust="spacing" textLength="150.8698" x="502.0084" y="293.4563">&#1055;&#1086;&#1083;&#1091;&#1095;&#1080;&#1090;&#1100; &#1087;&#1086;&#1083;&#1085;&#1099;&#1077; &#1076;&#1072;&#1085;&#1085;&#1099;&#1077; &#1087;&#1086; &#1089;&#1087;&#1080;&#1089;&#1082;&#1091; ID</text></g><g class="message" data-participant-1="REPO" data-participant-2="DB"><polygon fill="#181818" points="822.6176,311.4879,828.6176,313.8879,822.6176,316.2879,825.0176,313.8879" style="stroke:#181818;stroke-width:0.6;"/><line style="stroke:#181818;stroke-width:0.6;" x1="666.0782" x2="826.2176" y1="313.8879" y2="313.8879"/><text fill="#000000" font-family="sans-serif" font-size="7.8" lengthAdjust="spacing" textLength="101.1105" x="670.2782" y="311.0426">&#1047;&#1072;&#1087;&#1088;&#1086;&#1089; &#1076;&#1072;&#1085;&#1085;&#1099;&#1093; &#1087;&#1088;&#1086;&#1092;&#1080;&#1083;&#1077;&#1081;</text></g><g class="message" data-participant-1="DB" data-participant-2="REPO"><polygon fill="#181818" points="672.6782,329.0742,666.6782,331.4742,672.6782,333.8742,670.2782,331.4742" style="stroke:#181818;stroke-width:0.6;"/><line style="stroke:#181818;stroke-width:0.6;stroke-dasharray:1.2,1.2;" x1="669.0782" x2="832.2176" y1="331.4742" y2="331.4742"/><text fill="#000000" font-family="sans-serif" font-size="7.8" lengthAdjust="spacing" textLength="80.8526" x="676.2782" y="328.6289">&#1044;&#1072;&#1085;&#1085;&#1099;&#1077; &#1089;&#1086;&#1080;&#1089;&#1082;&#1072;&#1090;&#1077;&#1083;&#1077;&#1081;</text></g><g class="message" data-participant-1="REPO" data-participant-2="SVC"><polygon fill="#181818" points="504.4084,346.6605,498.4084,349.0605,504.4084,351.4605,502.0084,349.0605" style="stroke:#181818;stroke-width:0.6;"/><line style="stroke:#181818;stroke-width:0.6;stroke-dasharray:1.2,1.2;" x1="500.8084" x2="662.4782" y1="349.0605" y2="349.0605"/><text fill="#000000" font-family="sans-serif" font-size="7.8" lengthAdjust="spacing" textLength="70.1314" x="508.0084" y="346.2152">&#1057;&#1087;&#1080;&#1089;&#1086;&#1082; &#1087;&#1088;&#1086;&#1092;&#1080;&#1083;&#1077;&#1081;</text></g><g class="message" data-participant-1="SVC" data-participant-2="CTRL"><polygon fill="#181818" points="379.1909,364.2469,373.1909,366.6469,379.1909,369.0469,376.7909,366.6469" style="stroke:#181818;stroke-width:0.6;"/><line style="stroke:#181818;stroke-width:0.6;stroke-dasharray:1.2,1.2;" x1="375.5909" x2="494.2084" y1="366.6469" y2="366.6469"/><text fill="#000000" font-family="sans-serif" font-size="7.8" lengthAdjust="spacing" textLength="78.7579" x="382.7909" y="363.8016">&#1056;&#1077;&#1079;&#1091;&#1083;&#1100;&#1090;&#1072;&#1090;&#1099; &#1087;&#1086;&#1076;&#1073;&#1086;&#1088;&#1072;</text></g><g class="message" data-participant-1="CTRL" data-participant-2="SPA"><polygon fill="#181818" points="235.899,381.8332,229.899,384.2332,235.899,386.6332,233.499,384.2332" style="stroke:#181818;stroke-width:0.6;"/><line style="stroke:#181818;stroke-width:0.6;stroke-dasharray:1.2,1.2;" x1="232.299" x2="368.9909" y1="384.2332" y2="384.2332"/><text fill="#000000" font-family="sans-serif" font-size="7.8" lengthAdjust="spacing" textLength="122.8919" x="239.499" y="381.3879">&#1057;&#1087;&#1080;&#1089;&#1086;&#1082; &#1087;&#1086;&#1076;&#1093;&#1086;&#1076;&#1103;&#1097;&#1080;&#1093; &#1087;&#1088;&#1086;&#1092;&#1080;&#1083;&#1077;&#1081;</text></g><g class="message" data-participant-1="SPA" data-participant-2="User"><polygon fill="#181818" points="39.9038,399.4195,33.9038,401.8195,39.9038,404.2195,37.5038,401.8195" style="stroke:#181818;stroke-width:0.6;"/><line style="stroke:#181818;stroke-width:0.6;stroke-dasharray:1.2,1.2;" x1="36.3038" x2="225.699" y1="401.8195" y2="401.8195"/><text fill="#000000" font-family="sans-serif" font-size="7.8" lengthAdjust="spacing" textLength="175.5952" x="43.5038" y="398.9742">&#1054;&#1090;&#1086;&#1073;&#1088;&#1072;&#1078;&#1077;&#1085;&#1080;&#1077; &#1088;&#1077;&#1082;&#1086;&#1084;&#1077;&#1085;&#1076;&#1086;&#1074;&#1072;&#1085;&#1085;&#1099;&#1093; &#1082;&#1072;&#1085;&#1076;&#1080;&#1076;&#1072;&#1090;&#1086;&#1074;</text></g><!--SRC=[ZLJBRjD05DtFLupC1XRz0HP8UR28L4JQWBkUEAFMQeahnwfODeGAK0f828aLRU4B78XRDscINvZv8yvSvp7EIqJAE9cPU-wvvruVuKL1o1rresBLKsFzJerLNyLu9cgeBnqkMlnrIuQCdOemyZt_L3GZxXp8UgrQe5Cy6Qi7RxbJ5DwnR3OS_kZWo8zaxKrmB1d79nVwGaJUaTyyB0NDA0nEJcH8CALN-xkRBzTaUEPxCalebbOlee14JK3-JgMc27skKfNI_VtdrPSCl3X8BfLHgDZ0XGfhY4ZKHKjoPwyHuWhjk-MYTL0DMj5XA6jxktI8CsO4uZlFZ1HFkVe9AU_18ULgW9yZw9bEDHshFqnuaNyc8fa9XyL4ckeH-WFt9w0-rcsEm9XJIQbkgm77Wd1in01BS9gg-mKOoSVCIaJSKfw8WUdh2rg_wa-8JJZo9EfEVr4FAh5OGLs6nS0OvO1pZR2XxkWFHbfzoV5tGgHYOf5mq8gpMh49sHTefBrP35ovk5GYJTb0j_6Cju10udAHxom8_Pw5hGOrf1sMPPuByfqOZtHt7MShabZFH2XKraYWFqEr7cZqgRiZzNSBVynLeMBH-4RqQKYtqa3SKYVo7QL-tiuwCCVKtGtwkzI0w_b4eO0Xecy9z2CsBsZ8y4renApnCg-0cs_2h-aGZ85KANF32IIoAUMFMruGoYTsDUvgFxP1REp7fg4q8pwSDRTlTnedfh0irq1taEj_9tG1176ck- -XsJ0lpyg4sfD6zL3gcQzIyDP9jPLPIRjUcOMBtD1xtJ7-RTuioDETEW1P_BcARGXwuJFZc5jOFlsoTwoJmWBCh8YC3O366u5uHUxNCyanSCdKECY21ZXueAq-EPmb-3h_jAd3GVy1]--></g></svg>