<svg xmlns="http://www.w3.org/2000/svg" xmlns:xlink="http://www.w3.org/1999/xlink" contentStyleType="text/css" data-diagram-type="SEQUENCE" height="393px" preserveAspectRatio="none" style="width:753px;height:393px;background:#FFFFFF;" version="1.1" viewBox="0 0 753 393" width="753.6px" zoomAndPan="magnify"><defs/><g><rect fill="#F5F5F5" height="386.3672" style="stroke:#181818;stroke-width:0.3;" width="329.4542" x="222.8323" y="3.6"/><text fill="#000000" font-family="sans-serif" font-size="7.8" font-weight="bold" lengthAdjust="spacing" textLength="33.4471" x="370.8359" y="11.141">Backend</text><g><title>WebSPA</title><rect fill="#FFFFFF" height="263.7949" style="stroke:#181818;stroke-width:0.6;" width="6" x="136.2202" y="67.6793"/></g><g><title>ResumeController</title><rect fill="#FFFFFF" height="228.6223" style="stroke:#181818;stroke-width:0.6;" width="6" x="262.885" y="85.2656"/></g><g><title>ResumeService</title><rect fill="#FFFFFF" height="193.4496" style="stroke:#181818;stroke-width:0.6;" width="6" x="392.8849" y="102.852"/></g><g><title>...........</title><rect fill="#FFFFFF" height="52.759" style="stroke:#181818;stroke-width:0.6;" width="6" x="515.6039" y="120.4383"/></g><g><title>...........</title><rect fill="#FFFFFF" height="52.759" style="stroke:#181818;stroke-width:0.6;" width="6" x="515.6039" y="225.9562"/></g><g><title>PostgreSQL</title><rect fill="#FFFFFF" height="17.5863" style="stroke:#181818;stroke-width:0.6;" width="6" x="632.0121" y="138.0246"/></g><g><title>AIService</title><rect fill="#FFFFFF" height="17.5863" style="stroke:#181818;stroke-width:0.6;" width="6" x="685.3743" y="190.7836"/></g><g><title>Qdrant</title><rect fill="#FFFFFF" height="17.5863" style="stroke:#181818;stroke-width:0.6;" width="6" x="729.8033" y="243.5426"/></g><g><title>..........</title><rect fill="#000000" fill-opacity="0.00000" height="293.3812" width="4.8" x="26.3306" y="48.893"/><line style="stroke:#181818;stroke-width:0.3;stroke-dasharray:3,3;" x1="28.2" x2="28.2" y1="48.893" y2="342.2742"/></g><g><title>WebSPA</title><rect fill="#000000" fill-opacity="0.00000" height="293.3812" width="4.8" x="136.8202" y="48.893"/><line style="stroke:#181818;stroke-width:0.3;stroke-dasharray:3,3;" x1="138.7626" x2="138.7626" y1="48.893" y2="342.2742"/></g><g><title>ResumeController</title><rect fill="#000000" fill-opacity="0.00000" height="293.3812" width="4.8" x="263.485" y="48.893"/><line style="stroke:#181818;stroke-width:0.3;stroke-dasharray:3,3;" x1="265.4323" x2="265.4323" y1="48.893" y2="342.2742"/></g><g><title>ResumeService</title><rect fill="#000000" fill-opacity="0.00000" height="293.3812" width="4.8" x="393.4849" y="48.893"/><line style="stroke:#181818;stroke-width:0.3;stroke-dasharray:3,3;" x1="395.681" x2="395.681" y1="48.893" y2="342.2742"/></g><g><title>...........</title><rect fill="#000000" fill-opacity="0.00000" height="293.3812" width="4.8" x="516.2039" y="48.893"/><line style="stroke:#181818;stroke-width:0.3;stroke-dasharray:3,3;" x1="518.5213" x2="518.5213" y1="48.893" y2="342.2742"/></g><g><title>PostgreSQL</title><rect fill="#000000" fill-opacity="0.00000" height="293.3812" width="4.8" x="632.6121" y="48.893"/><line style="stroke:#181818;stroke-width:0.3;stroke-dasharray:3,3;" x1="634.7572" x2="634.7572" y1="48.893" y2="342.2742"/></g><g><title>AIService</title><rect fill="#000000" fill-opacity="0.00000" height="293.3812" width="4.8" x="685.9743" y="48.893"/><line style="stroke:#181818;stroke-width:0.3;stroke-dasharray:3,3;" x1="688.067" x2="688.067" y1="48.893" y2="342.2742"/></g><g><title>Qdrant</title><rect fill="#000000" fill-opacity="0.00000" height="293.3812" width="4.8" x="730.4033" y="48.893"/><line style="stroke:#181818;stroke-width:0.3;stroke-dasharray:3,3;" x1="732.4816" x2="732.4816" y1="48.893" y2="342.2742"/></g><g class="participant participant-head" data-participant="User"><text fill="#000000" font-family="sans-serif" font-size="8.4" lengthAdjust="spacing" textLength="47.8611" x="3" y="47.1211">&#1057;&#1086;&#1080;&#1089;&#1082;&#1072;&#1090;&#1077;&#1083;&#1100;</text><ellipse cx="28.7306" cy="8.1" fill="#E2E2F0" rx="4.8" ry="4.8" style="stroke:#181818;stroke-width:0.3;"/><path d="M28.7306,12.9 L28.7306,29.1 M20.9306,17.7 L36.5306,17.7 M28.7306,29.1 L20.9306,38.1 M28.7306,29.1 L36.5306,38.1" fill="none" style="stroke:#181818;stroke-width:0.3;"/></g><g class="participant participant-tail" data-participant="User"><text fill="#000000" font-family="sans-serif" font-size="8.4" lengthAdjust="spacing" textLength="47.8611" x="3" y="349.7953">&#1057;&#1086;&#1080;&#1089;&#1082;&#1072;&#1090;&#1077;&#1083;&#1100;</text><ellipse cx="28.7306" cy="356.6672" fill="#E2E2F0" rx="4.8" ry="4.8" style="stroke:#181818;stroke-width:0.3;"/><path d="M28.7306,361.4672 L28.7306,377.6672 M20.9306,366.2672 L36.5306,366.2672 M28.7306,377.6672 L20.9306,386.6672 M28.7306,377.6672 L36.5306,386.6672" fill="none" style="stroke:#181818;stroke-width:0.3;"/></g><g class="participant participant-head" data-participant="SPA"><rect fill="#E2E2F0" height="18.293" rx="1.5" ry="1.5" style="stroke:#181818;stroke-width:0.3;" width="40.5152" x="118.9626" y="30"/><text fill="#000000" font-family="sans-serif" font-size="8.4" lengthAdjust="spacing" textLength="32.1152" x="123.1626" y="42.3211">WebSPA</text></g><g class="participant participant-tail" data-participant="SPA"><rect fill="#E2E2F0" height="18.293" rx="1.5" ry="1.5" style="stroke:#181818;stroke-width:0.3;" width="40.5152" x="118.9626" y="341.6742"/><text fill="#000000" font-family="sans-serif" font-size="8.4" lengthAdjust="spacing" textLength="32.1152" x="123.1626" y="353.9953">WebSPA</text></g><g class="participant participant-head" data-participant="CTRL"><rect fill="#E2E2F0" height="18.293" rx="1.5" ry="1.5" style="stroke:#181818;stroke-width:0.3;" width="81.3053" x="225.2323" y="30"/><text fill="#000000" font-family="sans-serif" font-size="8.4" lengthAdjust="spacing" textLength="72.9053" x="229.4323" y="42.3211">ResumeController</text></g><g class="participant participant-tail" data-participant="CTRL"><rect fill="#E2E2F0" height="18.293" rx="1.5" ry="1.5" style="stroke:#181818;stroke-width:0.3;" width="81.3053" x="225.2323" y="341.6742"/><text fill="#000000" font-family="sans-serif" font-size="8.4" lengthAdjust="spacing" textLength="72.9053" x="229.4323" y="353.9953">ResumeController</text></g><g class="participant participant-head" data-participant="SVC"><rect fill="#E2E2F0" height="18.293" rx="1.5" ry="1.5" style="stroke:#181818;stroke-width:0.3;" width="68.8078" x="361.481" y="30"/><text fill="#000000" font-family="sans-serif" font-size="8.4" lengthAdjust="spacing" textLength="60.4078" x="365.681" y="42.3211">ResumeService</text></g><g class="participant participant-tail" data-participant="SVC"><rect fill="#E2E2F0" height="18.293" rx="1.5" ry="1.5" style="stroke:#181818;stroke-width:0.3;" width="68.8078" x="361.481" y="341.6742"/><text fill="#000000" font-family="sans-serif" font-size="8.4" lengthAdjust="spacing" textLength="60.4078" x="365.681" y="353.9953">ResumeService</text></g><g class="participant participant-head" data-participant="REPO"><rect fill="#E2E2F0" height="18.293" rx="1.5" ry="1.5" style="stroke:#181818;stroke-width:0.3;" width="62.5652" x="487.3213" y="30"/><text fill="#000000" font-family="sans-serif" font-size="8.4" lengthAdjust="spacing" textLength="54.1652" x="491.5213" y="42.3211">&#1056;&#1077;&#1087;&#1086;&#1079;&#1080;&#1090;&#1086;&#1088;&#1080;&#1080;</text></g><g class="participant participant-tail" data-participant="REPO"><rect fill="#E2E2F0" height="18.293" rx="1.5" ry="1.5" style="stroke:#181818;stroke-width:0.3;" width="62.5652" x="487.3213" y="341.6742"/><text fill="#000000" font-family="sans-serif" font-size="8.4" lengthAdjust="spacing" textLength="54.1652" x="491.5213" y="353.9953">&#1056;&#1077;&#1087;&#1086;&#1079;&#1080;&#1090;&#1086;&#1088;&#1080;&#1080;</text></g><g class="participant participant-head" data-participant="DB"><text fill="#000000" font-family="sans-serif" font-size="8.4" lengthAdjust="spacing" textLength="46.1098" x="610.1572" y="47.1211">PostgreSQL</text><path d="M624.2121,17.4 C624.2121,11.4 635.0121,11.4 635.0121,11.4 C635.0121,11.4 645.8121,11.4 645.8121,17.4 L645.8121,33 C645.8121,39 635.0121,39 635.0121,39 C635.0121,39 624.2121,39 624.2121,33 L624.2121,17.4" fill="#E2E2F0" style="stroke:#181818;stroke-width:0.3;"/><path d="M624.2121,17.4 C624.2121,23.4 635.0121,23.4 635.0121,23.4 C635.0121,23.4 645.8121,23.4 645.8121,17.4" fill="none" style="stroke:#181818;stroke-width:0.3;"/></g><g class="participant participant-tail" data-participant="DB"><text fill="#000000" font-family="sans-serif" font-size="8.4" lengthAdjust="spacing" textLength="46.1098" x="610.1572" y="349.7953">PostgreSQL</text><path d="M624.2121,357.5672 C624.2121,351.5672 635.0121,351.5672 635.0121,351.5672 C635.0121,351.5672 645.8121,351.5672 645.8121,357.5672 L645.8121,373.1672 C645.8121,379.1672 635.0121,379.1672 635.0121,379.1672 C635.0121,379.1672 624.2121,379.1672 624.2121,373.1672 L624.2121,357.5672" fill="#E2E2F0" style="stroke:#181818;stroke-width:0.3;"/><path d="M624.2121,357.5672 C624.2121,363.5672 635.0121,363.5672 635.0121,363.5672 C635.0121,363.5672 645.8121,363.5672 645.8121,357.5672" fill="none" style="stroke:#181818;stroke-width:0.3;"/></g><g class="participant participant-head" data-participant="AI"><rect fill="#E2E2F0" height="18.293" rx="1.5" ry="1.5" style="stroke:#181818;stroke-width:0.3;" width="45.0146" x="665.867" y="30"/><text fill="#000000" font-family="sans-serif" font-size="8.4" lengthAdjust="spacing" textLength="36.6146" x="670.067" y="42.3211">AIService</text></g><g class="participant participant-tail" data-participant="AI"><rect fill="#E2E2F0" height="18.293" rx="1.5" ry="1.5" style="stroke:#181818;stroke-width:0.3;" width="45.0146" x="665.867" y="341.6742"/><text fill="#000000" font-family="sans-serif" font-size="8.4" lengthAdjust="spacing" textLength="36.6146" x="670.067" y="353.9953">AIService</text></g><g class="participant participant-head" data-participant="VDB"><text fill="#000000" font-family="sans-serif" font-size="8.4" lengthAdjust="spacing" textLength="28.2434" x="716.8816" y="47.1211">Qdrant</text><path d="M722.0033,17.4 C722.0033,11.4 732.8033,11.4 732.8033,11.4 C732.8033,11.4 743.6033,11.4 743.6033,17.4 L743.6033,33 C743.6033,39 732.8033,39 732.8033,39 C732.8033,39 722.0033,39 722.0033,33 L722.0033,17.4" fill="#E2E2F0" style="stroke:#181818;stroke-width:0.3;"/><path d="M722.0033,17.4 C722.0033,23.4 732.8033,23.4 732.8033,23.4 C732.8033,23.4 743.6033,23.4 743.6033,17.4" fill="none" style="stroke:#181818;stroke-width:0.3;"/></g><g class="participant participant-tail" data-participant="VDB"><text fill="#000000" font-family="sans-serif" font-size="8.4" lengthAdjust="spacing" textLength="28.2434" x="716.8816" y="349.7953">Qdrant</text><path d="M722.0033,357.5672 C722.0033,351.5672 732.8033,351.5672 732.8033,351.5672 C732.8033,351.5672 743.6033,351.5672 743.6033,357.5672 L743.6033,373.1672 C743.6033,379.1672 732.8033,379.1672 732.8033,379.1672 C732.8033,379.1672 722.0033,379.1672 722.0033,373.1672 L722.0033,357.5672" fill="#E2E2F0" style="stroke:#181818;stroke-width:0.3;"/><path d="M722.0033,357.5672 C722.0033,363.5672 732.8033,363.5672 732.8033,363.5672 C732.8033,363.5672 743.6033,363.5672 743.6033,357.5672" fill="none" style="stroke:#181818;stroke-width:0.3;"/></g><g><title>WebSPA</title><rect fill="#FFFFFF" height="263.7949" style="stroke:#181818;stroke-width:0.6;" width="6" x="136.2202" y="67.6793"/></g><g><title>ResumeController</title><rect fill="#FFFFFF" height="228.6223" style="stroke:#181818;stroke-width:0.6;" width="6" x="262.885" y="85.2656"/></g><g><title>ResumeService</title><rect fill="#FFFFFF" height="193.4496" style="stroke:#181818;stroke-width:0.6;" width="6" x="392.8849" y="102.852"/></g><g><title>...........</title><rect fill="#FFFFFF" height="52.759" style="stroke:#181818;stroke-width:0.6;" width="6" x="515.6039" y="120.4383"/></g><g><title>...........</title><rect fill="#FFFFFF" height="52.759" style="stroke:#181818;stroke-width:0.6;" width="6" x="515.6039" y="225.9562"/></g><g><title>PostgreSQL</title><rect fill="#FFFFFF" height="17.5863" style="stroke:#181818;stroke-width:0.6;" width="6" x="632.0121" y="138.0246"/></g><g><title>AIService</title><rect fill="#FFFFFF" height="17.5863" style="stroke:#181818;stroke-width:0.6;" width="6" x="685.3743" y="190.7836"/></g><g><title>Qdrant</title><rect fill="#FFFFFF" height="17.5863" style="stroke:#181818;stroke-width:0.6;" width="6" x="729.8033" y="243.5426"/></g><g class="message" data-participant-1="User" data-participant-2="SPA"><polygon fill="#181818" points="129.0202,65.2793,135.0202,67.6793,129.0202,70.0793,131.4202,67.6793" style="stroke:#181818;stroke-width:0.6;"/><line style="stroke:#181818;stroke-width:0.6;" x1="28.7306" x2="132.6202" y1="67.6793" y2="67.6793"/><text fill="#000000" font-family="sans-serif" font-size="7.8" lengthAdjust="spacing" textLength="73.5439" x="32.9306" y="64.834">&#1057;&#1086;&#1093;&#1088;&#1072;&#1085;&#1080;&#1090;&#1100; &#1088;&#1077;&#1079;&#1102;&#1084;&#1077;</text></g><g class="message" data-participant-1="SPA" data-participant-2="CTRL"><polygon fill="#181818" points="255.685,82.8656,261.685,85.2656,255.685,87.6656,258.085,85.2656" style="stroke:#181818;stroke-width:0.6;"/><line style="stroke:#181818;stroke-width:0.6;" x1="142.2202" x2="259.285" y1="85.2656" y2="85.2656"/><text fill="#000000" font-family="sans-serif" font-size="7.8" lengthAdjust="spacing" textLength="109.2647" x="146.4202" y="82.4203">&#1047;&#1072;&#1087;&#1088;&#1086;&#1089; &#1085;&#1072; &#1089;&#1086;&#1079;&#1076;&#1072;&#1085;&#1080;&#1077; &#1088;&#1077;&#1079;&#1102;&#1084;&#1077;</text></g><g class="message" data-participant-1="CTRL" data-participant-2="SVC"><polygon fill="#181818" points="385.6849,100.452,391.6849,102.852,385.6849,105.252,388.0849,102.852" style="stroke:#181818;stroke-width:0.6;"/><line style="stroke:#181818;stroke-width:0.6;" x1="268.885" x2="389.2849" y1="102.852" y2="102.852"/><text fill="#000000" font-family="sans-serif" font-size="7.8" lengthAdjust="spacing" textLength="63.0665" x="273.085" y="100.0066">&#1057;&#1086;&#1079;&#1076;&#1072;&#1090;&#1100; &#1088;&#1077;&#1079;&#1102;&#1084;&#1077;</text></g><g class="message" data-participant-1="SVC" data-participant-2="REPO"><polygon fill="#181818" points="508.4039,118.0383,514.4039,120.4383,508.4039,122.8383,510.8039,120.4383" style="stroke:#181818;stroke-width:0.6;"/><line style="stroke:#181818;stroke-width:0.6;" x1="398.8849" x2="512.0039" y1="120.4383" y2="120.4383"/><text fill="#000000" font-family="sans-serif" font-size="7.8" lengthAdjust="spacing" textLength="105.319" x="403.0849" y="117.593">&#1057;&#1086;&#1093;&#1088;&#1072;&#1085;&#1080;&#1090;&#1100; &#1076;&#1072;&#1085;&#1085;&#1099;&#1077; &#1088;&#1077;&#1079;&#1102;&#1084;&#1077;</text></g><g class="message" data-participant-1="REPO" data-participant-2="DB"><polygon fill="#181818" points="624.8121,135.6246,630.8121,138.0246,624.8121,140.4246,627.2121,138.0246" style="stroke:#181818;stroke-width:0.6;"/><line style="stroke:#181818;stroke-width:0.6;" x1="521.6039" x2="628.4121" y1="138.0246" y2="138.0246"/><text fill="#000000" font-family="sans-serif" font-size="7.8" lengthAdjust="spacing" textLength="99.0082" x="525.8039" y="135.1793">&#1047;&#1072;&#1087;&#1080;&#1089;&#1100; &#1076;&#1072;&#1085;&#1085;&#1099;&#1093; &#1074; &#1090;&#1072;&#1073;&#1083;&#1080;&#1094;&#1091;</text></g><g class="message" data-participant-1="DB" data-participant-2="REPO"><polygon fill="#181818" points="528.2039,153.2109,522.2039,155.6109,528.2039,158.0109,525.8039,155.6109" style="stroke:#181818;stroke-width:0.6;"/><line style="stroke:#181818;stroke-width:0.6;stroke-dasharray:1.2,1.2;" x1="524.6039" x2="634.4121" y1="155.6109" y2="155.6109"/><text fill="#000000" font-family="sans-serif" font-size="7.8" lengthAdjust="spacing" textLength="93.9885" x="531.8039" y="152.7656">&#1048;&#1076;&#1077;&#1085;&#1090;&#1080;&#1092;&#1080;&#1082;&#1072;&#1090;&#1086;&#1088; &#1088;&#1077;&#1079;&#1102;&#1084;&#1077;</text></g><g class="message" data-participant-1="REPO" data-participant-2="SVC"><polygon fill="#181818" points="405.4849,170.7973,399.4849,173.1973,405.4849,175.5973,403.0849,173.1973" style="stroke:#181818;stroke-width:0.6;"/><line style="stroke:#181818;stroke-width:0.6;stroke-dasharray:1.2,1.2;" x1="401.8849" x2="518.0039" y1="173.1973" y2="173.1973"/><text fill="#000000" font-family="sans-serif" font-size="7.8" lengthAdjust="spacing" textLength="59.494" x="409.0849" y="170.352">&#1054;&#1073;&#1098;&#1077;&#1082;&#1090; &#1088;&#1077;&#1079;&#1102;&#1084;&#1077;</text></g><g class="message" data-participant-1="SVC" data-participant-2="AI"><polygon fill="#181818" points="678.1743,188.3836,684.1743,190.7836,678.1743,193.1836,680.5743,190.7836" style="stroke:#181818;stroke-width:0.6;"/><line style="stroke:#181818;stroke-width:0.6;" x1="398.8849" x2="681.7743" y1="190.7836" y2="190.7836"/><text fill="#000000" font-family="sans-serif" font-size="7.8" lengthAdjust="spacing" textLength="113.3057" x="403.0849" y="187.9383">&#1055;&#1086;&#1083;&#1091;&#1095;&#1080;&#1090;&#1100; &#1101;&#1084;&#1073;&#1077;&#1076;&#1076;&#1080;&#1085;&#1075;&#1080; &#1090;&#1077;&#1082;&#1089;&#1090;&#1072;</text></g><g class="message" data-participant-1="AI" data-participant-2="SVC"><polygon fill="#181818" points="405.4849,205.9699,399.4849,208.3699,405.4849,210.7699,403.0849,208.3699" style="stroke:#181818;stroke-width:0.6;"/><line style="stroke:#181818;stroke-width:0.6;stroke-dasharray:1.2,1.2;" x1="401.8849" x2="687.7743" y1="208.3699" y2="208.3699"/><text fill="#000000" font-family="sans-serif" font-size="7.8" lengthAdjust="spacing" textLength="101.9408" x="409.0849" y="205.5246">&#1042;&#1077;&#1082;&#1090;&#1086;&#1088;&#1085;&#1086;&#1077; &#1087;&#1088;&#1077;&#1076;&#1089;&#1090;&#1072;&#1074;&#1083;&#1077;&#1085;&#1080;&#1077;</text></g><g class="message" data-participant-1="SVC" data-participant-2="REPO"><polygon fill="#181818" points="508.4039,223.5563,514.4039,225.9562,508.4039,228.3563,510.8039,225.9562" style="stroke:#181818;stroke-width:0.6;"/><line style="stroke:#181818;stroke-width:0.6;" x1="398.8849" x2="512.0039" y1="225.9562" y2="225.9562"/><text fill="#000000" font-family="sans-serif" font-size="7.8" lengthAdjust="spacing" textLength="70.5618" x="403.0849" y="223.1109">&#1057;&#1086;&#1093;&#1088;&#1072;&#1085;&#1080;&#1090;&#1100; &#1074;&#1077;&#1082;&#1090;&#1086;&#1088;</text></g><g class="message" data-participant-1="REPO" data-participant-2="VDB"><polygon fill="#181818" points="722.6033,241.1426,728.6033,243.5426,722.6033,245.9426,725.0033,243.5426" style="stroke:#181818;stroke-width:0.6;"/><line style="stroke:#181818;stroke-width:0.6;" x1="521.6039" x2="726.2033" y1="243.5426" y2="243.5426"/><text fill="#000000" font-family="sans-serif" font-size="7.8" lengthAdjust="spacing" textLength="126.3463" x="525.8039" y="240.6973">&#1047;&#1072;&#1087;&#1080;&#1089;&#1100; &#1074;&#1077;&#1082;&#1090;&#1086;&#1088;&#1072; &#1089; &#1087;&#1088;&#1080;&#1074;&#1103;&#1079;&#1082;&#1086;&#1081; &#1082; ID</text></g><g class="message" data-participant-1="VDB" data-participant-2="REPO"><polygon fill="#181818" points="528.2039,258.7289,522.2039,261.1289,528.2039,263.5289,525.8039,261.1289" style="stroke:#181818;stroke-width:0.6;"/><line style="stroke:#181818;stroke-width:0.6;stroke-dasharray:1.2,1.2;" x1="524.6039" x2="732.2033" y1="261.1289" y2="261.1289"/><text fill="#000000" font-family="sans-serif" font-size="7.8" lengthAdjust="spacing" textLength="62.3505" x="531.8039" y="258.2836">&#1055;&#1086;&#1076;&#1090;&#1074;&#1077;&#1088;&#1078;&#1076;&#1077;&#1085;&#1080;&#1077;</text></g><g class="message" data-participant-1="REPO" data-participant-2="SVC"><polygon fill="#181818" points="405.4849,276.3152,399.4849,278.7152,405.4849,281.1152,403.0849,278.7152" style="stroke:#181818;stroke-width:0.6;"/><line style="stroke:#181818;stroke-width:0.6;stroke-dasharray:1.2,1.2;" x1="401.8849" x2="518.0039" y1="278.7152" y2="278.7152"/><text fill="#000000" font-family="sans-serif" font-size="7.8" lengthAdjust="spacing" textLength="23.0153" x="409.0849" y="275.8699">&#1059;&#1089;&#1087;&#1077;&#1093;</text></g><g class="message" data-participant-1="SVC" data-participant-2="CTRL"><polygon fill="#181818" points="275.485,293.9016,269.485,296.3016,275.485,298.7016,273.085,296.3016" style="stroke:#181818;stroke-width:0.6;"/><line style="stroke:#181818;stroke-width:0.6;stroke-dasharray:1.2,1.2;" x1="271.885" x2="395.2849" y1="296.3016" y2="296.3016"/><text fill="#000000" font-family="sans-serif" font-size="7.8" lengthAdjust="spacing" textLength="109.5999" x="279.085" y="293.4563">&#1044;&#1072;&#1085;&#1085;&#1099;&#1077; &#1089;&#1086;&#1079;&#1076;&#1072;&#1085;&#1085;&#1086;&#1075;&#1086; &#1088;&#1077;&#1079;&#1102;&#1084;&#1077;</text></g><g class="message" data-participant-1="CTRL" data-participant-2="SPA"><polygon fill="#181818" points="148.8202,311.4879,142.8202,313.8879,148.8202,316.2879,146.4202,313.8879" style="stroke:#181818;stroke-width:0.6;"/><line style="stroke:#181818;stroke-width:0.6;stroke-dasharray:1.2,1.2;" x1="145.2202" x2="265.285" y1="313.8879" y2="313.8879"/><text fill="#000000" font-family="sans-serif" font-size="7.8" lengthAdjust="spacing" textLength="63.6302" x="152.4202" y="311.0426">&#1059;&#1089;&#1087;&#1077;&#1096;&#1085;&#1099;&#1081; &#1086;&#1090;&#1074;&#1077;&#1090;</text></g><g class="message" data-participant-1="SPA" data-participant-2="User"><polygon fill="#181818" points="35.3306,329.0742,29.3306,331.4742,35.3306,333.8742,32.9306,331.4742" style="stroke:#181818;stroke-width:0.6;"/><line style="stroke:#181818;stroke-width:0.6;stroke-dasharray:1.2,1.2;" x1="31.7306" x2="138.6202" y1="331.4742" y2="331.4742"/><text fill="#000000" font-family="sans-serif" font-size="7.8" lengthAdjust="spacing" textLength="93.0896" x="38.9306" y="328.6289">&#1059;&#1074;&#1077;&#1076;&#1086;&#1084;&#1083;&#1077;&#1085;&#1080;&#1077; &#1086;&#1073; &#1091;&#1089;&#1087;&#1077;&#1093;&#1077;</text></g><!--SRC=[XLFBRjD05DtFLroPTN-01L8UB29L8at0NJlE2AAsSUMOYYLr2I0e824aMF4GFv2aCJLEa_p2dJ_Yp4nIEmc6H9eecdlEd7lElPuV1I4v_8CNdAfppdYaOavufYuTyWRqQ2138KwzCEhvlLEl7v5pA3ljPiNSubU8Jl2CdAhd7yb-rw4xXqzwaMoV14TI43uRq9OSF3sHjQ0VXS7niGmDIUrXQx-ij2t3ivulxMDkRRUClqFi4kAl8J_cXNhEAQUcldM_-K104q6W45qlyZhUG9BJ30RHur2s3_PDMRswrL-bKNorqYXY3xeXQio5gu7Q7jgxfusuIzf4DOI24S-r6dL9-9FmjNhFDvm8puzwPruahMquD59t3-XdW9QeNgXp0df4o48tDRLad9HG6VE4FeqCjsPbMEI_9C1CWKEZj55_LRzwVQxUbhvlJDQ79gfNrvteMTeWK4FY2I6X4OzvXkkNwY9dWPNrAktbMhu0cG0Ne_85shTZYNGtPNHbaSBAkBNXAu_L6nHdAYv56Vbh7oeDeBx1l9cwKA_M2Ru3PWpq5DyKpLnnIcP5ChI8Vl8kC2gLHa70H_ku6SevQ1Co4OFA8da29n8RRr6K7hd_HZF9oKlIS7VZA83CY5b1AK_K1qnC1es_YJDgr7DAFURkPZZQeYbOm0RqBnlLTXFkRY0_CTDBO8Ob2UJRyAauTyL5q3PUyQ8qJpFMTXjkjtBzx6j3Y0ONA-rn4MaNoImba7glDTGuDiMZDtbK8E0nOKHMtMmfm6x_0G00]--></g></svg>