<svg xmlns="http://www.w3.org/2000/svg" xmlns:xlink="http://www.w3.org/1999/xlink" contentStyleType="text/css" data-diagram-type="ACTIVITY" height="1466px" preserveAspectRatio="none" style="width:1042px;height:1466px;background:#FFFFFF;" version="1.1" viewBox="0 0 1042 1466" width="1042px" zoomAndPan="magnify"><defs/><g><rect fill="none" height="20.9531" style="stroke:none;stroke-width:1;" width="1009.3472" x="15" y="12.7451"/><ellipse cx="257.5679" cy="48.6982" fill="#222222" rx="10" ry="10" style="stroke:#222222;stroke-width:1;"/><rect fill="#F1F1F1" height="33.9688" rx="12.5" ry="12.5" style="stroke:#181818;stroke-width:0.5;" width="168.4531" x="173.3413" y="78.6982"/><text fill="#000000" font-family="sans-serif" font-size="12" lengthAdjust="spacing" textLength="148.4531" x="183.3413" y="99.8369">&#1040;&#1074;&#1090;&#1086;&#1088;&#1080;&#1079;&#1072;&#1094;&#1080;&#1103; &#1074; &#1089;&#1080;&#1089;&#1090;&#1077;&#1084;&#1077;</text><rect fill="#F1F1F1" height="33.9688" rx="12.5" ry="12.5" style="stroke:#181818;stroke-width:0.5;" width="208.5664" x="153.2847" y="132.667"/><text fill="#000000" font-family="sans-serif" font-size="12" lengthAdjust="spacing" textLength="188.5664" x="163.2847" y="153.8057">&#1053;&#1072;&#1078;&#1072;&#1090;&#1080;&#1077; "&#1057;&#1086;&#1079;&#1076;&#1072;&#1090;&#1100; &#1074;&#1072;&#1082;&#1072;&#1085;&#1089;&#1080;&#1102;"</text><rect fill="#F1F1F1" height="47.9375" rx="12.5" ry="12.5" style="stroke:#181818;stroke-width:0.5;" width="268.4551" x="123.3403" y="186.6357"/><text fill="#000000" font-family="sans-serif" font-size="12" lengthAdjust="spacing" textLength="127.8926" x="133.3403" y="207.7744">&#1047;&#1072;&#1087;&#1086;&#1083;&#1085;&#1077;&#1085;&#1080;&#1077; &#1076;&#1072;&#1085;&#1085;&#1099;&#1093;</text><text fill="#000000" font-family="sans-serif" font-size="12" lengthAdjust="spacing" textLength="248.4551" x="133.3403" y="221.7432">(&#1053;&#1072;&#1079;&#1074;&#1072;&#1085;&#1080;&#1077;, &#1047;&#1055;, &#1053;&#1072;&#1074;&#1099;&#1082;&#1080;, &#1058;&#1080;&#1087; &#1079;&#1072;&#1085;&#1103;&#1090;&#1086;&#1089;&#1090;&#1080;)</text><rect fill="#F1F1F1" height="33.9688" rx="12.5" ry="12.5" style="stroke:#181818;stroke-width:0.5;" width="159.6641" x="177.7358" y="254.5732"/><text fill="#000000" font-family="sans-serif" font-size="12" lengthAdjust="spacing" textLength="139.6641" x="187.7358" y="275.7119">&#1055;&#1091;&#1073;&#1083;&#1080;&#1082;&#1072;&#1094;&#1080;&#1103; &#1074;&#1072;&#1082;&#1072;&#1085;&#1089;&#1080;&#1080;</text><rect fill="#F1F1F1" height="33.9688" rx="12.5" ry="12.5" style="stroke:#181818;stroke-width:0.5;" width="194.7383" x="160.1987" y="1148.7695"/><text fill="#000000" font-family="sans-serif" font-size="12" lengthAdjust="spacing" textLength="174.7383" x="170.1987" y="1169.9082">&#1055;&#1077;&#1088;&#1077;&#1093;&#1086;&#1076; &#1082; &#1089;&#1087;&#1080;&#1089;&#1082;&#1091; &#1086;&#1090;&#1082;&#1083;&#1080;&#1082;&#1086;&#1074;</text><rect fill="#F1F1F1" height="33.9688" rx="12.5" ry="12.5" style="stroke:#181818;stroke-width:0.5;" width="189.3418" x="162.897" y="1202.7383"/><text fill="#000000" font-family="sans-serif" font-size="12" lengthAdjust="spacing" textLength="169.3418" x="172.897" y="1223.877">&#1040;&#1085;&#1072;&#1083;&#1080;&#1079; &#1088;&#1077;&#1079;&#1102;&#1084;&#1077; &#1082;&#1072;&#1085;&#1076;&#1080;&#1076;&#1072;&#1090;&#1072;</text><polygon fill="#F1F1F1" points="257.5679,1260.606,269.5679,1272.606,257.5679,1284.606,245.5679,1272.606,257.5679,1260.606" style="stroke:#181818;stroke-width:0.5;"/><text fill="#000000" font-family="sans-serif" font-size="11" lengthAdjust="spacing" textLength="127.8589" x="263.5679" y="1258.0117">&#1050;&#1072;&#1085;&#1076;&#1080;&#1076;&#1072;&#1090; &#1080;&#1085;&#1090;&#1077;&#1088;&#1077;&#1089;&#1077;&#1085;?</text><text fill="#000000" font-family="sans-serif" font-size="11" lengthAdjust="spacing" textLength="21.4468" x="224.1211" y="1270.0117">&#1053;&#1077;&#1090;</text><text fill="#000000" font-family="sans-serif" font-size="11" lengthAdjust="spacing" textLength="15.3345" x="269.5679" y="1270.0117">&#1044;&#1072;</text><rect fill="#F1F1F1" height="33.9688" rx="12.5" ry="12.5" style="stroke:#181818;stroke-width:0.5;" width="214.1328" x="21" y="1294.606"/><text fill="#000000" font-family="sans-serif" font-size="12" lengthAdjust="spacing" textLength="194.1328" x="31" y="1315.7446">&#1048;&#1079;&#1084;&#1077;&#1085;&#1077;&#1085;&#1080;&#1077; &#1089;&#1090;&#1072;&#1090;&#1091;&#1089;&#1072; &#1085;&#1072; "&#1054;&#1090;&#1082;&#1072;&#1079;"</text><rect fill="#F1F1F1" height="33.9688" rx="12.5" ry="12.5" style="stroke:#181818;stroke-width:0.5;" width="263.873" x="255.1328" y="1294.606"/><text fill="#000000" font-family="sans-serif" font-size="12" lengthAdjust="spacing" textLength="243.873" x="265.1328" y="1315.7446">&#1048;&#1079;&#1084;&#1077;&#1085;&#1077;&#1085;&#1080;&#1077; &#1089;&#1090;&#1072;&#1090;&#1091;&#1089;&#1072; &#1085;&#1072; "&#1055;&#1088;&#1080;&#1075;&#1083;&#1072;&#1096;&#1077;&#1085;&#1080;&#1077;"</text><polygon fill="#F1F1F1" points="257.5679,1334.5747,269.5679,1346.5747,257.5679,1358.5747,245.5679,1346.5747,257.5679,1334.5747" style="stroke:#181818;stroke-width:0.5;"/><line style="stroke:#000000;stroke-width:1.5;" x1="15" x2="15" y1="12.7451" y2="1454.5435"/><rect fill="#F1F1F1" height="33.9688" rx="12.5" ry="12.5" style="stroke:#181818;stroke-width:0.5;" width="242.4688" x="529.0059" y="308.542"/><text fill="#000000" font-family="sans-serif" font-size="12" lengthAdjust="spacing" textLength="222.4688" x="539.0059" y="329.6807">&#1042;&#1072;&#1083;&#1080;&#1076;&#1072;&#1094;&#1080;&#1103; &#1080; &#1089;&#1086;&#1093;&#1088;&#1072;&#1085;&#1077;&#1085;&#1080;&#1077; &#1074;&#1072;&#1082;&#1072;&#1085;&#1089;&#1080;&#1080;</text><rect fill="#F1F1F1" height="33.9688" rx="12.5" ry="12.5" style="stroke:#181818;stroke-width:0.5;" width="201.248" x="549.6162" y="362.5107"/><text fill="#000000" font-family="sans-serif" font-size="12" lengthAdjust="spacing" textLength="181.248" x="559.6162" y="383.6494">&#1055;&#1091;&#1073;&#1083;&#1080;&#1082;&#1072;&#1094;&#1080;&#1103; &#1074; &#1086;&#1073;&#1097;&#1077;&#1084; &#1089;&#1087;&#1080;&#1089;&#1082;&#1077;</text><rect fill="#F1F1F1" height="33.9688" rx="12.5" ry="12.5" style="stroke:#181818;stroke-width:0.5;" width="189.623" x="555.4287" y="1094.8008"/><text fill="#000000" font-family="sans-serif" font-size="12" lengthAdjust="spacing" textLength="169.623" x="565.4287" y="1115.9395">&#1057;&#1086;&#1079;&#1076;&#1072;&#1085;&#1080;&#1077; &#1079;&#1072;&#1087;&#1080;&#1089;&#1080; "&#1054;&#1090;&#1082;&#1083;&#1080;&#1082;"</text><rect fill="#F1F1F1" height="33.9688" rx="12.5" ry="12.5" style="stroke:#181818;stroke-width:0.5;" width="148.8477" x="575.8164" y="1378.5747"/><text fill="#000000" font-family="sans-serif" font-size="12" lengthAdjust="spacing" textLength="128.8477" x="585.8164" y="1399.7134">&#1057;&#1086;&#1093;&#1088;&#1072;&#1085;&#1077;&#1085;&#1080;&#1077; &#1089;&#1090;&#1072;&#1090;&#1091;&#1089;&#1072;</text><ellipse cx="650.2402" cy="1443.5435" fill="none" rx="11" ry="11" style="stroke:#222222;stroke-width:1;"/><ellipse cx="650.2402" cy="1443.5435" fill="#222222" rx="6" ry="6" style="stroke:#222222;stroke-width:1;"/><line style="stroke:#000000;stroke-width:1.5;" x1="523.0059" x2="523.0059" y1="12.7451" y2="1454.5435"/><rect fill="#F1F1F1" height="33.9688" rx="12.5" ry="12.5" style="stroke:#181818;stroke-width:0.5;" width="145.0332" x="823.9258" y="416.4795"/><text fill="#000000" font-family="sans-serif" font-size="12" lengthAdjust="spacing" textLength="125.0332" x="833.9258" y="437.6182">&#1042;&#1093;&#1086;&#1076; &#1085;&#1072; &#1087;&#1083;&#1072;&#1090;&#1092;&#1086;&#1088;&#1084;&#1091;</text><rect fill="#F1F1F1" height="33.9688" rx="12.5" ry="12.5" style="stroke:#181818;stroke-width:0.5;" width="200.9609" x="795.9619" y="470.4482"/><text fill="#000000" font-family="sans-serif" font-size="12" lengthAdjust="spacing" textLength="180.9609" x="805.9619" y="491.5869">&#1053;&#1072;&#1089;&#1090;&#1088;&#1086;&#1081;&#1082;&#1072; &#1092;&#1080;&#1083;&#1100;&#1090;&#1088;&#1086;&#1074; &#1087;&#1086;&#1080;&#1089;&#1082;&#1072;</text><rect fill="#F1F1F1" height="33.9688" rx="12.5" ry="12.5" style="stroke:#181818;stroke-width:0.5;" width="190.0977" x="801.3936" y="524.417"/><text fill="#000000" font-family="sans-serif" font-size="12" lengthAdjust="spacing" textLength="170.0977" x="811.3936" y="545.5557">&#1048;&#1079;&#1091;&#1095;&#1077;&#1085;&#1080;&#1077; &#1089;&#1087;&#1080;&#1089;&#1082;&#1072; &#1074;&#1072;&#1082;&#1072;&#1085;&#1089;&#1080;&#1081;</text><rect fill="#F1F1F1" height="33.9688" rx="12.5" ry="12.5" style="stroke:#181818;stroke-width:0.5;" width="122.9492" x="834.9678" y="578.3857"/><text fill="#000000" font-family="sans-serif" font-size="12" lengthAdjust="spacing" textLength="102.9492" x="844.9678" y="599.5244">&#1042;&#1099;&#1073;&#1086;&#1088; &#1074;&#1072;&#1082;&#1072;&#1085;&#1089;&#1080;&#1080;</text><rect fill="#F1F1F1" height="33.9688" rx="12.5" ry="12.5" style="stroke:#181818;stroke-width:0.5;" width="229.9355" x="781.4746" y="632.3545"/><text fill="#000000" font-family="sans-serif" font-size="12" lengthAdjust="spacing" textLength="209.9355" x="791.4746" y="653.4932">&#1053;&#1072;&#1078;&#1072;&#1090;&#1080;&#1077; &#1082;&#1085;&#1086;&#1087;&#1082;&#1080; "&#1054;&#1090;&#1082;&#1083;&#1080;&#1082;&#1085;&#1091;&#1090;&#1100;&#1089;&#1103;"</text><rect fill="#F1F1F1" height="33.9688" rx="12.5" ry="12.5" style="stroke:#181818;stroke-width:0.5;" width="194.0879" x="799.3984" y="738.6245"/><text fill="#000000" font-family="sans-serif" font-size="12" lengthAdjust="spacing" textLength="174.0879" x="809.3984" y="759.7632">&#1056;&#1077;&#1075;&#1080;&#1089;&#1090;&#1088;&#1072;&#1094;&#1080;&#1103; / &#1040;&#1074;&#1090;&#1086;&#1088;&#1080;&#1079;&#1072;&#1094;&#1080;&#1103;</text><polygon fill="#F1F1F1" points="896.4424,690.2222,908.4424,702.2222,896.4424,714.2222,884.4424,702.2222,896.4424,690.2222" style="stroke:#181818;stroke-width:0.5;"/><text fill="#000000" font-family="sans-serif" font-size="11" lengthAdjust="spacing" textLength="80.1099" x="902.4424" y="687.6279">&#1040;&#1074;&#1090;&#1086;&#1088;&#1080;&#1079;&#1086;&#1074;&#1072;&#1085;?</text><text fill="#000000" font-family="sans-serif" font-size="11" lengthAdjust="spacing" textLength="21.4468" x="902.4424" y="724.4326">&#1053;&#1077;&#1090;</text><text fill="#000000" font-family="sans-serif" font-size="11" lengthAdjust="spacing" textLength="15.3345" x="908.4424" y="699.6279">&#1044;&#1072;</text><polygon fill="#F1F1F1" points="896.4424,792.5933,908.4424,804.5933,896.4424,816.5933,884.4424,804.5933,896.4424,792.5933" style="stroke:#181818;stroke-width:0.5;"/><rect fill="#F1F1F1" height="33.9688" rx="12.5" ry="12.5" style="stroke:#181818;stroke-width:0.5;" width="179.5742" x="806.6553" y="888.8945"/><text fill="#000000" font-family="sans-serif" font-size="12" lengthAdjust="spacing" textLength="159.5742" x="816.6553" y="910.0332">&#1057;&#1086;&#1079;&#1076;&#1072;&#1085;&#1080;&#1077; &#1085;&#1086;&#1074;&#1086;&#1075;&#1086; &#1088;&#1077;&#1079;&#1102;&#1084;&#1077;</text><polygon fill="#F1F1F1" points="896.4424,840.4922,908.4424,852.4922,896.4424,864.4922,884.4424,852.4922,896.4424,840.4922" style="stroke:#181818;stroke-width:0.5;"/><text fill="#000000" font-family="sans-serif" font-size="11" lengthAdjust="spacing" textLength="79.1484" x="902.4424" y="837.8979">&#1045;&#1089;&#1090;&#1100; &#1088;&#1077;&#1079;&#1102;&#1084;&#1077;?</text><text fill="#000000" font-family="sans-serif" font-size="11" lengthAdjust="spacing" textLength="21.4468" x="902.4424" y="874.7026">&#1053;&#1077;&#1090;</text><text fill="#000000" font-family="sans-serif" font-size="11" lengthAdjust="spacing" textLength="15.3345" x="908.4424" y="849.8979">&#1044;&#1072;</text><polygon fill="#F1F1F1" points="896.4424,942.8633,908.4424,954.8633,896.4424,966.8633,884.4424,954.8633,896.4424,942.8633" style="stroke:#181818;stroke-width:0.5;"/><rect fill="#F1F1F1" height="33.9688" rx="12.5" ry="12.5" style="stroke:#181818;stroke-width:0.5;" width="194.2637" x="799.3105" y="986.8633"/><text fill="#000000" font-family="sans-serif" font-size="12" lengthAdjust="spacing" textLength="174.2637" x="809.3105" y="1008.002">&#1042;&#1099;&#1073;&#1086;&#1088; &#1088;&#1077;&#1079;&#1102;&#1084;&#1077; &#1076;&#1083;&#1103; &#1086;&#1090;&#1082;&#1083;&#1080;&#1082;&#1072;</text><rect fill="#F1F1F1" height="33.9688" rx="12.5" ry="12.5" style="stroke:#181818;stroke-width:0.5;" width="186.3242" x="803.2803" y="1040.832"/><text fill="#000000" font-family="sans-serif" font-size="12" lengthAdjust="spacing" textLength="166.3242" x="813.2803" y="1061.9707">&#1055;&#1086;&#1076;&#1090;&#1074;&#1077;&#1088;&#1078;&#1076;&#1077;&#1085;&#1080;&#1077; &#1086;&#1090;&#1087;&#1088;&#1072;&#1074;&#1082;&#1080;</text><line style="stroke:#000000;stroke-width:1.5;" x1="775.4746" x2="775.4746" y1="12.7451" y2="1454.5435"/><line style="stroke:#000000;stroke-width:1.5;" x1="1022.4863" x2="1022.4863" y1="12.7451" y2="1454.5435"/><line style="stroke:#181818;stroke-width:1;" x1="257.5679" x2="257.5679" y1="58.6982" y2="78.6982"/><polygon fill="#181818" points="253.5679,68.6982,257.5679,78.6982,261.5679,68.6982,257.5679,72.6982" style="stroke:#181818;stroke-width:1;"/><line style="stroke:#181818;stroke-width:1;" x1="257.5679" x2="257.5679" y1="112.667" y2="132.667"/><polygon fill="#181818" points="253.5679,122.667,257.5679,132.667,261.5679,122.667,257.5679,126.667" style="stroke:#181818;stroke-width:1;"/><line style="stroke:#181818;stroke-width:1;" x1="257.5679" x2="257.5679" y1="166.6357" y2="186.6357"/><polygon fill="#181818" points="253.5679,176.6357,257.5679,186.6357,261.5679,176.6357,257.5679,180.6357" style="stroke:#181818;stroke-width:1;"/><line style="stroke:#181818;stroke-width:1;" x1="257.5679" x2="257.5679" y1="234.5732" y2="254.5732"/><polygon fill="#181818" points="253.5679,244.5732,257.5679,254.5732,261.5679,244.5732,257.5679,248.5732" style="stroke:#181818;stroke-width:1;"/><line style="stroke:#181818;stroke-width:1;" x1="257.5679" x2="257.5679" y1="1182.7383" y2="1202.7383"/><polygon fill="#181818" points="253.5679,1192.7383,257.5679,1202.7383,261.5679,1192.7383,257.5679,1196.7383" style="stroke:#181818;stroke-width:1;"/><line style="stroke:#181818;stroke-width:1;" x1="245.5679" x2="128.0664" y1="1272.606" y2="1272.606"/><line style="stroke:#181818;stroke-width:1;" x1="128.0664" x2="128.0664" y1="1272.606" y2="1294.606"/><polygon fill="#181818" points="124.0664,1284.606,128.0664,1294.606,132.0664,1284.606,128.0664,1288.606" style="stroke:#181818;stroke-width:1;"/><line style="stroke:#181818;stroke-width:1;" x1="269.5679" x2="387.0693" y1="1272.606" y2="1272.606"/><line style="stroke:#181818;stroke-width:1;" x1="387.0693" x2="387.0693" y1="1272.606" y2="1294.606"/><polygon fill="#181818" points="383.0693,1284.606,387.0693,1294.606,391.0693,1284.606,387.0693,1288.606" style="stroke:#181818;stroke-width:1;"/><line style="stroke:#181818;stroke-width:1;" x1="128.0664" x2="128.0664" y1="1328.5747" y2="1346.5747"/><line style="stroke:#181818;stroke-width:1;" x1="128.0664" x2="245.5679" y1="1346.5747" y2="1346.5747"/><polygon fill="#181818" points="235.5679,1342.5747,245.5679,1346.5747,235.5679,1350.5747,239.5679,1346.5747" style="stroke:#181818;stroke-width:1;"/><line style="stroke:#181818;stroke-width:1;" x1="387.0693" x2="387.0693" y1="1328.5747" y2="1346.5747"/><line style="stroke:#181818;stroke-width:1;" x1="387.0693" x2="269.5679" y1="1346.5747" y2="1346.5747"/><polygon fill="#181818" points="279.5679,1342.5747,269.5679,1346.5747,279.5679,1350.5747,275.5679,1346.5747" style="stroke:#181818;stroke-width:1;"/><line style="stroke:#181818;stroke-width:1;" x1="257.5679" x2="257.5679" y1="1236.707" y2="1260.606"/><polygon fill="#181818" points="253.5679,1250.606,257.5679,1260.606,261.5679,1250.606,257.5679,1254.606" style="stroke:#181818;stroke-width:1;"/><line style="stroke:#181818;stroke-width:1;" x1="650.2402" x2="650.2402" y1="342.5107" y2="362.5107"/><polygon fill="#181818" points="646.2402,352.5107,650.2402,362.5107,654.2402,352.5107,650.2402,356.5107" style="stroke:#181818;stroke-width:1;"/><line style="stroke:#181818;stroke-width:1;" x1="650.2402" x2="650.2402" y1="1412.5435" y2="1432.5435"/><polygon fill="#181818" points="646.2402,1422.5435,650.2402,1432.5435,654.2402,1422.5435,650.2402,1426.5435" style="stroke:#181818;stroke-width:1;"/><line style="stroke:#181818;stroke-width:1;" x1="896.4424" x2="896.4424" y1="450.4482" y2="470.4482"/><polygon fill="#181818" points="892.4424,460.4482,896.4424,470.4482,900.4424,460.4482,896.4424,464.4482" style="stroke:#181818;stroke-width:1;"/><line style="stroke:#181818;stroke-width:1;" x1="896.4424" x2="896.4424" y1="504.417" y2="524.417"/><polygon fill="#181818" points="892.4424,514.417,896.4424,524.417,900.4424,514.417,896.4424,518.417" style="stroke:#181818;stroke-width:1;"/><line style="stroke:#181818;stroke-width:1;" x1="896.4424" x2="896.4424" y1="558.3857" y2="578.3857"/><polygon fill="#181818" points="892.4424,568.3857,896.4424,578.3857,900.4424,568.3857,896.4424,572.3857" style="stroke:#181818;stroke-width:1;"/><line style="stroke:#181818;stroke-width:1;" x1="896.4424" x2="896.4424" y1="612.3545" y2="632.3545"/><polygon fill="#181818" points="892.4424,622.3545,896.4424,632.3545,900.4424,622.3545,896.4424,626.3545" style="stroke:#181818;stroke-width:1;"/><line style="stroke:#181818;stroke-width:1;" x1="896.4424" x2="896.4424" y1="714.2222" y2="738.6245"/><polygon fill="#181818" points="892.4424,728.6245,896.4424,738.6245,900.4424,728.6245,896.4424,732.6245" style="stroke:#181818;stroke-width:1;"/><line style="stroke:#181818;stroke-width:1;" x1="908.4424" x2="1003.4863" y1="702.2222" y2="702.2222"/><polygon fill="#181818" points="999.4863,745.6089,1003.4863,755.6089,1007.4863,745.6089,1003.4863,749.6089" style="stroke:#181818;stroke-width:1;"/><line style="stroke:#181818;stroke-width:1;" x1="1003.4863" x2="1003.4863" y1="702.2222" y2="804.5933"/><line style="stroke:#181818;stroke-width:1;" x1="1003.4863" x2="908.4424" y1="804.5933" y2="804.5933"/><polygon fill="#181818" points="918.4424,800.5933,908.4424,804.5933,918.4424,808.5933,914.4424,804.5933" style="stroke:#181818;stroke-width:1;"/><line style="stroke:#181818;stroke-width:1;" x1="896.4424" x2="896.4424" y1="772.5933" y2="792.5933"/><polygon fill="#181818" points="892.4424,782.5933,896.4424,792.5933,900.4424,782.5933,896.4424,786.5933" style="stroke:#181818;stroke-width:1;"/><line style="stroke:#181818;stroke-width:1;" x1="896.4424" x2="896.4424" y1="666.3232" y2="690.2222"/><polygon fill="#181818" points="892.4424,680.2222,896.4424,690.2222,900.4424,680.2222,896.4424,684.2222" style="stroke:#181818;stroke-width:1;"/><line style="stroke:#181818;stroke-width:1;" x1="896.4424" x2="896.4424" y1="864.4922" y2="888.8945"/><polygon fill="#181818" points="892.4424,878.8945,896.4424,888.8945,900.4424,878.8945,896.4424,882.8945" style="stroke:#181818;stroke-width:1;"/><line style="stroke:#181818;stroke-width:1;" x1="908.4424" x2="996.2295" y1="852.4922" y2="852.4922"/><polygon fill="#181818" points="992.2295,895.8789,996.2295,905.8789,1000.2295,895.8789,996.2295,899.8789" style="stroke:#181818;stroke-width:1;"/><line style="stroke:#181818;stroke-width:1;" x1="996.2295" x2="996.2295" y1="852.4922" y2="954.8633"/><line style="stroke:#181818;stroke-width:1;" x1="996.2295" x2="908.4424" y1="954.8633" y2="954.8633"/><polygon fill="#181818" points="918.4424,950.8633,908.4424,954.8633,918.4424,958.8633,914.4424,954.8633" style="stroke:#181818;stroke-width:1;"/><line style="stroke:#181818;stroke-width:1;" x1="896.4424" x2="896.4424" y1="922.8633" y2="942.8633"/><polygon fill="#181818" points="892.4424,932.8633,896.4424,942.8633,900.4424,932.8633,896.4424,936.8633" style="stroke:#181818;stroke-width:1;"/><line style="stroke:#181818;stroke-width:1;" x1="896.4424" x2="896.4424" y1="816.5933" y2="840.4922"/><polygon fill="#181818" points="892.4424,830.4922,896.4424,840.4922,900.4424,830.4922,896.4424,834.4922" style="stroke:#181818;stroke-width:1;"/><line style="stroke:#181818;stroke-width:1;" x1="896.4424" x2="896.4424" y1="966.8633" y2="986.8633"/><polygon fill="#181818" points="892.4424,976.8633,896.4424,986.8633,900.4424,976.8633,896.4424,980.8633" style="stroke:#181818;stroke-width:1;"/><line style="stroke:#181818;stroke-width:1;" x1="896.4424" x2="896.4424" y1="1020.832" y2="1040.832"/><polygon fill="#181818" points="892.4424,1030.832,896.4424,1040.832,900.4424,1030.832,896.4424,1034.832" style="stroke:#181818;stroke-width:1;"/><line style="stroke:#181818;stroke-width:1;" x1="257.5679" x2="257.5679" y1="288.542" y2="293.542"/><line style="stroke:#181818;stroke-width:1;" x1="257.5679" x2="650.2402" y1="293.542" y2="293.542"/><line style="stroke:#181818;stroke-width:1;" x1="650.2402" x2="650.2402" y1="293.542" y2="308.542"/><polygon fill="#181818" points="646.2402,298.542,650.2402,308.542,654.2402,298.542,650.2402,302.542" style="stroke:#181818;stroke-width:1;"/><line style="stroke:#181818;stroke-width:1;" x1="650.2402" x2="650.2402" y1="396.4795" y2="401.4795"/><line style="stroke:#181818;stroke-width:1;" x1="650.2402" x2="896.4424" y1="401.4795" y2="401.4795"/><line style="stroke:#181818;stroke-width:1;" x1="896.4424" x2="896.4424" y1="401.4795" y2="416.4795"/><polygon fill="#181818" points="892.4424,406.4795,896.4424,416.4795,900.4424,406.4795,896.4424,410.4795" style="stroke:#181818;stroke-width:1;"/><line style="stroke:#181818;stroke-width:1;" x1="896.4424" x2="896.4424" y1="1074.8008" y2="1079.8008"/><line style="stroke:#181818;stroke-width:1;" x1="896.4424" x2="650.2402" y1="1079.8008" y2="1079.8008"/><line style="stroke:#181818;stroke-width:1;" x1="650.2402" x2="650.2402" y1="1079.8008" y2="1094.8008"/><polygon fill="#181818" points="646.2402,1084.8008,650.2402,1094.8008,654.2402,1084.8008,650.2402,1088.8008" style="stroke:#181818;stroke-width:1;"/><line style="stroke:#181818;stroke-width:1;" x1="650.2402" x2="650.2402" y1="1128.7695" y2="1133.7695"/><line style="stroke:#181818;stroke-width:1;" x1="650.2402" x2="257.5679" y1="1133.7695" y2="1133.7695"/><line style="stroke:#181818;stroke-width:1;" x1="257.5679" x2="257.5679" y1="1133.7695" y2="1148.7695"/><polygon fill="#181818" points="253.5679,1138.7695,257.5679,1148.7695,261.5679,1138.7695,257.5679,1142.7695" style="stroke:#181818;stroke-width:1;"/><line style="stroke:#181818;stroke-width:1;" x1="257.5679" x2="257.5679" y1="1358.5747" y2="1363.5747"/><line style="stroke:#181818;stroke-width:1;" x1="257.5679" x2="650.2402" y1="1363.5747" y2="1363.5747"/><line style="stroke:#181818;stroke-width:1;" x1="650.2402" x2="650.2402" y1="1363.5747" y2="1378.5747"/><polygon fill="#181818" points="646.2402,1368.5747,650.2402,1378.5747,654.2402,1368.5747,650.2402,1372.5747" style="stroke:#181818;stroke-width:1;"/><text fill="#000000" font-family="sans-serif" font-size="18" lengthAdjust="spacing" textLength="132.6445" x="202.6807" y="29.4531">&#1056;&#1072;&#1073;&#1086;&#1090;&#1086;&#1076;&#1072;&#1090;&#1077;&#1083;&#1100;</text><text fill="#000000" font-family="sans-serif" font-size="18" lengthAdjust="spacing" textLength="108.9932" x="594.7437" y="29.4531">&#1055;&#1083;&#1072;&#1090;&#1092;&#1086;&#1088;&#1084;&#1072;</text><text fill="#000000" font-family="sans-serif" font-size="18" lengthAdjust="spacing" textLength="110.751" x="843.605" y="29.4531">&#1057;&#1086;&#1080;&#1089;&#1082;&#1072;&#1090;&#1077;&#1083;&#1100;</text><!--SRC=[bLJDRjf04BxxALQSWbIfTtpeeO_G9t31W1LY8t0LLSg1G4bQWK9LjMfLgQNj4pWEhXs8pIlClb6_MHkovYTIEOImC_FDD_Dzk_rJn-rQFUjCzDjMmpjtt9PeMfs-RVItaQvLFxLQzYl_RSSMFRlkMswheoUyHaAhvxrn6o-zZjSJvst7r-DrpsqulkEvEKJ3iSvmOXWNz8i2kgLC3YcZ1GNuZcWbfnS8pMd51_8TmWDwe80FVoClaPUqr7EVmkdxLiytQlIHGWu2AQ4O2LU0cGaA1S00g0eUA3AH-WDOVnL6Gf6eg9vnZYgdA44OxIbLbJSLBlcAtskahIW5JgeAkGB_fd8YnyQ9GerLiGe_4oYQuo-VXt82o0I__Y2s5imGXJF5cBabLUuoboCCkKBAKfj0fqE9QHnUNOq-8Obh5u-r2K-VoJ6I0ftv7kQntW8ptyeFl3k6MXVQH8h5GQt0GuvP985cWK19YQeS5Ghms3Z8w9xh1U890nI7eL3hBj2vv1l5SYIljpDeR8BTWUvDHMEY73CuE6xP0uYcQBTcaM28dpXU5hj8qHMs0DqPd60uJN6ouxKi5_r5LVXjsnNiX4WEguR0fmRZHdINEv1LA3RxN1msh6dOk9h0-4n1rR1ngvf5poyAOIgG7s4LDspc8ostVjx8dIgE6NXafVg3tVJDwSdiznMR8jEsewIPizmu345YWAqk7et6kMlblf1tUzoyUvnZTUDOu1r5AkQJxm7JOHhHneLBpIfoLAQFjPZgxKYBknFlZAnSWmP9qIJOME1xEO2h1gSCYywNl80Zui373AtTHlK0y496A0poQxEP64zAfQpI_w7CbRtkrCRVRt8PCTVwk1XxRqOPtyIxwtN_0G00]--></g></svg>