<svg xmlns="http://www.w3.org/2000/svg" xmlns:xlink="http://www.w3.org/1999/xlink" contentStyleType="text/css" data-diagram-type="DESCRIPTION" height="941px" preserveAspectRatio="none" style="width:1184px;height:941px;background:#FFFFFF;" version="1.1" viewBox="0 0 1184 941" width="1184px" zoomAndPan="magnify"><defs/><g><!--cluster ??????? ?????? ??????--><g class="cluster" data-entity="....... ...... ......" data-source-line="10" data-uid="ent0007" id="cluster_....... ...... ......"><rect fill="none" height="819" rx="2.5" ry="2.5" style="stroke:#181818;stroke-width:1;" width="920" x="258" y="7"/><text fill="#000000" font-family="sans-serif" font-size="14" font-weight="bold" lengthAdjust="spacing" textLength="192.6162" x="621.6919" y="21.9951">&#1057;&#1080;&#1089;&#1090;&#1077;&#1084;&#1072; &#1087;&#1086;&#1080;&#1089;&#1082;&#1072; &#1088;&#1072;&#1073;&#1086;&#1090;&#1099;</text></g><!--entity Register--><g class="entity" data-entity="Register" data-source-line="12" data-uid="ent0008" id="entity_Register"><ellipse cx="430.6546" cy="57.9309" fill="#F1F1F1" rx="65.1546" ry="15.4309" style="stroke:#181818;stroke-width:0.5;"/><text fill="#000000" font-family="sans-serif" font-size="14" lengthAdjust="spacing" textLength="93.8779" x="383.7156" y="62.5794">&#1056;&#1077;&#1075;&#1080;&#1089;&#1090;&#1088;&#1072;&#1094;&#1080;&#1103;</text></g><!--entity Login--><g class="entity" data-entity="Login" data-source-line="13" data-uid="ent0009" id="entity_Login"><ellipse cx="430.3102" cy="124.062" fill="#F1F1F1" rx="65.8102" ry="15.562" style="stroke:#181818;stroke-width:0.5;"/><text fill="#000000" font-family="sans-serif" font-size="14" lengthAdjust="spacing" textLength="95.6074" x="382.5065" y="128.7105">&#1040;&#1074;&#1090;&#1086;&#1088;&#1080;&#1079;&#1072;&#1094;&#1080;&#1103;</text></g><!--entity SearchVacancies--><g class="entity" data-entity="SearchVacancies" data-source-line="14" data-uid="ent0010" id="entity_SearchVacancies"><ellipse cx="1087.5802" cy="633.816" fill="#F1F1F1" rx="74.5802" ry="17.316" style="stroke:#181818;stroke-width:0.5;"/><text fill="#000000" font-family="sans-serif" font-size="14" lengthAdjust="spacing" textLength="117.708" x="1028.7262" y="638.4645">&#1055;&#1086;&#1080;&#1089;&#1082; &#1074;&#1072;&#1082;&#1072;&#1085;&#1089;&#1080;&#1081;</text></g><!--entity ManageProfileSeeker--><g class="entity" data-entity="ManageProfileSeeker" data-source-line="16" data-uid="ent0011" id="entity_ManageProfileSeeker"><ellipse cx="430.393" cy="196.1786" fill="#F1F1F1" rx="96.393" ry="21.6786" style="stroke:#181818;stroke-width:0.5;"/><text fill="#000000" font-family="sans-serif" font-size="14" lengthAdjust="spacing" textLength="168.0752" x="346.3554" y="200.827">&#1059;&#1087;&#1088;&#1072;&#1074;&#1083;&#1077;&#1085;&#1080;&#1077; &#1087;&#1088;&#1086;&#1092;&#1080;&#1083;&#1077;&#1084;</text></g><!--entity ManageResume--><g class="entity" data-entity="ManageResume" data-source-line="17" data-uid="ent0012" id="entity_ManageResume"><ellipse cx="430.5544" cy="272.9109" fill="#F1F1F1" rx="87.5544" ry="19.9109" style="stroke:#181818;stroke-width:0.5;"/><text fill="#000000" font-family="sans-serif" font-size="14" lengthAdjust="spacing" textLength="148.1826" x="356.4631" y="277.5593">&#1059;&#1087;&#1088;&#1072;&#1074;&#1083;&#1077;&#1085;&#1080;&#1077; &#1088;&#1077;&#1079;&#1102;&#1084;&#1077;</text></g><!--entity Apply--><g class="entity" data-entity="Apply" data-source-line="18" data-uid="ent0013" id="entity_Apply"><ellipse cx="430.561" cy="352.8122" fill="#F1F1F1" rx="112.061" ry="24.8122" style="stroke:#181818;stroke-width:0.5;"/><text fill="#000000" font-family="sans-serif" font-size="14" lengthAdjust="spacing" textLength="202.3301" x="329.3959" y="357.4606">&#1054;&#1090;&#1082;&#1083;&#1080;&#1082;&#1085;&#1091;&#1090;&#1100;&#1089;&#1103; &#1085;&#1072; &#1074;&#1072;&#1082;&#1072;&#1085;&#1089;&#1080;&#1102;</text></g><!--entity ViewMyApplications--><g class="entity" data-entity="ViewMyApplications" data-source-line="19" data-uid="ent0014" id="entity_ViewMyApplications"><ellipse cx="430.6782" cy="447.2356" fill="#F1F1F1" rx="156.6782" ry="33.7356" style="stroke:#181818;stroke-width:0.5;"/><text fill="#000000" font-family="sans-serif" font-size="14" lengthAdjust="spacing" textLength="296.3584" x="282.499" y="451.8841">&#1055;&#1088;&#1086;&#1089;&#1084;&#1086;&#1090;&#1088; &#1089;&#1074;&#1086;&#1080;&#1093; &#1086;&#1090;&#1082;&#1083;&#1080;&#1082;&#1086;&#1074; &#1080; &#1080;&#1093; &#1089;&#1090;&#1072;&#1090;&#1091;&#1089;&#1086;&#1074;</text></g><!--entity AddResume--><g class="entity" data-entity="AddResume" data-source-line="21" data-uid="ent0015" id="entity_AddResume"><ellipse cx="823.0406" cy="273.2081" fill="#F1F1F1" rx="96.5406" ry="21.7081" style="stroke:#181818;stroke-width:0.5;"/><text fill="#000000" font-family="sans-serif" font-size="14" lengthAdjust="spacing" textLength="168.4033" x="738.8389" y="277.8566">&#1057;&#1086;&#1079;&#1076;&#1072;&#1090;&#1100; &#1085;&#1086;&#1074;&#1086;&#1077; &#1088;&#1077;&#1079;&#1102;&#1084;&#1077;</text></g><!--entity ManageCompany--><g class="entity" data-entity="ManageCompany" data-source-line="23" data-uid="ent0016" id="entity_ManageCompany"><ellipse cx="430.6884" cy="630.8377" fill="#F1F1F1" rx="132.1884" ry="28.8377" style="stroke:#181818;stroke-width:0.5;"/><text fill="#000000" font-family="sans-serif" font-size="14" lengthAdjust="spacing" textLength="245.1914" x="308.0927" y="635.4861">&#1059;&#1087;&#1088;&#1072;&#1074;&#1083;&#1077;&#1085;&#1080;&#1077; &#1087;&#1088;&#1086;&#1092;&#1080;&#1083;&#1077;&#1084; &#1082;&#1086;&#1084;&#1087;&#1072;&#1085;&#1080;&#1080;</text></g><!--entity ManageVacancies--><g class="entity" data-entity="ManageVacancies" data-source-line="24" data-uid="ent0017" id="entity_ManageVacancies"><ellipse cx="430.372" cy="717.7744" fill="#F1F1F1" rx="101.872" ry="22.7744" style="stroke:#181818;stroke-width:0.5;"/><text fill="#000000" font-family="sans-serif" font-size="14" lengthAdjust="spacing" textLength="180.1748" x="340.2846" y="722.4228">&#1059;&#1087;&#1088;&#1072;&#1074;&#1083;&#1077;&#1085;&#1080;&#1077; &#1074;&#1072;&#1082;&#1072;&#1085;&#1089;&#1080;&#1103;&#1084;&#1080;</text></g><!--entity SearchResumes--><g class="entity" data-entity="SearchResumes" data-source-line="25" data-uid="ent0018" id="entity_SearchResumes"><ellipse cx="430.3356" cy="792.7671" fill="#F1F1F1" rx="69.3356" ry="16.2671" style="stroke:#181818;stroke-width:0.5;"/><text fill="#000000" font-family="sans-serif" font-size="14" lengthAdjust="spacing" textLength="104.6992" x="377.986" y="797.4156">&#1055;&#1086;&#1080;&#1089;&#1082; &#1088;&#1077;&#1079;&#1102;&#1084;&#1077;</text></g><!--entity ViewReceivedApplications--><g class="entity" data-entity="ViewReceivedApplications" data-source-line="26" data-uid="ent0019" id="entity_ViewReceivedApplications"><ellipse cx="823.1241" cy="703.2248" fill="#F1F1F1" rx="129.1241" ry="28.2248" style="stroke:#181818;stroke-width:0.5;"/><text fill="#000000" font-family="sans-serif" font-size="14" lengthAdjust="spacing" textLength="238.7246" x="703.7618" y="707.8733">&#1055;&#1088;&#1086;&#1089;&#1084;&#1086;&#1090;&#1088; &#1087;&#1086;&#1083;&#1091;&#1095;&#1077;&#1085;&#1085;&#1099;&#1093; &#1086;&#1090;&#1082;&#1083;&#1080;&#1082;&#1086;&#1074;</text></g><!--entity ChangeAppStatus--><g class="entity" data-entity="ChangeAppStatus" data-source-line="27" data-uid="ent0020" id="entity_ChangeAppStatus"><ellipse cx="430.7102" cy="540.842" fill="#F1F1F1" rx="114.7102" ry="25.342" style="stroke:#181818;stroke-width:0.5;"/><text fill="#000000" font-family="sans-serif" font-size="14" lengthAdjust="spacing" textLength="208.0313" x="326.6946" y="545.4905">&#1048;&#1079;&#1084;&#1077;&#1085;&#1077;&#1085;&#1080;&#1077; &#1089;&#1090;&#1072;&#1090;&#1091;&#1089;&#1072; &#1086;&#1090;&#1082;&#1083;&#1080;&#1082;&#1072;</text></g><!--entity Guest--><g class="entity" data-entity="Guest" data-source-line="3" data-uid="ent0002" id="entity_Guest"><ellipse cx="26.6035" cy="289.5" fill="#F1F1F1" rx="8" ry="8" style="stroke:#181818;stroke-width:0.5;"/><path d="M26.6035,297.5 L26.6035,324.5 M13.6035,305.5 L39.6035,305.5 M26.6035,324.5 L13.6035,339.5 M26.6035,324.5 L39.6035,339.5" fill="none" style="stroke:#181818;stroke-width:0.5;"/><text fill="#000000" font-family="sans-serif" font-size="14" lengthAdjust="spacing" textLength="41.207" x="6" y="353.9951">&#1043;&#1086;&#1089;&#1090;&#1100;</text></g><!--entity Seeker--><g class="entity" data-entity="Seeker" data-source-line="4" data-uid="ent0003" id="entity_Seeker"><ellipse cx="159.5698" cy="289.5" fill="#F1F1F1" rx="8" ry="8" style="stroke:#181818;stroke-width:0.5;"/><path d="M159.5698,297.5 L159.5698,324.5 M146.5698,305.5 L172.5698,305.5 M159.5698,324.5 L146.5698,339.5 M159.5698,324.5 L172.5698,339.5" fill="none" style="stroke:#181818;stroke-width:0.5;"/><text fill="#000000" font-family="sans-serif" font-size="14" lengthAdjust="spacing" textLength="86.1396" x="116.5" y="353.9951">&#1057;&#1086;&#1080;&#1089;&#1082;&#1072;&#1090;&#1077;&#1083;&#1100;</text></g><!--entity Employer--><g class="entity" data-entity="Employer" data-source-line="5" data-uid="ent0004" id="entity_Employer"><ellipse cx="159.584" cy="656.5" fill="#F1F1F1" rx="8" ry="8" style="stroke:#181818;stroke-width:0.5;"/><path d="M159.584,664.5 L159.584,691.5 M146.584,672.5 L172.584,672.5 M159.584,691.5 L146.584,706.5 M159.584,691.5 L172.584,706.5" fill="none" style="stroke:#181818;stroke-width:0.5;"/><text fill="#000000" font-family="sans-serif" font-size="14" lengthAdjust="spacing" textLength="103.168" x="108" y="720.9951">&#1056;&#1072;&#1073;&#1086;&#1090;&#1086;&#1076;&#1072;&#1090;&#1077;&#1083;&#1100;</text></g><!--reverse link Guest to Seeker--><g class="link" data-entity-1="Guest" data-entity-2="Seeker" data-source-line="7" data-uid="lnk5" id="link_Guest_Seeker"><path d="M65.11,319 C83.31,319 93.01,319 116.24,319" fill="none" id="Guest-backto-Seeker" style="stroke:#181818;stroke-width:1;"/><polygon fill="none" points="47.11,319,65.11,325,65.11,313,47.11,319" style="stroke:#181818;stroke-width:1;"/></g><!--reverse link Guest to Employer--><g class="link" data-entity-1="Guest" data-entity-2="Employer" data-source-line="8" data-uid="lnk6" id="link_Guest_Employer"><path d="M47.2001,374.1928 C72.3601,444.6928 119.74,577.42 144.88,647.85" fill="none" id="Guest-backto-Employer" style="stroke:#181818;stroke-width:1;"/><polygon fill="none" points="41.15,357.24,41.5492,376.2095,52.851,372.1761,41.15,357.24" style="stroke:#181818;stroke-width:1;"/></g><!--link Guest to Register--><g class="link" data-entity-1="Guest" data-entity-2="Register" data-source-line="29" data-uid="lnk21" id="link_Guest_Register"><path d="M44.97,280.74 C59.19,252.4 81.24,214 108,186 C160.46,131.1 179.65,119.57 250,91 C287.87,75.62 327.1955,68.0974 362.8055,63.6874" fill="none" id="Guest-to-Register" style="stroke:#181818;stroke-width:1;"/><polygon fill="#181818" points="368.76,62.95,359.3366,60.0864,363.7979,63.5645,360.3198,68.0258,368.76,62.95" style="stroke:#181818;stroke-width:1;"/></g><!--link Guest to Login--><g class="link" data-entity-1="Guest" data-entity-2="Login" data-source-line="30" data-uid="lnk22" id="link_Guest_Login"><path d="M47.03,299.94 C83.56,265.46 166.14,193.01 250,157 C287.12,141.06 325.8328,133.5251 361.3228,129.2651" fill="none" id="Guest-to-Login" style="stroke:#181818;stroke-width:1;"/><polygon fill="#181818" points="367.28,128.55,357.8674,125.6511,362.3156,129.1459,358.8209,133.5941,367.28,128.55" style="stroke:#181818;stroke-width:1;"/></g><!--link Guest to SearchVacancies--><g class="link" data-entity-1="Guest" data-entity-2="SearchVacancies" data-source-line="31" data-uid="lnk23" id="link_Guest_SearchVacancies"><path d="M27.44,357.01 C28.26,491.09 39.92,934 158.5,934 C158.5,934 158.5,934 824,934 C974.87,934 1057.2289,722.1375 1078.9289,657.5575" fill="none" id="Guest-to-SearchVacancies" style="stroke:#181818;stroke-width:1;"/><polygon fill="#181818" points="1080.84,651.87,1074.1817,659.1272,1079.2474,656.6096,1081.765,661.6753,1080.84,651.87" style="stroke:#181818;stroke-width:1;"/></g><!--link Seeker to ManageProfileSeeker--><g class="link" data-entity-1="Seeker" data-entity-2="ManageProfileSeeker" data-source-line="32" data-uid="lnk24" id="link_Seeker_ManageProfileSeeker"><path d="M192.3,281 C208.04,264.51 228.31,246.4 250,235 C278.37,220.09 306.2314,211.9786 336.7814,206.2886" fill="none" id="Seeker-to-ManageProfileSeeker" style="stroke:#181818;stroke-width:1;"/><polygon fill="#181818" points="342.68,205.19,333.0997,202.9056,337.7645,206.1055,334.5646,210.7703,342.68,205.19" style="stroke:#181818;stroke-width:1;"/></g><!--link Seeker to ManageResume--><g class="link" data-entity-1="Seeker" data-entity-2="ManageResume" data-source-line="33" data-uid="lnk25" id="link_Seeker_ManageResume"><path d="M202.53,311.81 C244.64,304.61 304.2858,294.4108 354.1358,285.8908" fill="none" id="Seeker-to-ManageResume" style="stroke:#181818;stroke-width:1;"/><polygon fill="#181818" points="360.05,284.88,350.5048,282.4534,355.1215,285.7223,351.8525,290.3391,360.05,284.88" style="stroke:#181818;stroke-width:1;"/></g><!--link Seeker to Apply--><g class="link" data-entity-1="Seeker" data-entity-2="Apply" data-source-line="34" data-uid="lnk26" id="link_Seeker_Apply"><path d="M202.53,324.31 C237.26,328.7 281.9673,334.3581 326.6173,339.9981" fill="none" id="Seeker-to-Apply" style="stroke:#181818;stroke-width:1;"/><polygon fill="#181818" points="332.57,340.75,324.1422,335.6537,327.6094,340.1234,323.1397,343.5906,332.57,340.75" style="stroke:#181818;stroke-width:1;"/></g><!--link Seeker to ViewMyApplications--><g class="link" data-entity-1="Seeker" data-entity-2="ViewMyApplications" data-source-line="35" data-uid="lnk27" id="link_Seeker_ViewMyApplications"><path d="M198.37,357.34 C213.4,370.82 231.5,385.06 250,395 C271.58,406.59 290.3057,414.1041 314.0757,421.4241" fill="none" id="Seeker-to-ViewMyApplications" style="stroke:#181818;stroke-width:1;"/><polygon fill="#181818" points="319.81,423.19,312.3859,416.7184,315.0315,421.7184,310.0314,424.364,319.81,423.19" style="stroke:#181818;stroke-width:1;"/></g><!--link ManageResume to AddResume--><g class="link" data-entity-1="ManageResume" data-entity-2="AddResume" data-source-line="37" data-uid="lnk28" id="link_ManageResume_AddResume"><path d="M518.16,273 C579.84,273 656.72,273 720.34,273" fill="none" id="ManageResume-to-AddResume" style="stroke:#181818;stroke-width:1;stroke-dasharray:7,7;"/><polygon fill="#181818" points="726.34,273,717.34,269,721.34,273,717.34,277,726.34,273" style="stroke:#181818;stroke-width:1;"/><text fill="#000000" font-family="sans-serif" font-size="13" lengthAdjust="spacing" textLength="45.2778" x="618" y="269.0669">extend</text></g><!--link Apply to SearchVacancies--><g class="link" data-entity-1="Apply" data-entity-2="SearchVacancies" data-source-line="39" data-uid="lnk29" id="link_Apply_SearchVacancies"><path d="M507.49,371.16 C533.06,378.03 561.55,386.5 587,396 C771.94,465.03 976.565,573.7224 1052.185,615.0524" fill="none" id="Apply-to-SearchVacancies" style="stroke:#181818;stroke-width:1;stroke-dasharray:7,7;"/><polygon fill="#181818" points="1057.45,617.93,1051.4709,610.1037,1053.0625,615.532,1047.6342,617.1236,1057.45,617.93" style="stroke:#181818;stroke-width:1;"/><text fill="#000000" font-family="sans-serif" font-size="13" lengthAdjust="spacing" textLength="45.2778" x="800.5" y="437.0669">extend</text></g><!--link Employer to ManageCompany--><g class="link" data-entity-1="Employer" data-entity-2="ManageCompany" data-source-line="41" data-uid="lnk30" id="link_Employer_ManageCompany"><path d="M211.1,675.65 C245.49,668.62 286.2017,660.3024 327.5117,651.8524" fill="none" id="Employer-to-ManageCompany" style="stroke:#181818;stroke-width:1;"/><polygon fill="#181818" points="333.39,650.65,323.771,648.5348,328.4914,651.652,325.3742,656.3725,333.39,650.65" style="stroke:#181818;stroke-width:1;"/></g><!--link Employer to ManageVacancies--><g class="link" data-entity-1="Employer" data-entity-2="ManageVacancies" data-source-line="42" data-uid="lnk31" id="link_Employer_ManageVacancies"><path d="M211.1,692.02 C247.32,696.33 291.102,701.531 333.962,706.631" fill="none" id="Employer-to-ManageVacancies" style="stroke:#181818;stroke-width:1;"/><polygon fill="#181818" points="339.92,707.34,331.4557,702.3046,334.955,706.7492,330.5104,710.2486,339.92,707.34" style="stroke:#181818;stroke-width:1;"/></g><!--link Employer to SearchResumes--><g class="link" data-entity-1="Employer" data-entity-2="SearchResumes" data-source-line="43" data-uid="lnk32" id="link_Employer_SearchResumes"><path d="M199.55,724.26 C214.3,736.77 231.92,749.6 250,758 C285.7,774.59 322.9807,782.5418 358.0707,787.1318" fill="none" id="Employer-to-SearchResumes" style="stroke:#181818;stroke-width:1;"/><polygon fill="#181818" points="364.02,787.91,355.6148,782.7765,359.0622,787.2615,354.5772,790.7089,364.02,787.91" style="stroke:#181818;stroke-width:1;"/></g><!--link Employer to ViewReceivedApplications--><g class="link" data-entity-1="Employer" data-entity-2="ViewReceivedApplications" data-source-line="44" data-uid="lnk33" id="link_Employer_ViewReceivedApplications"><path d="M172.78,724.09 C185.96,757.92 210.49,805.28 250,827 C381.25,899.15 441.61,863 587,827 C662.45,808.31 735.4423,763.9042 779.9023,733.4042" fill="none" id="Employer-to-ViewReceivedApplications" style="stroke:#181818;stroke-width:1;"/><polygon fill="#181818" points="784.85,730.01,775.1657,731.8028,780.7269,732.8385,779.6912,738.3997,784.85,730.01" style="stroke:#181818;stroke-width:1;"/></g><!--link Employer to ChangeAppStatus--><g class="link" data-entity-1="Employer" data-entity-2="ChangeAppStatus" data-source-line="45" data-uid="lnk34" id="link_Employer_ChangeAppStatus"><path d="M184.96,647.94 C200.93,626.08 223.68,599.88 250,584 C274.15,569.43 297.0565,561.1615 324.3965,554.7915" fill="none" id="Employer-to-ChangeAppStatus" style="stroke:#181818;stroke-width:1;"/><polygon fill="#181818" points="330.24,553.43,320.5671,551.5766,325.3704,554.5646,322.3824,559.3679,330.24,553.43" style="stroke:#181818;stroke-width:1;"/></g><!--link ChangeAppStatus to ViewReceivedApplications--><g class="link" data-entity-1="ChangeAppStatus" data-entity-2="ViewReceivedApplications" data-source-line="47" data-uid="lnk35" id="link_ChangeAppStatus_ViewReceivedApplications"><path d="M510,559.45 C534.96,566.18 562.45,574.5 587,584 C655.45,610.49 725.2141,647.5922 771.6441,673.7822" fill="none" id="ChangeAppStatus-to-ViewReceivedApplications" style="stroke:#181818;stroke-width:1;stroke-dasharray:7,7;"/><polygon fill="#181818" points="776.87,676.73,770.9963,668.8243,772.5151,674.2735,767.0659,675.7922,776.87,676.73" style="stroke:#181818;stroke-width:1;"/><text fill="#000000" font-family="sans-serif" font-size="13" lengthAdjust="spacing" textLength="45.2778" x="618" y="594.0669">extend</text></g><!--SRC=[bLJBQjjG4DtxAmRlxGye9H12wQQ1ua3s5tbYYzgIaUIsfYt4xckH41UwwQeF-WEAMsCrVkGNvlvHvuujwrvRJUX6I3FddZapSwuwU9P04aBajze9DFq8lSGFWqf5UKaOGPK-qqeFzKXVLa75yBYFSRBD_Q0LPNf8DvJg4Krfla6T83x3Q0lxJYbTCys8uRzte8-wlKuuO715gE7XwrejFsz52fWHg89M1wL-PhGntO9IeDj23kZplAY-gCAhIWMW7wEdOXH1K_grFcjm-WE_ZqLE0rj-d70T6_w99aOxGpEQEV0dOSiF7EotN0FGX1Mm55hoPqP_DfDHaTS-LPuAF1zZLzPFkXNP4vgpm2KVceA4LleTVvZWGbYELQ1Q-3GAp_mERePr7n47fZJJLpoggKNImBZVHUVqLsxsXazc_5pgjsRtFAanC56wqvM-4gh3NgypSCSWgeTSp6pW7FXr8fDv3sA4d7z54w0C926hP7TmoQ592FMfZo-E1wQ0xodZp9ZhEAMC2MThN-bB8t8bfKewFcmsD-t-zzX1j2xOOgaWCck4Hs6tfuB1_PpkwCPCPzCKfYZtqruxQo-jEuhldBxSZ3dFzQE8MUgBaZrinzr03_tdsDmPUa7_XUUz4AQjkUpLfIvrAiH7RRwqo9GdYKhwOlprzQxL3knRLmJpkrL4TYyFR7uKaYo_4tk0hT-jJ6vVArHYEmRO552l7nIEWWU0BnCCcWOcV9olxqbsOFa_pL9NMAaaQJVkf7UDu2JlsAY3ArdGJaWw_XTTqTcRlm00]--></g></svg>